<!--?xml version="1.0" standalone="no"?-->

<svg version="1.0" xmlns="http://www.w3.org/2000/svg" width="170pt" height="250pt" viewBox="0 0 170 250">
<g fill="#1e293b"><g transform="translate(0.000000,250.000000) scale(0.100000,-0.100000)" fill="#1e293b" stroke="none">
<path d="M274 2208 c-43 -34 -63 -60 -64 -85 -1 -63 39 -71 90 -18 38 39 74
45 90 16 20 -37 17 -41 -80 -110 -34 -25 -72 -63 -86 -86 -23 -40 -32 -99 -16
-108 4 -3 55 -8 114 -12 127 -8 151 0 146 48 -3 31 -5 32 -55 35 -60 3 -80 20
-63 51 6 12 15 21 19 21 21 0 110 93 116 120 9 42 -25 114 -64 134 -45 24
-112 21 -147 -6z"></path>
<path d="M575 661 c-8 -35 15 -131 61 -259 40 -110 64 -159 99 -201 30 -34 46
-39 65 -16 11 13 4 35 -38 128 -57 125 -98 241 -108 305 -11 67 -67 97 -79 43z" fill="#15803d"></path>
<path d="M751 637 c-24 -63 77 -420 133 -466 20 -17 46 -3 46 25 0 14 -8 41
-19 62 -26 52 -55 149 -80 272 -20 97 -36 130 -63 130 -5 0 -12 -10 -17 -23z" fill="#15803d"></path>
</g></g>
<g fill="#15803d"><g transform="translate(0.000000,250.000000) scale(0.100000,-0.100000)" fill="#15803d" stroke="none">
<path d="M260 790 c0 -11 23 -54 50 -97 28 -42 66 -108 84 -147 19 -39 54
-114 78 -166 51 -108 93 -177 139 -227 l31 -35 24 23 c13 12 24 27 24 31 0 5
-21 35 -46 66 -56 69 -85 125 -114 222 -19 64 -22 88 -16 168 7 104 -3 117
-42 57 -12 -19 -29 -35 -37 -35 -8 0 -32 26 -52 57 -20 31 -47 67 -61 80 -31
29 -62 30 -62 3z"></path>
<path d="M1244 540 c-22 -11 -63 -43 -92 -71 -56 -55 -64 -55 -112 -4 -27 29
-90 65 -114 65 -33 0 -25 -23 27 -73 48 -45 56 -59 63 -102 5 -36 3 -62 -9
-95 -14 -40 -15 -47 -1 -67 8 -13 18 -23 23 -23 5 0 29 30 54 68 52 78 159
202 190 219 31 17 89 16 115 -3 13 -9 40 -34 62 -57 l38 -42 7 28 c4 15 4 38
1 51 -14 54 -116 125 -181 126 -16 0 -48 -9 -71 -20z"></path>
</g></g>
<g fill="#ef4444"><g transform="translate(0.000000,250.000000) scale(0.100000,-0.100000)" fill="#ef4444" stroke="none">
<path d="M1229 2308 c-19 -14 -50 -22 -105 -27 l-79 -6 0 -30 0 -30 70 -1 c94
-1 95 -1 95 -22 0 -36 -31 -52 -88 -45 l-53 6 3 -44 3 -44 -40 -3 c-83 -5
-105 -12 -98 -30 13 -36 37 -53 73 -51 19 1 41 1 48 0 29 -3 7 -45 -58 -110
-38 -38 -70 -74 -70 -80 0 -6 14 -11 30 -11 32 0 73 34 136 115 34 43 56 43
76 0 14 -31 1 -48 -90 -112 -41 -30 -62 -51 -60 -62 7 -30 48 -10 195 94 11 7
20 3 36 -19 12 -15 41 -48 64 -73 40 -43 43 -44 95 -41 74 4 73 23 -3 72 -119
75 -150 116 -114 146 20 17 19 53 -3 73 -17 15 -20 15 -44 -13 -14 -17 -31
-30 -37 -30 -16 0 -51 38 -51 55 0 8 9 24 20 35 17 17 33 20 98 20 88 0 107 8
97 39 -5 17 -14 21 -49 21 -23 0 -50 6 -59 13 -16 11 -16 15 4 55 12 24 32 50
45 59 30 19 30 34 2 60 -43 38 -61 43 -89 21z m-12 -54 c-3 -3 -12 -4 -19 -1
-8 3 -5 6 6 6 11 1 17 -2 13 -5z"></path>
<path d="M950 1490 c-19 -11 -54 -19 -77 -20 -25 0 -43 -5 -43 -11 0 -7 -33
-44 -72 -83 -40 -39 -84 -92 -97 -118 -13 -26 -30 -49 -38 -52 -7 -3 -46 3
-86 13 -40 11 -91 21 -114 24 -62 7 -69 -6 -55 -101 15 -94 63 -196 128 -270
63 -72 106 -92 194 -92 l71 0 52 -54 c78 -79 122 -99 217 -94 69 3 83 7 141
43 40 25 81 41 109 45 42 5 45 7 48 37 5 48 -37 120 -112 192 -36 34 -66 70
-67 80 0 9 0 78 1 153 1 126 0 137 -18 147 -11 6 -23 26 -26 45 -23 123 -74
161 -156 116z m74 -79 c10 -11 20 -37 23 -59 4 -31 1 -44 -16 -61 -24 -24 -49
-18 -57 15 -5 21 -11 23 -53 21 -43 -2 -46 0 -49 25 -3 21 4 32 35 52 45 31
93 34 117 7z m-186 -93 c22 -22 13 -59 -27 -105 -22 -24 -47 -66 -56 -91 -29
-83 -35 -92 -51 -99 -22 -8 -34 14 -34 68 0 71 27 136 80 191 47 49 67 57 88
36z m226 -94 c22 -8 22 -154 1 -214 -29 -83 -126 -175 -154 -147 -17 17 -14
32 14 73 28 42 45 93 45 144 2 114 36 166 94 144z m-149 -28 c16 -11 17 -22
12 -77 -9 -88 -22 -129 -57 -177 -54 -75 -110 -66 -110 17 0 83 42 179 99 228
31 27 32 27 56 9z m-331 -51 c21 -19 26 -33 26 -72 0 -26 11 -78 24 -114 24
-68 21 -99 -9 -99 -43 0 -160 158 -172 232 -8 55 10 78 61 78 32 0 50 -6 70
-25z m574 -221 c65 -39 102 -126 62 -144 -14 -6 -45 -22 -120 -62 -22 -12 -55
-18 -95 -18 -73 0 -110 17 -110 49 0 24 4 27 66 54 20 9 61 43 90 76 29 34 60
61 67 61 8 0 26 -7 40 -16z"></path>
</g></g>
</svg>