<?xml version="1.0" standalone="no"?>
<!DOCTYPE svg PUBLIC "-//W3C//DTD SVG 20010904//EN" "http://www.w3.org/TR/2001/REC-SVG-20010904/DTD/svg10.dtd">
<svg version="1.0" xmlns="http://www.w3.org/2000/svg" width="170pt" height="250pt" viewBox="0 0 170 250">
<g fill="#1e293b"><g transform="translate(0.000000,250.000000) scale(0.100000,-0.100000)"
fill="#1e293b" stroke="none">
<path d="M535 2186 c-14 -10 -17 -21 -11 -57 5 -35 2 -50 -14 -74 -11 -16 -20
-36 -20 -42 0 -20 34 -15 71 10 19 13 42 26 52 30 9 3 22 18 28 31 24 52 -62
134 -106 102z"/>
<path d="M283 2125 c-9 -24 3 -93 21 -120 25 -39 79 -34 122 9 32 32 45 78 26
90 -5 3 -25 0 -46 -6 -33 -11 -38 -9 -64 15 -32 31 -50 34 -59 12z"/>
<path d="M545 1973 c-84 -30 -114 -36 -190 -36 -49 -1 -100 2 -111 7 -37 14
-36 -19 3 -69 41 -55 41 -55 205 -4 53 17 105 29 115 27 10 -2 24 -16 31 -31
7 -15 17 -27 23 -27 23 0 110 52 125 75 16 24 15 27 -2 48 -49 58 -61 59 -199
10z"/>
<path d="M427 1823 c-17 -16 -3 -45 41 -82 52 -45 76 -51 92 -21 13 25 2 48
-41 84 -29 24 -77 34 -92 19z"/>
<path d="M396 1693 c-16 -16 -2 -46 46 -93 51 -50 85 -67 113 -56 19 7 19 46
0 74 -28 39 -141 93 -159 75z"/>
</g></g>
<g fill="#15803d"><g transform="translate(0.000000,250.000000) scale(0.100000,-0.100000)"
fill="#15803d" stroke="none">
<path d="M849 1698 c-15 -28 -26 -82 -36 -172 -9 -80 -23 -151 -35 -181 -66
-158 -79 -214 -86 -359 -6 -123 -9 -141 -24 -144 -12 -2 -21 5 -27 21 -17 44
-41 249 -41 348 0 54 -4 109 -10 123 -13 35 -47 35 -60 0 -17 -44 -11 -205 15
-400 8 -60 -1 -68 -63 -52 -35 9 -46 7 -74 -9 -45 -26 -75 -73 -88 -139 -15
-70 9 -233 46 -313 24 -53 107 -161 124 -161 24 0 19 46 -11 118 -46 111 -59
166 -59 259 0 71 3 85 23 108 18 21 27 25 55 19 41 -8 126 -98 207 -218 106
-159 299 -346 355 -346 41 0 46 27 19 102 -12 35 -26 68 -29 73 -17 24 -99
315 -114 405 -33 199 -58 511 -44 550 14 38 38 61 93 86 114 54 224 14 293
-106 45 -79 62 -99 77 -93 37 13 -4 129 -76 216 -70 85 -191 118 -297 83 -29
-10 -61 -15 -72 -11 -19 6 -20 12 -14 83 4 42 7 82 7 87 0 70 -25 80 -54 23z
m-2 -180 c-3 -8 -6 -5 -6 6 -1 11 2 17 5 13 3 -3 4 -12 1 -19z m-10 -95 c-3
-10 -5 -2 -5 17 0 19 2 27 5 18 2 -10 2 -26 0 -35z m-46 -140 c-11 -21 -20
-35 -21 -31 0 12 33 78 38 74 2 -2 -6 -21 -17 -43z m31 -328 c6 -151 9 -169
53 -320 26 -88 49 -167 51 -175 2 -8 0 -22 -6 -30 -17 -27 -43 2 -81 91 -59
137 -80 248 -80 416 1 148 9 187 39 181 15 -3 18 -24 24 -163z m139 -522 c-12
-20 -14 -14 -5 12 4 9 9 14 11 11 3 -2 0 -13 -6 -23z"/>
</g></g>
<g fill="#ef4444"><g transform="translate(0.000000,250.000000) scale(0.100000,-0.100000)"
fill="#ef4444" stroke="none">
<path d="M1280 2113 c-58 -21 -101 -113 -65 -140 29 -20 41 -16 63 21 24 41
66 52 93 25 11 -11 19 -23 19 -28 0 -18 -43 -62 -78 -80 -48 -25 -87 -66 -106
-113 -17 -39 -21 -88 -8 -88 4 0 58 -5 121 -10 122 -11 141 -7 141 34 0 34
-19 46 -71 46 -26 0 -51 5 -55 12 -4 6 16 32 50 64 70 65 91 109 76 163 -5 20
-20 47 -32 58 -38 34 -107 51 -148 36z"/>
<path d="M971 1287 c-19 -9 -22 -17 -18 -47 2 -20 14 -57 26 -82 25 -57 26
-62 4 -145 -17 -63 -17 -65 2 -79 10 -8 31 -14 47 -14 16 0 40 -11 58 -27 28
-25 32 -35 37 -105 7 -87 19 -99 71 -68 58 35 92 108 92 196 0 49 -3 56 -49
106 -47 52 -49 57 -48 109 1 67 -23 106 -87 144 -45 27 -95 31 -135 12z m138
-121 c7 -8 11 -27 9 -43 -2 -22 -8 -28 -28 -28 -27 0 -36 20 -26 61 7 27 27
31 45 10z m-82 -108 c-3 -7 -5 -2 -5 12 0 14 2 19 5 13 2 -7 2 -19 0 -25z
m168 -104 c0 -24 -4 -29 -25 -29 -31 0 -40 33 -14 52 26 19 39 11 39 -23z"/>
</g></g>
</svg>