<?xml version="1.0" standalone="no"?>
<!DOCTYPE svg PUBLIC "-//W3C//DTD SVG 20010904//EN" "http://www.w3.org/TR/2001/REC-SVG-20010904/DTD/svg10.dtd">
<svg version="1.0" xmlns="http://www.w3.org/2000/svg" width="170pt" height="250pt" viewBox="0 0 170 250">
<g fill="#1e293b"><g transform="translate(0.000000,250.000000) scale(0.100000,-0.100000)"
fill="#1e293b" stroke="none">
<path d="M273 2194 c-40 -43 -42 -77 -3 -82 17 -2 34 6 50 23 29 31 75 34 90
6 24 -46 5 -73 -57 -80 -45 -6 -48 -8 -48 -36 0 -29 2 -30 50 -35 65 -7 75
-14 75 -55 0 -39 -20 -55 -69 -55 -22 0 -36 8 -52 30 -40 53 -79 46 -79 -15 0
-61 97 -110 176 -91 72 19 109 104 80 186 -13 36 -14 53 -6 74 20 53 13 86
-29 127 -35 35 -43 39 -91 39 -48 0 -56 -4 -87 -36z"/>
</g></g>
<g fill="#15803d"><g transform="translate(0.000000,250.000000) scale(0.100000,-0.100000)"
fill="#15803d" stroke="none">
<path d="M720 1824 c0 -5 -31 -44 -68 -85 -79 -86 -100 -119 -138 -212 -15
-38 -33 -71 -41 -74 -7 -3 -34 12 -59 33 -26 22 -69 56 -98 77 l-51 37 -9 -36
c-11 -45 5 -167 34 -265 28 -94 70 -144 164 -200 43 -25 82 -52 86 -60 4 -8
10 -54 12 -104 7 -115 27 -158 121 -256 119 -124 179 -199 173 -214 -9 -25
-40 -17 -67 18 -40 50 -123 103 -231 147 -53 22 -119 53 -145 69 -59 36 -89
45 -98 31 -16 -25 11 -67 100 -159 58 -60 95 -106 95 -119 0 -13 -13 -29 -36
-43 -20 -12 -46 -31 -58 -43 -30 -29 -136 -166 -136 -176 0 -27 188 -23 254 4
45 19 128 96 163 152 28 45 59 57 69 29 4 -9 -11 -43 -34 -78 -105 -165 -107
-183 -11 -174 40 3 84 17 126 37 59 29 70 40 115 111 28 43 59 81 69 84 38 12
302 -123 348 -178 7 -10 19 -17 25 -17 12 0 57 99 79 173 11 37 10 40 -19 67
-18 15 -68 40 -115 55 -115 38 -224 83 -355 147 -61 30 -136 63 -168 73 -105
33 -153 81 -182 183 -31 105 6 276 71 337 18 17 53 47 78 67 37 31 47 47 57
90 22 93 54 108 138 63 26 -14 63 -25 82 -25 60 0 104 -18 158 -64 69 -59 147
-89 237 -90 65 -1 70 1 73 21 5 34 -26 83 -87 140 l-56 52 47 48 c47 48 68 87
68 124 0 17 -7 19 -58 19 -80 0 -146 -35 -233 -123 l-69 -70 -57 13 c-32 8
-71 22 -88 32 -36 22 -103 23 -150 3 -37 -15 -55 -46 -55 -94 0 -37 -35 -87
-90 -129 -25 -19 -54 -50 -65 -69 -15 -26 -25 -33 -45 -31 -37 4 -37 39 -2 80
55 62 132 191 149 247 23 76 23 264 0 306 -9 17 -16 25 -17 19z m-40 -107 c0
-2 -10 -12 -22 -23 l-23 -19 19 23 c18 21 26 27 26 19z m20 -87 c23 -43 -18
-174 -79 -250 -16 -20 -23 -23 -38 -14 -45 28 -14 180 51 249 38 40 51 43 66
15z m650 -121 c0 -20 -47 -49 -67 -42 -24 9 -15 52 15 67 31 16 52 6 52 -25z
m-1063 -1 c-3 -7 -5 -2 -5 12 0 14 2 19 5 13 2 -7 2 -19 0 -25z m1043 -68 c0
-5 -5 -10 -11 -10 -5 0 -7 5 -4 10 3 6 8 10 11 10 2 0 4 -4 4 -10z m-918 -19
c41 -32 89 -135 95 -202 6 -61 3 -65 -37 -59 -63 8 -150 217 -110 265 16 19
22 19 52 -4z m758 4 c-7 -8 -20 -15 -29 -15 -11 1 -8 5 9 15 32 18 35 18 20 0z
m188 -41 c23 -16 30 -58 12 -69 -6 -4 -26 -1 -45 5 -35 12 -55 46 -40 69 9 16
47 13 73 -5z m-843 -264 c-3 -5 -12 -10 -20 -10 -8 0 -17 5 -20 10 -4 6 5 10
20 10 15 0 24 -4 20 -10z m-171 -426 c5 -14 4 -15 -9 -4 -17 14 -19 20 -6 20
5 0 12 -7 15 -16z m621 -131 c27 -14 72 -42 100 -63 45 -33 92 -55 225 -103
76 -28 110 -54 110 -82 0 -14 -6 -28 -14 -31 -8 -3 -111 42 -229 100 -119 58
-219 106 -222 106 -4 0 -26 14 -51 30 -40 29 -55 56 -37 74 11 10 62 -3 118
-31z m-325 -17 c35 -25 46 -39 48 -65 3 -32 3 -33 -30 -26 -79 18 -162 98
-131 129 13 12 67 -6 113 -38z m-102 -87 c-3 -8 -7 -3 -11 10 -4 17 -3 21 5
13 5 -5 8 -16 6 -23z m339 -1 c-3 -8 -6 -5 -6 6 -1 11 2 17 5 13 3 -3 4 -12 1
-19z m64 -60 c4 -42 -44 -115 -103 -159 -46 -33 -56 -35 -82 -16 -18 13 -17
15 2 53 31 60 114 134 152 134 17 0 31 -5 31 -12z m-307 -19 c32 -29 -89 -128
-169 -136 -44 -6 -45 -5 -45 24 0 40 58 94 127 119 37 13 69 10 87 -7z"/>
</g></g>
<g fill="#ef4444"><g transform="translate(0.000000,250.000000) scale(0.100000,-0.100000)"
fill="#ef4444" stroke="none">
<path d="M1304 2278 c4 -29 10 -54 14 -56 4 -1 4 -55 0 -120 -6 -120 -25 -195
-59 -244 -11 -14 -19 -33 -19 -42 0 -9 -4 -16 -10 -16 -5 0 -10 -5 -10 -11 0
-27 38 2 80 61 63 88 99 92 100 11 0 -41 30 -92 65 -111 39 -21 59 -4 63 55
l3 48 -80 78 c-45 42 -81 82 -81 88 0 13 33 31 58 31 29 0 54 35 59 85 8 70
-34 105 -56 45 -7 -20 -17 -30 -30 -30 -19 0 -21 6 -21 69 0 63 -2 71 -26 90
-46 36 -58 29 -50 -31z"/>
<path d="M1090 2267 c0 -27 -9 -42 -42 -73 l-43 -39 30 -3 c34 -4 55 -18 55
-38 0 -16 -50 -44 -78 -44 -10 0 -27 -6 -37 -14 -19 -14 -19 -15 -1 -35 14
-16 31 -21 66 -21 54 0 60 -4 52 -32 -6 -24 -99 -86 -142 -94 -42 -9 -37 -31
9 -44 32 -8 46 -7 82 9 24 11 46 18 50 16 3 -3 10 -28 13 -57 l8 -53 19 24
c15 18 19 39 19 93 0 96 25 135 60 93 7 -8 16 -15 20 -15 9 0 40 79 40 101 0
25 -57 79 -83 79 -57 0 -62 75 -7 87 34 6 42 15 35 36 -8 18 -77 57 -104 57
-17 0 -21 -6 -21 -33z m120 -192 c20 -25 8 -50 -25 -50 -21 0 -31 5 -33 18 -4
21 14 47 33 47 7 0 18 -7 25 -15z"/>
<path d="M962 1287 c-11 -12 -28 -39 -36 -59 -9 -20 -38 -59 -66 -86 -53 -53
-59 -74 -40 -141 8 -28 6 -41 -8 -65 -35 -59 -43 -96 -30 -138 17 -57 58 -88
116 -88 37 0 50 -5 60 -21 19 -29 74 -50 114 -42 18 3 50 21 71 40 29 26 46
33 78 33 31 0 47 6 70 29 26 27 29 36 29 96 0 37 6 78 14 93 8 15 17 44 21 64
6 34 3 41 -37 85 -26 28 -50 66 -57 91 -16 57 -39 78 -92 86 -25 4 -58 15 -74
26 -42 28 -105 27 -133 -3z m106 -49 c17 -17 15 -74 -4 -92 -36 -37 -84 -10
-84 48 0 46 57 75 88 44z m130 -44 c32 -22 30 -78 -3 -100 -24 -16 -27 -16
-45 1 -24 22 -27 77 -4 99 19 20 24 20 52 0z m-268 -18 c0 -2 -8 -10 -17 -17
-16 -13 -17 -12 -4 4 13 16 21 21 21 13z m32 -83 c25 -23 23 -68 -4 -87 -46
-32 -88 -14 -88 38 0 56 53 85 92 49z m326 -45 c30 -30 1 -98 -41 -98 -25 0
-57 28 -57 49 0 48 66 81 98 49z m-174 -20 c33 -47 6 -118 -43 -118 -51 0 -64
39 -37 105 18 42 56 48 80 13z m-164 -118 c24 -24 26 -77 4 -108 -10 -15 -25
-22 -49 -22 -44 0 -70 35 -61 82 13 64 66 88 106 48z m280 -30 c22 -22 26 -60
8 -78 -19 -19 -55 -14 -72 10 -43 61 13 119 64 68z m-138 -47 c25 -22 24 -84
-2 -108 -46 -42 -102 14 -80 81 15 46 49 57 82 27z"/>
</g></g>
</svg>