<?xml version="1.0" standalone="no"?>
<!DOCTYPE svg PUBLIC "-//W3C//DTD SVG 20010904//EN" "http://www.w3.org/TR/2001/REC-SVG-20010904/DTD/svg10.dtd">
<svg version="1.0" xmlns="http://www.w3.org/2000/svg" width="170pt" height="250pt" viewBox="0 0 170 250">
<g fill="#1e293b"><g transform="translate(0.000000,250.000000) scale(0.100000,-0.100000)"
fill="#1e293b" stroke="none">
<path d="M252 2224 c-25 -17 -28 -50 -10 -101 18 -50 -3 -61 -71 -35 -11 4
-13 -2 -8 -32 8 -49 23 -66 58 -66 46 0 37 -32 -21 -74 -73 -52 -65 -110 10
-71 41 21 58 8 44 -32 -7 -20 -16 -28 -34 -28 -16 0 -26 -7 -28 -19 -6 -27 38
-106 58 -106 22 0 50 61 50 110 0 45 15 90 30 90 5 0 10 -24 10 -54 0 -33 5
-58 12 -62 7 -5 48 -7 91 -5 72 3 79 1 75 -16 -2 -13 -14 -19 -41 -21 -20 -2
-37 -6 -37 -9 0 -20 45 -73 61 -73 29 0 66 27 89 65 11 18 34 38 50 44 35 12
38 27 9 57 -27 29 -18 59 21 73 37 12 39 42 8 74 -15 14 -23 34 -23 57 0 47
-28 60 -131 60 -87 0 -104 -8 -119 -60 -17 -58 -46 -65 -75 -18 -12 21 -16 37
-10 47 16 31 120 69 220 80 113 12 136 29 96 70 -23 23 -27 24 -66 12 -45 -13
-50 -12 -54 15 -1 9 -20 24 -41 32 -35 14 -39 14 -51 -3 -8 -10 -14 -27 -14
-37 0 -30 -28 -76 -50 -83 -29 -9 -42 2 -30 25 17 32 12 88 -9 100 -27 14 -43
13 -69 -6z m342 -250 c7 -19 -10 -44 -31 -44 -17 0 -27 24 -19 45 7 20 42 19
50 -1z m-98 -8 c8 -21 -15 -58 -34 -54 -9 2 -18 11 -20 21 -7 36 42 65 54 33z
m-36 -121 c0 -25 -32 -51 -50 -40 -14 8 -12 39 2 53 21 21 48 14 48 -13z m110
-3 c0 -35 -42 -57 -54 -27 -9 25 4 45 30 45 16 0 24 -6 24 -18z"/>
</g></g>
<g fill="#15803d"><g transform="translate(0.000000,250.000000) scale(0.100000,-0.100000)"
fill="#15803d" stroke="none">
<path d="M1154 1195 c-7 -16 -2 -51 17 -131 11 -47 10 -56 -9 -102 -25 -58
-27 -84 -11 -148 16 -61 3 -74 -45 -45 -20 13 -46 21 -58 19 -30 -4 -67 -79
-75 -150 -7 -73 19 -106 92 -116 45 -6 50 -10 50 -32 0 -54 -106 -47 -187 13
-27 20 -30 20 -62 4 -47 -22 -190 -39 -251 -29 -49 7 -50 8 -57 50 -8 50 -15
62 -33 62 -8 0 -17 -15 -21 -36 -4 -23 -14 -38 -28 -44 -31 -11 -39 -2 -32 39
17 95 17 106 -3 138 -22 35 -68 51 -100 34 -11 -6 -33 -34 -48 -61 -18 -32
-38 -53 -56 -60 -24 -8 -28 -14 -25 -42 3 -28 8 -33 37 -39 18 -4 40 -14 49
-23 14 -14 13 -19 -13 -56 -19 -27 -40 -44 -66 -51 -58 -18 -60 -62 -3 -78 21
-5 34 -18 47 -47 42 -94 55 -104 112 -90 48 12 74 147 40 212 -16 32 -19 60
-7 68 10 6 143 -31 156 -44 6 -6 5 -28 -4 -64 -7 -29 -10 -66 -6 -81 11 -41
59 -85 95 -85 54 0 82 45 90 145 5 64 8 70 29 73 16 3 37 -9 66 -36 38 -35 56
-43 142 -62 116 -27 139 -41 179 -109 28 -49 32 -52 65 -49 46 4 43 22 -20
113 -43 63 -52 71 -86 75 -30 4 -39 9 -39 24 0 25 52 40 97 29 28 -7 38 -19
66 -73 58 -116 116 -159 152 -115 11 13 8 22 -22 53 -20 20 -44 55 -54 77 -38
83 -74 133 -106 144 l-31 11 7 66 c10 102 36 131 69 81 9 -13 29 -30 46 -37
27 -11 34 -10 51 5 32 29 43 80 38 184 -6 136 -45 218 -120 255 -19 10 -24 23
-31 80 -4 38 -12 75 -18 83 -15 18 -58 17 -65 -2z m159 -325 c18 -52 25 -149
12 -169 -3 -6 -17 -11 -31 -11 -21 0 -30 10 -54 63 -16 34 -32 81 -36 104 -6
36 -3 45 20 68 25 25 29 26 49 12 12 -8 30 -38 40 -67z m-185 -214 c5 -37 -14
-56 -54 -56 -32 0 -34 2 -34 35 0 22 8 43 21 56 18 18 23 19 42 6 12 -8 23
-26 25 -41z m-740 -46 c4 -27 -21 -52 -44 -43 -17 6 -18 27 -3 54 14 27 43 20
47 -11z m567 -187 c59 -28 40 -70 -25 -56 -34 6 -61 38 -53 59 7 19 35 18 78
-3z m-588 -74 c24 -50 -11 -96 -48 -63 -21 19 -24 46 -8 75 14 26 41 20 56
-12z m307 -5 c18 -48 -9 -99 -39 -74 -27 23 -16 90 15 90 10 0 21 -7 24 -16z"/>
</g></g>
<g fill="#ef4444"><g transform="translate(0.000000,250.000000) scale(0.100000,-0.100000)"
fill="#ef4444" stroke="none">
<path d="M1219 2111 c-55 -51 -62 -62 -53 -78 9 -13 22 -17 48 -16 31 2 37 -1
42 -23 4 -14 3 -60 0 -102 -9 -97 -4 -112 39 -112 l33 0 7 113 c3 61 5 148 3
192 -3 77 -4 80 -29 83 -19 2 -40 -11 -90 -57z"/>
<path d="M573 1373 c-13 -2 -33 -18 -45 -35 -32 -42 -69 -79 -101 -103 -20
-14 -28 -28 -27 -50 0 -16 1 -81 3 -143 l2 -112 55 -54 c30 -30 63 -63 73 -75
11 -14 29 -21 50 -21 25 0 41 -8 61 -31 27 -30 29 -30 94 -23 81 8 97 16 117
54 9 17 32 38 53 48 35 16 37 20 39 67 1 28 9 64 17 80 20 38 20 72 1 109 -8
15 -15 46 -15 67 0 62 -43 139 -78 139 -8 0 -32 16 -53 35 -40 36 -68 42 -112
26 -18 -7 -32 -5 -56 10 -32 19 -37 20 -78 12z m84 -85 c22 -20 25 -21 56 -7
41 19 59 15 79 -18 8 -14 31 -31 49 -37 33 -11 34 -12 39 -77 3 -46 11 -73 24
-88 12 -13 16 -28 13 -43 -4 -13 -12 -47 -19 -76 -9 -41 -17 -54 -35 -58 -13
-4 -33 -23 -45 -45 -12 -21 -29 -39 -37 -40 -18 -1 -33 -4 -73 -14 -22 -6 -30
-2 -49 24 -19 25 -30 31 -61 31 -35 0 -41 4 -53 33 -7 17 -27 45 -44 61 -38
36 -47 75 -27 115 14 26 14 37 4 77 -12 45 -12 46 17 71 16 14 42 45 57 69 32
51 67 58 105 22z"/>
<path d="M626 1121 c-40 -44 -36 -136 6 -166 36 -25 93 -20 117 11 51 65 6
174 -71 174 -22 0 -42 -7 -52 -19z m11 -73 c-3 -7 -5 -2 -5 12 0 14 2 19 5 13
2 -7 2 -19 0 -25z"/>
</g></g>
</svg>