<?xml version="1.0" standalone="no"?>
<!DOCTYPE svg PUBLIC "-//W3C//DTD SVG 20010904//EN" "http://www.w3.org/TR/2001/REC-SVG-20010904/DTD/svg10.dtd">
<svg version="1.0" xmlns="http://www.w3.org/2000/svg" width="170pt" height="250pt" viewBox="0 0 170 250">
<g fill="#1e293b"><g transform="translate(0.000000,250.000000) scale(0.100000,-0.100000)"
fill="#1e293b" stroke="none">
<path d="M547 2253 c-4 -3 -7 -20 -7 -38 0 -46 -71 -184 -119 -230 -42 -40
-52 -71 -26 -81 25 -10 74 16 106 58 22 27 38 38 53 36 44 -6 30 -153 -25
-257 -21 -41 -26 -58 -17 -68 29 -35 82 5 124 96 21 44 28 76 32 149 5 90 5
92 31 98 72 16 89 44 48 82 -26 24 -48 27 -79 11 -16 -9 -24 -8 -36 5 -15 14
-14 18 12 45 23 24 26 32 17 50 -19 35 -94 64 -114 44z"/>
<path d="M314 2215 c-18 -43 -18 -57 0 -100 19 -46 54 -54 101 -25 44 27 75
70 75 104 0 30 -29 36 -50 11 -20 -24 -46 -18 -60 15 -17 42 -47 40 -66 -5z"/>
<path d="M234 2055 c-21 -32 -14 -107 11 -135 28 -31 60 -25 95 18 30 36 48
78 37 88 -3 3 -15 0 -28 -6 -20 -11 -26 -8 -56 24 -19 20 -36 36 -38 36 -3 0
-12 -11 -21 -25z"/>
</g></g>
<g fill="#15803d"><g transform="translate(0.000000,250.000000) scale(0.100000,-0.100000)"
fill="#15803d" stroke="none">
<path d="M851 1801 c-11 -7 -15 -46 -18 -178 -2 -92 -9 -187 -15 -210 -8 -32
-7 -50 1 -71 14 -34 10 -247 -6 -302 -8 -27 -7 -39 4 -48 18 -18 17 -208 -2
-287 -10 -42 -12 -88 -8 -156 6 -96 6 -97 -20 -114 -46 -30 -57 -15 -57 72 0
43 5 95 11 116 8 31 7 47 -5 78 -12 29 -13 45 -6 59 19 36 12 100 -16 133 -20
24 -24 37 -20 61 22 110 21 123 -17 161 -42 42 -88 47 -123 14 -12 -11 -42
-25 -66 -30 -51 -12 -118 -71 -111 -99 3 -10 -3 -24 -14 -31 -10 -8 -19 -23
-20 -35 -4 -35 -22 -75 -33 -69 -9 5 -60 -83 -60 -105 0 -15 42 -12 66 4 11 8
36 17 56 21 31 6 37 4 42 -13 9 -27 -2 -70 -26 -105 -39 -55 5 -92 52 -42 33
35 56 32 64 -6 10 -54 7 -114 -9 -135 -19 -25 -19 -73 0 -80 21 -8 39 9 73 69
75 131 119 127 105 -10 -6 -54 -19 -66 -43 -38 -17 21 -25 19 -37 -8 -22 -47
-24 -149 -6 -202 15 -42 22 -50 43 -50 27 0 27 -1 14 87 -8 57 11 73 45 39 12
-12 26 -21 32 -21 8 0 10 -15 6 -45 -7 -51 -8 -50 66 -59 45 -5 48 -4 59 22 6
15 14 95 17 177 7 155 12 178 36 169 12 -5 14 -31 14 -133 -1 -101 2 -134 15
-160 10 -18 23 -31 32 -29 13 3 16 49 20 313 6 398 13 504 36 519 13 8 23 8
35 0 25 -16 30 -174 9 -264 -9 -36 -20 -144 -26 -241 -5 -97 -12 -183 -16
-192 -8 -23 14 -94 32 -101 25 -10 34 2 34 49 0 30 5 45 16 49 23 9 26 4 33
-61 5 -46 10 -58 25 -61 35 -7 46 25 46 127 l0 96 32 27 c28 22 31 30 22 45
-16 26 -47 27 -85 4 -63 -39 -69 -33 -69 72 0 50 8 124 17 162 9 39 19 119 22
180 5 92 9 110 23 113 22 4 35 -43 44 -165 7 -105 22 -130 55 -97 13 13 22 42
28 90 9 71 21 104 49 136 20 24 41 11 97 -63 105 -135 118 -134 110 9 -10 175
-23 249 -52 309 -32 65 -57 84 -117 88 -24 2 -53 8 -64 14 -12 6 -34 11 -51
11 -16 0 -42 8 -59 17 -29 17 -69 12 -57 -7 3 -5 -5 -14 -18 -19 -14 -6 -42
-30 -63 -55 -21 -25 -44 -46 -50 -46 -20 0 -25 29 -10 63 9 24 12 73 8 194 -3
116 -1 176 8 209 12 43 12 48 -5 60 -26 19 -32 18 -52 -13 -15 -23 -18 -51
-18 -198 0 -157 -1 -170 -19 -173 -37 -7 -41 12 -41 206 0 158 -2 187 -15 189
-8 2 -21 -1 -29 -6z m99 -546 c3 -44 9 -86 14 -93 4 -7 5 -33 1 -57 -4 -32
-12 -46 -26 -50 -40 -13 -49 10 -49 120 0 136 6 167 34 163 19 -3 22 -11 26
-83z m245 55 c7 -22 -34 -111 -67 -147 -25 -26 -56 -30 -64 -8 -15 38 64 175
101 175 15 0 26 -8 30 -20z m116 -47 c12 -31 5 -133 -12 -180 -14 -41 -45 -44
-59 -7 -12 29 -4 145 12 187 14 36 45 36 59 0z m118 3 c14 -16 51 -146 51
-176 0 -57 -68 -19 -89 49 -15 51 -14 128 2 134 20 9 24 8 36 -7z m-279 -110
c0 -2 -8 -10 -17 -17 -16 -13 -17 -12 -4 4 13 16 21 21 21 13z m-520 -101 c34
-42 -56 -235 -110 -235 -26 0 -30 22 -15 77 38 141 87 203 125 158z m-200 2
c0 -2 -12 -14 -27 -28 l-28 -24 24 28 c23 25 31 32 31 24z m1020 -31 c0 -3 -4
-8 -10 -11 -5 -3 -10 -1 -10 4 0 6 5 11 10 11 6 0 10 -2 10 -4z m-505 -69 c4
-13 1 -61 -4 -107 -6 -47 -11 -118 -11 -158 l0 -73 -27 3 c-25 3 -28 7 -26 38
1 19 5 89 8 155 3 66 8 130 11 143 6 30 42 30 49 -1z m-281 -113 c27 -10 19
-74 -16 -145 -27 -53 -38 -65 -60 -67 -28 -3 -28 -3 -28 61 0 58 3 68 36 110
38 49 42 51 68 41z m153 -216 c-3 -8 -6 -5 -6 6 -1 11 2 17 5 13 3 -3 4 -12 1
-19z m240 -175 c-2 -16 -4 -5 -4 22 0 28 2 40 4 28 2 -13 2 -35 0 -50z m-239
-120 c3 -19 -1 -23 -22 -23 -21 0 -26 5 -26 26 0 21 4 25 23 22 14 -2 23 -11
25 -25z m229 -15 c-3 -7 -5 -2 -5 12 0 14 2 19 5 13 2 -7 2 -19 0 -25z"/>
<path d="M311 894 c0 -11 3 -14 6 -6 3 7 2 16 -1 19 -3 4 -6 -2 -5 -13z"/>
</g></g>
<g fill="#ef4444"><g transform="translate(0.000000,250.000000) scale(0.100000,-0.100000)"
fill="#ef4444" stroke="none">
<path d="M1396 2207 c-9 -19 -16 -40 -16 -46 0 -7 -16 -27 -35 -46 -19 -19
-31 -35 -28 -35 4 0 -5 -13 -20 -28 -15 -16 -24 -31 -20 -35 3 -4 2 -7 -3 -7
-5 0 -10 -12 -11 -27 0 -15 -6 -29 -12 -31 -9 -3 -17 -41 -8 -42 1 -1 31 -3
67 -6 86 -7 86 -7 93 -43 4 -18 13 -31 22 -31 8 0 18 0 23 0 4 -1 9 14 12 32
4 27 11 35 38 43 23 6 32 15 32 30 0 15 -9 24 -32 30 l-33 10 -5 130 c-5 123
-6 130 -26 133 -16 2 -25 -6 -38 -31z m2 -163 c2 -16 8 -31 12 -34 5 -3 1 -16
-9 -29 -15 -19 -23 -22 -49 -16 -39 8 -41 27 -6 78 29 43 47 44 52 1z"/>
</g></g>
</svg>