<!--?xml version="1.0" standalone="no"?-->

<svg version="1.0" xmlns="http://www.w3.org/2000/svg" width="170pt" height="250pt" viewBox="0 0 170 250">
<g fill="#1e293b"><g transform="translate(0.000000,250.000000) scale(0.100000,-0.100000)" fill="#1e293b" stroke="none">
<path d="M275 2192 c-16 -10 -105 -123 -105 -130 1 -22 31 -43 56 -40 l29 3 0
-105 0 -105 30 0 30 0 0 190 c0 161 -2 190 -15 192 -8 2 -20 0 -25 -5z"></path>
<path d="M970 2170 c0 -5 7 -7 15 -4 8 4 15 8 15 10 0 2 -7 4 -15 4 -8 0 -15
-4 -15 -10z" fill="#ef4444"></path>
</g></g>
<g fill="#15803d"><g transform="translate(0.000000,250.000000) scale(0.100000,-0.100000)" fill="#15803d" stroke="none">
<path d="M255 1003 c-4 -10 -11 -65 -14 -123 l-6 -105 -37 -3 c-45 -4 -50 -24
-17 -66 49 -63 183 -114 262 -102 66 11 86 -29 28 -58 -21 -11 -45 -12 -121
-4 -80 9 -101 8 -133 -5 -50 -21 -56 -42 -23 -76 14 -15 26 -32 26 -38 0 -6
-16 -30 -36 -54 -41 -50 -74 -110 -74 -137 0 -46 79 -64 159 -38 70 22 79 21
95 -19 18 -42 28 -43 55 -9 35 44 63 150 65 241 1 72 4 85 26 108 36 39 56 48
80 35 26 -14 26 -52 -1 -76 -46 -42 -62 -117 -39 -179 13 -35 129 -155 149
-155 10 0 25 23 42 63 22 54 29 62 55 65 42 5 50 17 30 46 -9 14 -16 31 -16
38 0 7 -12 30 -26 51 -26 39 -29 67 -6 75 7 2 43 -25 80 -60 37 -35 85 -78
107 -95 53 -41 252 -146 266 -141 11 4 28 46 74 187 8 24 12 47 9 52 -3 5 -22
9 -42 9 -68 1 -162 59 -149 93 3 9 35 19 88 27 157 23 202 69 130 134 -32 29
-26 58 24 122 64 83 60 89 -55 88 -76 0 -103 -5 -136 -22 -52 -26 -107 -89
-127 -145 -51 -140 -49 -137 -73 -137 -14 0 -55 31 -119 91 l-96 90 -57 -31
c-83 -47 -93 -58 -90 -99 2 -28 -1 -36 -15 -39 -27 -5 -77 46 -77 78 0 49 -50
128 -119 191 -37 33 -80 80 -96 105 -31 48 -39 53 -50 27z m142 -192 c47 -39
66 -75 61 -117 -3 -25 -8 -29 -37 -32 -38 -4 -113 21 -131 43 -9 11 -9 28 1
72 20 94 30 97 106 34z m865 -31 c-1 -19 -3 -61 -5 -94 -2 -51 -6 -61 -29 -79
-17 -12 -48 -22 -82 -25 -68 -5 -80 10 -62 80 16 58 56 112 104 138 55 29 78
23 74 -20z m-441 -135 c64 -58 277 -209 346 -244 50 -25 57 -34 49 -66 -13
-51 -37 -49 -155 11 -114 58 -263 171 -334 254 -42 49 -44 56 -20 82 26 29 52
21 114 -37z m-415 -190 c40 -26 35 -113 -9 -152 -18 -17 -20 -17 -38 5 l-18
23 -34 -25 c-42 -32 -87 -35 -87 -6 0 27 22 70 49 94 12 11 21 31 21 46 0 15
3 30 8 34 10 11 83 -2 108 -19z m312 -39 l37 -34 -27 -56 c-21 -41 -33 -56
-49 -56 -48 0 -100 104 -71 146 9 14 44 33 60 34 7 0 29 -15 50 -34z"></path>
</g></g>
<g fill="#ef4444"><g transform="translate(0.000000,250.000000) scale(0.100000,-0.100000)" fill="#ef4444" stroke="none">
<path d="M1067 2283 c-16 -16 -15 -19 15 -50 41 -43 31 -68 -28 -68 -41 0 -70
-22 -53 -40 5 -5 29 -14 52 -20 l42 -10 3 -104 c2 -61 -1 -108 -7 -114 -17
-17 -178 -22 -196 -7 -35 29 -25 -18 11 -55 14 -13 28 -15 74 -10 66 8 78 -1
58 -42 -10 -21 -22 -29 -46 -31 -37 -4 -36 -3 -20 -37 18 -40 51 -42 137 -6
42 17 83 31 92 31 18 0 29 -20 29 -49 0 -9 6 -25 13 -35 11 -15 17 -16 35 -7
37 20 36 46 -8 118 -56 93 -52 107 30 113 61 5 65 6 65 30 0 19 -10 29 -45 47
-57 28 -60 28 -60 -1 0 -33 -22 -48 -67 -44 -35 3 -38 6 -41 36 -4 39 14 64
59 82 18 8 29 20 29 32 0 23 -27 35 -43 19 -6 -6 -20 -11 -30 -11 -16 0 -18 5
-13 28 9 35 32 52 71 52 20 0 39 8 51 21 19 21 18 21 -5 40 -13 10 -38 19 -57
19 -30 0 -34 3 -34 25 0 18 -10 31 -32 45 -40 24 -59 25 -81 3z m122 -447 c21
-25 9 -69 -22 -84 -39 -19 -67 -7 -67 28 0 51 61 89 89 56z"></path>
<path d="M948 2043 c-59 -9 -21 -43 47 -43 59 0 65 3 58 31 -5 19 -34 23 -105
12z"></path>
<path d="M932 1933 c2 -14 15 -19 55 -21 44 -3 53 0 63 17 10 20 8 21 -55 21
-58 0 -66 -2 -63 -17z"></path>
<path d="M718 1638 c-8 -7 -27 -30 -43 -50 -15 -21 -32 -38 -39 -38 -6 0 -31
14 -55 30 -40 27 -47 29 -65 16 -22 -14 -86 -181 -86 -223 0 -16 -13 -31 -40
-48 -41 -26 -44 -34 -40 -105 3 -70 61 -157 139 -210 18 -13 23 -28 28 -98 8
-115 13 -120 104 -104 41 7 98 20 126 29 51 16 54 16 75 -4 13 -11 42 -30 65
-42 23 -12 47 -30 52 -40 24 -43 41 -34 76 42 27 59 35 94 45 184 0 2 23 14
50 28 63 32 90 73 90 138 0 52 -16 91 -49 121 -28 26 -27 47 10 127 17 38 29
74 26 82 -6 15 -51 22 -203 33 l-82 6 -21 38 c-45 81 -121 121 -163 88z m114
-108 c21 -30 38 -62 38 -70 0 -22 -61 -80 -84 -80 -16 0 -29 17 -54 71 -37 78
-35 101 6 124 40 22 53 15 94 -45z m-242 -17 c41 -27 91 -76 106 -105 20 -38
17 -71 -7 -102 -24 -31 -49 -33 -74 -6 -10 11 -37 25 -59 32 -63 18 -69 25
-62 81 9 61 35 117 56 117 8 0 27 -7 40 -17z m500 -66 c19 -10 25 -20 24 -44
-2 -45 -53 -150 -86 -178 -32 -27 -88 -34 -88 -11 0 8 -13 40 -30 71 -38 71
-38 103 -2 137 37 36 135 49 182 25z m-231 -181 c42 -70 54 -114 40 -147 -14
-36 -48 -49 -124 -49 -53 0 -68 4 -85 22 -40 43 -12 136 60 202 49 44 68 39
109 -28z m-277 -7 c66 -34 71 -80 11 -100 -22 -7 -42 -24 -55 -46 -12 -20 -27
-33 -36 -31 -9 2 -35 27 -59 57 -37 44 -44 59 -41 89 2 27 10 40 28 50 31 16
100 7 152 -19z m550 -56 c22 -20 24 -89 3 -119 -35 -51 -137 -71 -170 -34 -15
17 -17 27 -9 58 7 30 14 38 35 40 15 2 44 18 65 37 45 39 51 41 76 18z m-427
-173 c13 0 35 -4 49 -10 22 -8 26 -16 26 -49 0 -56 -47 -96 -125 -106 -76 -9
-83 -1 -91 107 -7 85 -6 87 21 114 l27 27 35 -41 c23 -28 43 -42 58 -42z m273
-47 c33 -37 39 -64 23 -106 -14 -36 -39 -57 -69 -57 -27 0 -91 33 -104 54 -11
17 -9 95 3 117 27 50 99 47 147 -8z"></path>
</g></g>
</svg>