<?xml version="1.0" standalone="no"?>
<!DOCTYPE svg PUBLIC "-//W3C//DTD SVG 20010904//EN" "http://www.w3.org/TR/2001/REC-SVG-20010904/DTD/svg10.dtd">
<svg version="1.0" xmlns="http://www.w3.org/2000/svg" width="170pt" height="250pt" viewBox="0 0 170 250">
<g fill="#1e293b"><g transform="translate(0.000000,250.000000) scale(0.100000,-0.100000)"
fill="#1e293b" stroke="none">
<path d="M404 2212 c-9 -6 -71 -102 -166 -259 -11 -18 -18 -45 -16 -60 3 -28
4 -28 83 -33 l80 -5 3 -32 c3 -30 6 -33 37 -33 32 0 34 2 37 37 2 30 8 38 28
43 37 9 38 39 1 53 -29 11 -31 14 -32 67 -3 209 -13 250 -55 222z m-12 -194
c2 -7 2 -29 -2 -48 -4 -31 -9 -35 -37 -38 -27 -3 -33 0 -33 17 0 20 45 81 60
81 4 0 10 -6 12 -12z"/>
</g></g>
<g fill="#15803d"><g transform="translate(0.000000,250.000000) scale(0.100000,-0.100000)"
fill="#15803d" stroke="none">
<path d="M206 1495 c4 -8 11 -12 17 -8 5 3 7 1 4 -4 -4 -6 4 -35 17 -65 13
-29 33 -99 44 -154 29 -147 117 -306 232 -419 27 -27 50 -55 50 -62 0 -8 -12
-18 -28 -24 -30 -12 -193 -62 -258 -78 -23 -6 -53 -21 -68 -32 -25 -20 -26
-23 -11 -39 26 -29 125 -68 203 -81 55 -9 88 -9 143 0 70 11 89 9 89 -11 0 -5
-29 -58 -64 -117 -69 -115 -116 -207 -116 -228 0 -24 69 -14 131 18 90 48 224
184 307 312 49 77 78 94 130 78 56 -16 142 -73 142 -93 0 -30 -22 -30 -93 -3
-96 36 -97 36 -97 -35 0 -69 19 -122 58 -163 46 -49 89 -64 192 -69 52 -3 120
-13 151 -23 95 -30 111 -10 84 100 -18 69 -18 77 -2 149 21 94 22 188 3 225
-26 49 -98 106 -151 120 -72 18 -80 24 -83 65 -9 106 44 224 158 351 82 92
134 180 146 249 8 46 0 46 -69 -4 -23 -17 -82 -58 -132 -90 -144 -95 -218
-175 -250 -270 -21 -62 -41 -86 -61 -69 -8 6 -14 22 -14 34 0 34 -10 55 -26
55 -16 0 -18 -6 -18 -80 -1 -84 -21 -78 -104 32 -99 131 -169 207 -221 240
-81 51 -88 36 -40 -97 32 -92 32 -115 0 -115 -15 0 -32 25 -72 107 -45 91 -66
121 -133 189 -76 76 -145 124 -180 124 -10 0 -13 -6 -10 -15z m181 -167 c6 -7
36 -62 68 -123 69 -133 113 -192 200 -269 36 -32 73 -68 81 -81 23 -35 9 -55
-40 -55 -49 0 -127 48 -173 107 -48 60 -152 279 -183 384 -12 40 24 67 47 37z
m953 -59 c0 -12 -18 -42 -41 -66 -45 -49 -101 -161 -120 -239 -6 -27 -11 -105
-11 -174 1 -152 -1 -162 -36 -158 -40 5 -65 84 -66 208 0 80 4 106 27 165 36
89 78 156 146 228 58 62 101 77 101 36z m-516 -216 c114 -138 126 -156 126
-191 0 -43 -21 -57 -57 -38 -57 29 -203 252 -203 309 0 20 22 37 36 29 7 -4
51 -53 98 -109z m186 -338 c13 -12 20 -28 18 -44 l-3 -26 -160 4 c-148 3 -169
1 -274 -24 -120 -29 -146 -27 -146 11 0 20 51 40 210 85 98 27 322 24 355 -6z
m350 -5 c39 -28 70 -89 70 -138 0 -21 -11 -72 -26 -113 -23 -68 -24 -79 -14
-133 12 -62 3 -83 -30 -70 -8 4 -61 9 -117 13 -80 6 -107 11 -125 27 -81 70
-109 144 -55 144 11 0 47 -5 79 -12 55 -11 59 -11 83 12 29 27 32 62 10 134
-21 69 -20 142 3 156 25 15 86 5 122 -20z m-1085 -80 c-3 -5 -14 -10 -23 -10
-15 0 -15 2 -2 10 20 13 33 13 25 0z m578 -50 c6 -24 -27 -76 -110 -168 -64
-72 -94 -90 -114 -66 -14 17 69 186 112 227 37 34 104 39 112 7z m-246 4 c-3
-3 -12 -4 -19 -1 -8 3 -5 6 6 6 11 1 17 -2 13 -5z"/>
</g></g>
<g fill="#ef4444"><g transform="translate(0.000000,250.000000) scale(0.100000,-0.100000)"
fill="#ef4444" stroke="none">
<path d="M1096 2298 c-17 -63 -53 -158 -68 -180 -19 -28 -23 -54 -9 -62 5 -3
14 1 22 10 33 40 73 39 83 -2 11 -41 -22 -89 -112 -162 -48 -41 -67 -72 -42
-72 24 0 89 41 148 94 81 72 105 74 161 10 22 -25 39 -50 38 -54 -3 -13 74
-62 107 -66 20 -3 41 2 60 15 l29 19 -99 50 c-141 69 -184 98 -184 123 0 12
20 44 45 71 35 39 45 58 45 85 0 61 -56 97 -115 74 -24 -10 -45 -3 -45 14 0
15 -32 45 -49 45 -6 0 -13 -6 -15 -12z m128 -104 c22 -22 20 -38 -10 -73 -35
-42 -70 -42 -89 2 -21 50 -1 72 77 86 4 0 14 -6 22 -15z"/>
<path d="M1188 1861 c2 -16 -1 -32 -7 -35 -16 -10 -13 -48 5 -74 14 -21 14
-24 -9 -44 -23 -21 -24 -23 -9 -46 20 -31 57 -45 83 -32 28 15 25 65 -6 102
-22 26 -25 36 -19 79 4 33 3 54 -6 64 -21 25 -37 18 -32 -14z"/>
<path d="M884 1687 c-19 -17 -29 -37 -33 -68 -6 -42 -7 -44 -43 -47 -49 -4
-88 -43 -88 -89 0 -47 23 -88 60 -103 31 -13 34 -18 30 -58 -3 -39 20 -80 54
-96 36 -17 69 -12 105 16 20 15 34 17 82 12 57 -6 58 -6 79 27 17 27 20 44 16
85 -5 42 -2 56 14 77 47 59 11 143 -66 154 -34 4 -44 11 -59 40 -40 73 -101
93 -151 50z m100 -50 c14 -10 17 -21 11 -45 -12 -57 -77 -70 -104 -21 -13 24
-13 29 2 53 19 29 61 35 91 13z m138 -94 c35 -31 17 -86 -33 -98 -52 -13 -80
54 -39 95 24 24 47 25 72 3z m-253 -45 c13 -23 13 -30 1 -52 -7 -15 -24 -29
-37 -32 -54 -14 -87 68 -40 101 30 21 58 15 76 -17z m118 -24 c12 -19 11 -24
-5 -44 -27 -33 -72 -22 -72 18 0 53 48 69 77 26z m101 -86 c20 -20 15 -76 -7
-88 -52 -27 -98 2 -85 55 10 40 65 60 92 33z m-146 -35 c38 -34 12 -93 -41
-93 -51 0 -69 52 -31 90 24 24 47 25 72 3z"/>
</g></g>
</svg>