<?xml version="1.0" standalone="no"?>
<!DOCTYPE svg PUBLIC "-//W3C//DTD SVG 20010904//EN" "http://www.w3.org/TR/2001/REC-SVG-20010904/DTD/svg10.dtd">
<svg version="1.0" xmlns="http://www.w3.org/2000/svg" width="170pt" height="250pt" viewBox="0 0 170 250">
<g fill="#1e293b"><g transform="translate(0.000000,250.000000) scale(0.100000,-0.100000)"
fill="#1e293b" stroke="none">
<path d="M507 2283 c-2 -4 -7 -24 -11 -43 -9 -47 -66 -114 -86 -100 -12 8 -13
13 -2 30 13 21 16 53 6 63 -3 3 -17 1 -31 -6 -18 -8 -29 -8 -44 1 -26 16 -32
15 -47 -8 -11 -17 -10 -26 4 -49 24 -41 13 -61 -35 -61 -22 0 -42 -4 -45 -9
-12 -19 30 -52 72 -58 32 -4 42 -10 42 -24 0 -15 -8 -19 -37 -20 -62 -2 -98
-13 -101 -31 -4 -23 47 -48 97 -48 41 0 61 -14 44 -31 -6 -6 -36 -13 -67 -16
-59 -6 -67 -15 -39 -46 17 -18 16 -21 -5 -57 -39 -69 -22 -130 33 -116 31 8
44 33 52 96 4 39 10 50 23 50 15 0 18 -13 22 -81 6 -100 24 -126 57 -82 50 67
49 67 101 11 33 -36 42 -41 57 -32 45 28 93 179 93 294 0 56 -4 70 -22 88 -38
35 -77 44 -150 37 -55 -5 -68 -3 -68 8 0 19 43 37 89 37 61 0 101 11 112 32 9
16 5 21 -25 33 -40 17 -42 23 -24 72 10 27 10 36 -2 47 -19 18 -57 29 -63 19z
m45 -330 c14 -12 18 -31 18 -82 0 -106 -38 -155 -85 -111 -32 30 -32 65 0 86
35 23 32 52 -5 65 -28 10 -40 36 -23 52 13 13 77 7 95 -10z"/>
</g></g>
<g fill="#15803d"><g transform="translate(0.000000,250.000000) scale(0.100000,-0.100000)"
fill="#15803d" stroke="none">
<path d="M311 1049 c-49 -73 -71 -142 -71 -220 0 -46 7 -70 35 -123 19 -37 35
-73 35 -82 0 -9 -23 -43 -50 -76 -51 -61 -67 -96 -56 -123 14 -38 73 2 117 79
38 68 71 99 101 94 18 -2 24 -10 26 -34 3 -26 -3 -35 -38 -59 -72 -50 -89 -93
-45 -113 20 -9 25 -19 25 -47 0 -20 -4 -45 -10 -55 -5 -10 -13 -57 -16 -104
-7 -86 -7 -86 17 -86 35 0 72 22 143 85 35 30 68 55 74 55 6 0 18 -9 26 -21 8
-12 19 -18 26 -14 22 14 50 93 60 170 11 88 14 95 41 95 22 0 109 -42 151 -73
52 -39 27 -83 -31 -53 -47 25 -61 21 -61 -16 0 -57 19 -108 40 -108 10 0 22 5
26 11 3 6 27 19 51 30 25 11 59 31 75 44 66 55 153 19 252 -104 55 -68 75 -80
93 -55 26 35 13 64 -59 142 -27 29 -48 58 -45 65 2 7 38 16 88 22 93 11 145
35 169 77 13 24 13 29 -4 47 -17 19 -17 21 18 78 19 32 41 81 47 109 12 52 7
90 -10 79 -5 -3 -58 -10 -118 -16 -72 -6 -122 -17 -152 -31 -75 -36 -140 -152
-141 -250 0 -39 -4 -50 -25 -64 -30 -19 -17 -23 -290 85 -279 111 -306 123
-334 147 l-26 22 18 48 c34 95 19 180 -46 265 -22 29 -50 72 -63 96 l-22 43
-41 -61z m72 -107 c28 -31 47 -89 47 -144 0 -66 -17 -102 -51 -106 -20 -2 -29
5 -49 40 -56 101 -11 281 53 210z m-46 -319 c-3 -10 -5 -2 -5 17 0 19 2 27 5
18 2 -10 2 -26 0 -35z m1082 36 c41 -14 41 -44 -1 -79 -30 -25 -31 -29 -20
-54 26 -57 12 -70 -88 -81 -93 -9 -108 3 -92 77 18 77 87 142 158 147 6 1 25
-4 43 -10z m-929 -98 c0 -32 -6 -24 -14 19 -4 25 -3 31 4 20 5 -8 10 -26 10
-39z m179 -55 c-3 -3 -11 5 -18 17 -13 21 -12 21 5 5 10 -10 16 -20 13 -22z
m-31 -79 c3 -92 -6 -111 -50 -101 -26 5 -34 1 -65 -36 -62 -72 -109 -35 -62
49 21 39 21 49 -3 84 -29 39 46 89 127 85 l50 -3 3 -78z m529 26 c-3 -10 -5
-4 -5 12 0 17 2 24 5 18 2 -7 2 -21 0 -30z m-29 -63 c-7 -11 -20 -20 -28 -20
-10 0 -7 7 10 20 31 25 33 25 18 0z m-741 -202 c-2 -13 -4 -5 -4 17 -1 22 1
32 4 23 2 -10 2 -28 0 -40z"/>
</g></g>
<g fill="#ef4444"><g transform="translate(0.000000,250.000000) scale(0.100000,-0.100000)"
fill="#ef4444" stroke="none">
<path d="M1298 2195 c-62 -42 -71 -77 -24 -95 17 -6 27 -1 52 26 38 40 44 41
81 10 24 -21 26 -27 18 -52 -9 -26 -16 -30 -60 -34 -48 -5 -50 -6 -50 -35 0
-29 2 -30 50 -33 61 -4 75 -15 75 -58 0 -41 -22 -64 -63 -64 -24 0 -40 10 -68
40 -43 47 -56 49 -70 13 -13 -36 5 -80 45 -104 38 -23 125 -25 166 -4 56 29
78 118 44 171 -14 21 -15 31 -5 63 16 54 14 81 -9 119 -38 62 -121 79 -182 37z"/>
<path d="M849 1425 c-19 -14 -40 -33 -47 -43 -10 -13 -26 -16 -74 -14 -75 3
-98 -10 -128 -73 -19 -40 -22 -56 -16 -111 6 -55 3 -69 -18 -111 -34 -66 -40
-96 -27 -136 15 -46 48 -75 96 -85 36 -7 43 -14 71 -67 16 -33 41 -66 55 -72
39 -20 98 -15 144 11 l41 24 43 -29 c76 -51 159 -30 203 51 16 29 19 47 13
113 -5 77 -5 79 26 119 25 31 34 53 37 93 7 83 -27 131 -114 164 -42 16 -52
26 -72 67 -13 27 -34 60 -45 72 -53 58 -130 69 -188 27z m140 -81 c45 -57 15
-114 -60 -114 -51 0 -89 32 -89 75 0 43 29 65 86 65 34 0 47 -5 63 -26z m-238
-63 c19 -15 24 -29 24 -66 0 -58 -28 -88 -73 -76 -74 20 -58 153 19 160 4 1
17 -8 30 -18z m214 -71 c-3 -5 -10 -10 -16 -10 -5 0 -9 5 -9 10 0 6 7 10 16
10 8 0 12 -4 9 -10z m210 -50 c23 -45 19 -97 -10 -126 -29 -29 -58 -26 -89 9
-14 17 -17 33 -14 69 6 59 21 78 64 78 27 0 36 -6 49 -30z m-192 -9 c24 -23
35 -77 26 -121 -17 -80 -110 -107 -168 -49 -40 39 -45 93 -15 151 25 47 116
58 157 19z m-269 -107 c54 -53 9 -150 -58 -124 -54 20 -60 97 -8 124 35 20 47
20 66 0z m381 -110 c21 -9 45 -56 45 -91 0 -41 -25 -71 -66 -79 -30 -5 -40 -2
-60 18 -14 13 -27 40 -30 59 -5 29 -1 40 24 67 29 31 54 38 87 26z m-213 -31
c16 -19 40 -104 32 -112 -2 -2 -4 1 -4 7 0 6 -11 0 -25 -13 -30 -30 -84 -34
-108 -7 -26 28 -31 75 -13 111 15 27 21 31 60 31 28 0 48 -6 58 -17z"/>
</g></g>
</svg>