<svg xmlns="http://www.w3.org/2000/svg" viewBox="0 0 443 607">
<g transform="translate(5,607) scale(0.1,-0.1)">
<path fill="#1e293b" d="M2475 5425 c-27 -7 -77 -23 -110 -35 -162 -58 -320 -82 -565 -84 -96 -1 -181 -5 -187 -9 -21 -14 -15 -62 14 -105 36 -53 167 -160 240 -198 54 -27 66 -29 163 -28 108 0 159 11 395 81 80 24 107 27 250 27 175 1 194 6 215 60 25 66 1 124 -84 204 -100 94 -202 121 -331 87z"></path> 
<path fill="#1e293b" d="M2255 4823 c-136 -62 -236 -84 -420 -90 -173 -6 -185 -11 -185 -78 0 -29 9 -55 33 -92 38 -60 75 -92 152 -133 51 -27 66 -30 146 -30 66 0 105 6 147 21 155 56 189 62 333 56 169 -6 215 1 251 42 33 37 36 78 9 136 -22 48 -77 100 -178 166 -68 44 -81 49 -132 49 -45 0 -75 -9 -156 -47z"></path> 
<path fill="#1e293b" d="M2585 4225 c-82 -14 -208 -29 -280 -34 -71 -5 -224 -19 -338 -30 -114 -12 -323 -23 -465 -26 -301 -7 -401 -11 -424 -20 -30 -12 -49 -53 -42 -90 11 -61 154 -175 285 -227 48 -20 72 -22 214 -22 147 0 338 19 455 44 25 5 90 14 145 19 55 6 135 15 178 21 230 32 437 28 567 -9 96 -28 230 -51 299 -51 77 0 101 20 101 83 -1 86 -70 186 -194 280 -39 30 -87 60 -106 66 -67 23 -233 21 -395 -4z"></path> 
<path fill="#ef4444" d="M1824 3208 c-21 -18 -58 -64 -83 -103 l-46 -70 0 -150 c0 -138 -2 -153 -22 -188 -27 -46 -29 -69 -6 -108 22 -38 32 -40 201 -53 l142 -11 20 -32 c38 -64 -2 -103 -104 -103 -29 0 -55 -3 -58 -6 -10 -10 10 -66 32 -89 15 -16 38 -24 82 -29 73 -7 98 -26 98 -72 0 -41 -21 -54 -101 -61 l-59 -6 0 -48 c0 -55 5 -59 80 -74 52 -11 55 -13 64 -49 6 -28 5 -41 -5 -51 -21 -19 -115 -34 -157 -24 -78 17 -106 62 -117 191 -14 149 -48 235 -116 292 -50 42 -78 50 -102 29 -18 -16 -19 -27 -14 -113 6 -97 35 -292 61 -410 8 -36 18 -80 21 -97 4 -18 19 -42 33 -54 29 -23 28 -23 262 -3 l76 7 27 -36 c56 -74 11 -96 -216 -109 -174 -10 -242 -3 -267 27 -6 8 -20 51 -31 97 -32 133 -69 174 -149 166 -39 -4 -68 -44 -69 -94 -2 -93 -13 -125 -50 -150 -22 -14 -62 -27 -105 -33 -74 -11 -103 -26 -70 -37 10 -4 26 -13 34 -20 8 -7 28 -14 44 -16 38 -4 47 -28 12 -28 -14 0 -26 5 -26 10 0 6 -6 10 -14 10 -7 0 -25 9 -39 20 -32 25 -39 15 -25 -38 15 -59 118 -169 192 -205 30 -15 60 -36 66 -47 5 -10 10 -67 10 -127 0 -59 5 -128 11 -152 21 -94 119 -175 206 -169 46 3 49 4 62 43 10 31 12 87 7 253 -4 144 -2 220 5 234 17 32 66 45 222 59 175 15 192 10 202 -50 8 -49 6 -53 -45 -80 -32 -16 -59 -21 -121 -21 -107 0 -119 -7 -119 -73 0 -74 41 -199 71 -215 45 -24 195 -8 398 43 102 25 200 45 220 43 40 -3 53 -23 102 -150 37 -96 72 -150 134 -207 59 -54 100 -71 172 -70 82 1 145 37 199 116 40 59 94 207 153 418 13 44 39 116 58 160 27 61 36 94 37 142 1 59 -1 64 -39 103 -61 62 -237 175 -333 213 -53 21 -90 13 -159 -34 -62 -44 -126 -58 -293 -65 -156 -8 -170 -2 -170 66 0 47 -2 46 156 59 182 16 234 40 317 149 73 94 111 177 110 237 -3 101 -51 170 -160 225 -45 23 -60 25 -233 28 -106 2 -190 8 -197 14 -21 17 -15 71 11 99 24 26 24 26 234 31 128 4 217 10 231 17 16 9 21 21 21 52 0 44 -4 49 -114 145 -51 45 -56 68 -31 139 17 48 19 103 4 142 -17 45 -79 103 -144 134 -51 25 -72 29 -144 29 l-83 0 5 -27 c3 -16 14 -59 26 -98 27 -91 27 -148 -1 -194 -12 -20 -25 -38 -29 -41 -3 -3 -13 -18 -22 -35 -8 -16 -26 -40 -39 -52 -23 -22 -25 -22 -60 -6 -30 13 -40 27 -57 71 -26 68 -26 70 4 114 27 40 32 80 13 96 -7 5 -29 13 -48 17 -19 4 -53 16 -76 25 -38 17 -43 23 -54 72 -7 29 -17 59 -23 66 -18 23 -65 14 -103 -20z m551 -48 c14 -16 15 -20 4 -20 -16 0 -39 19 -39 32 0 14 16 9 35 -12z m-535 -77 c0 -5 -9 -21 -20 -38 l-20 -30 0 26 c0 14 5 30 12 37 13 13 28 16 28 5z m520 -303 c-6 -11 -15 -20 -21 -20 -6 0 -6 7 1 20 6 11 15 20 21 20 6 0 6 -7 -1 -20z m193 -491 c53 -14 67 -42 69 -135 1 -92 -23 -178 -57 -200 -12 -7 -51 -21 -87 -30 -113 -28 -188 -3 -188 62 0 33 30 52 100 63 65 11 90 28 90 60 0 31 -16 39 -90 46 -41 4 -85 13 -97 21 -39 24 -26 95 20 114 31 12 194 12 240 -1z m-545 -216 c-10 -2 -26 -2 -35 0 -10 3 -2 5 17 5 19 0 27 -2 18 -5z m824 -596 c32 -7 62 -17 68 -23 20 -20 22 -155 5 -239 -9 -44 -21 -106 -26 -138 -16 -107 -61 -155 -115 -126 -35 18 -44 46 -44 137 0 97 -22 161 -78 223 -32 35 -43 58 -47 91 -3 23 -1 50 4 57 18 27 144 37 233 18z m-437 -51 c41 -17 55 -43 57 -99 1 -55 -24 -103 -57 -111 -36 -9 -91 19 -105 54 -17 40 -3 118 26 147 27 27 33 28 79 9z m95 -256 c0 -5 -7 -10 -16 -10 -8 0 -12 5 -9 10 3 6 10 10 16 10 5 0 9 -4 9 -10z"></path> 
</g>
</svg>