<svg xmlns="http://www.w3.org/2000/svg" viewBox="0 0 443 607">
<g transform="translate(0,607) scale(0.1,-0.1)">
<path fill="#1e293b"  d="M1778 5508 c-11 -8 -30 -59 -48 -133 -38 -149 -82 -277 -128 -375 -35 -75 -142 -242 -163 -255 -6 -4 -25 -30 -44 -59 -18 -28 -49 -67 -69 -86 -20 -19 -46 -51 -58 -70 -12 -19 -43 -60 -68 -90 -57 -67 -165 -218 -181 -254 -10 -20 -9 -29 2 -42 20 -25 128 -12 220 27 158 65 202 69 229 18 14 -25 9 -159 -10 -329 -16 -137 -9 -314 13 -357 43 -82 148 -111 198 -55 14 15 33 40 43 55 23 38 64 53 166 62 47 3 153 19 235 35 83 16 191 34 240 40 50 6 119 16 155 22 181 28 533 27 715 -2 77 -13 161 -13 185 0 41 22 53 126 21 189 -27 53 -169 184 -215 198 -42 13 -71 7 -142 -31 -53 -28 -75 -32 -105 -16 -16 9 -19 22 -19 95 0 114 24 177 99 258 90 96 98 124 60 199 -30 59 -209 238 -238 238 -13 0 -40 -14 -61 -30 -50 -39 -96 -58 -163 -66 -67 -8 -93 5 -106 53 -13 46 -5 103 25 168 43 97 86 118 291 140 183 21 223 46 223 146 0 38 -7 56 -37 96 -43 59 -81 86 -154 115 -83 31 -157 22 -239 -28 -101 -61 -194 -99 -329 -133 -154 -39 -179 -34 -216 38 -40 79 -120 167 -178 195 -66 32 -126 42 -149 24z m388 -528 c123 -43 129 -64 83 -297 -13 -66 -30 -77 -144 -91 -84 -11 -92 -14 -123 -47 -38 -41 -37 -64 2 -144 17 -35 34 -52 83 -78 59 -33 62 -36 69 -81 11 -74 -12 -256 -41 -311 -29 -59 -73 -78 -195 -86 -106 -7 -117 0 -131 86 -14 82 2 437 22 513 17 62 115 357 134 401 17 40 80 134 100 147 19 14 80 8 141 -12z m523 -579 c28 -18 5 -338 -30 -415 -15 -32 -50 -43 -161 -50 -122 -7 -117 -15 -99 189 17 192 38 254 91 272 41 14 179 17 199 4z"/> 
<path fill="#ef4444"  d="M1872 3165 c-27 -25 -64 -73 -82 -106 -32 -60 -32 -64 -25 -143 14 -158 12 -182 -23 -225 -34 -42 -42 -92 -19 -122 33 -43 66 -52 202 -58 151 -7 175 -17 175 -77 0 -53 -31 -74 -108 -74 l-64 0 5 -27 c16 -80 19 -82 126 -99 24 -3 52 -15 62 -25 39 -39 13 -109 -42 -109 -13 0 -41 -3 -61 -6 -37 -6 -38 -8 -38 -50 0 -50 17 -64 74 -64 44 0 78 -39 74 -84 -3 -27 -8 -31 -52 -42 -50 -13 -136 -9 -168 8 -31 15 -49 66 -63 174 -20 153 -45 220 -108 288 -89 95 -140 72 -131 -58 6 -86 40 -309 59 -391 8 -33 19 -83 25 -112 19 -85 23 -86 210 -78 139 6 163 5 185 -9 35 -23 34 -68 -2 -91 -32 -21 -206 -44 -338 -45 -120 0 -132 10 -174 147 -27 88 -37 106 -69 133 -43 35 -83 39 -111 9 -19 -21 -41 -115 -41 -180 0 -63 -18 -75 -119 -83 -99 -8 -113 -17 -113 -68 0 -49 14 -77 72 -146 36 -42 71 -71 107 -89 30 -14 61 -36 68 -47 8 -14 15 -67 17 -151 4 -107 8 -137 25 -170 40 -76 123 -135 190 -135 35 0 46 5 60 27 15 23 17 48 14 207 -6 316 -7 294 17 318 18 18 42 24 134 35 172 19 230 17 262 -8 28 -22 33 -53 15 -93 -16 -35 -49 -45 -169 -54 l-105 -7 1 -70 c1 -89 20 -158 51 -187 21 -20 35 -23 101 -22 95 1 229 25 342 59 109 33 171 41 209 26 23 -10 34 -26 52 -74 42 -114 99 -218 146 -263 66 -64 96 -77 183 -78 65 -1 80 2 110 24 93 66 137 151 216 415 47 158 64 205 96 270 12 23 23 69 26 109 l5 69 -89 83 c-48 46 -93 84 -99 84 -7 0 -24 13 -38 30 -15 16 -36 30 -47 30 -11 0 -45 11 -76 25 -76 33 -102 32 -156 -10 -63 -47 -165 -72 -332 -81 -157 -8 -166 -5 -166 62 0 31 5 46 18 52 9 5 71 12 137 16 66 3 136 11 155 16 82 24 182 127 242 248 25 51 32 77 32 131 1 59 -3 73 -29 111 -38 54 -107 106 -162 119 -23 6 -116 11 -206 11 -158 0 -164 1 -185 23 -29 30 -28 68 2 96 22 21 34 22 212 26 233 5 262 10 276 40 18 40 0 76 -78 150 -42 41 -74 79 -74 90 0 11 7 51 16 88 22 90 11 129 -60 201 -41 43 -65 58 -107 70 -75 21 -144 29 -175 22 -25 -7 -26 -10 -21 -50 3 -23 17 -67 31 -97 27 -56 34 -133 15 -145 -6 -3 -18 -21 -25 -38 -15 -32 -51 -85 -84 -123 -27 -32 -106 -32 -145 -1 -25 19 -27 26 -23 72 3 38 14 65 41 106 20 30 37 63 37 72 0 22 -42 44 -102 53 -58 9 -83 35 -101 105 -13 51 -17 55 -45 58 -26 3 -41 -5 -80 -43z m770 -906 c44 -24 60 -122 37 -231 -21 -95 -102 -148 -230 -148 -41 0 -78 14 -91 34 -14 20 -8 73 10 88 9 9 43 18 74 20 68 5 88 20 88 63 0 39 -14 45 -109 45 -46 0 -70 5 -83 17 -32 29 -20 97 21 112 36 13 258 14 283 0z m-489 -226 c-7 -2 -19 -2 -25 0 -7 3 -2 5 12 5 14 0 19 -2 13 -5z m-53 -257 c0 -11 -19 -15 -25 -6 -3 5 1 10 9 10 9 0 16 -2 16 -4z m821 -328 c26 -14 42 -33 50 -55 14 -42 5 -149 -26 -307 -20 -98 -28 -123 -51 -147 -32 -34 -66 -37 -93 -10 -15 15 -20 39 -25 108 -3 48 -11 108 -16 132 -12 48 -61 125 -90 141 -26 14 -36 71 -18 107 17 36 63 52 157 52 57 1 82 -4 112 -21z m-460 -38 c22 -12 59 -80 59 -109 0 -33 -31 -101 -51 -111 -31 -17 -66 -11 -98 16 -29 24 -31 31 -31 89 0 54 4 68 26 94 27 32 60 39 95 21z m-531 -310 c0 -5 -5 -10 -11 -10 -5 0 -7 5 -4 10 3 6 8 10 11 10 2 0 4 -4 4 -10z"/> 
</g>
</svg>