<svg xmlns="http://www.w3.org/2000/svg" viewBox="0 0 443 608">
<g transform="translate(-22.50992314707316,608) scale(0.1,-0.1)">
<path fill="#ef4444" d="M2062 4943 c-26 -49 -23 -138 13 -328 42 -226 85 -700 66 -733 -13 -23 -160 -80 -276 -107 -60 -14 -135 -32 -165 -40 -82 -23 -107 -19 -205 30 -120 60 -283 97 -330 74 -16 -9 -29 -21 -28 -27 2 -7 -2 -12 -7 -12 -12 0 -13 -24 -1 -48 5 -9 39 -80 77 -157 38 -77 78 -153 91 -170 12 -16 43 -70 69 -120 26 -49 55 -101 64 -115 9 -14 48 -83 85 -155 37 -71 76 -141 85 -155 9 -14 24 -38 32 -55 30 -59 74 -131 115 -191 51 -75 77 -84 143 -50 25 13 56 27 69 31 13 4 47 21 75 37 70 41 135 43 174 5 l27 -27 4 -433 c5 -686 29 -1008 83 -1133 6 -16 25 -46 41 -66 25 -33 34 -38 70 -38 39 0 45 4 86 58 81 103 75 46 81 907 4 615 8 775 18 793 18 31 70 52 131 52 47 0 121 -25 121 -41 0 -4 18 -21 41 -37 34 -25 45 -29 70 -22 40 12 106 70 131 117 11 21 45 75 74 120 30 44 54 85 54 89 0 15 244 389 284 435 104 120 117 161 69 221 -47 59 -226 239 -293 294 -200 165 -186 158 -261 123 -141 -67 -229 -113 -229 -120 0 -4 -16 -11 -35 -15 -46 -8 -100 24 -113 69 -5 18 -10 93 -11 168 -3 149 -9 127 72 284 41 77 37 97 -35 171 -34 36 -78 74 -97 86 -20 12 -45 29 -56 38 -43 38 -285 171 -355 197 -52 19 -107 17 -118 -4z m80 -118 c4 -39 -6 -48 -16 -12 -8 31 -7 47 3 47 5 0 11 -16 13 -35z m25 -177 c-3 -7 -5 -2 -5 12 0 14 2 19 5 13 2 -7 2 -19 0 -25z m60 -630 c-2 -18 -4 -4 -4 32 0 36 2 50 4 33 2 -18 2 -48 0 -65z m-1041 -233 c16 -8 37 -15 47 -15 9 0 17 -7 17 -15 0 -8 -8 -15 -17 -15 -19 0 -83 41 -83 53 0 10 4 9 36 -8z m1794 -192 c37 -47 25 -137 -44 -323 -86 -232 -109 -262 -203 -273 -42 -5 -57 -2 -75 13 -23 18 -23 23 -26 237 -3 210 6 323 28 323 5 0 26 11 46 25 34 23 46 25 145 25 105 0 108 -1 129 -27z m-810 -80 c30 -4 40 -12 63 -53 27 -48 27 -50 27 -241 l0 -192 -44 -43 c-36 -34 -54 -43 -95 -49 -45 -6 -55 -4 -92 22 -47 32 -52 40 -114 182 -55 124 -70 194 -55 251 13 48 32 62 140 100 46 16 85 32 89 35 3 3 15 3 26 -1 11 -3 36 -8 55 -11z m170 -453 c0 -11 -4 -20 -9 -20 -5 0 -7 9 -4 20 3 11 7 20 9 20 2 0 4 -9 4 -20z m-13 -962 c-1 -51 -3 -12 -3 87 0 99 2 141 3 93 2 -48 2 -129 0 -180z m27 -579 c3 -52 7 -123 10 -159 5 -54 4 -60 -5 -35 -11 32 -26 304 -15 294 3 -3 8 -48 10 -100z"></path> 
</g>
</svg>