<svg xmlns="http://www.w3.org/2000/svg" viewBox="0 0 443 607">
<g transform="translate(5,607) scale(0.1,-0.1)">
<path fill="#1e293b" d="M2225 5379 c-146 -22 -203 -31 -250 -41 -27 -6 -134 -13 -237 -15 -136 -4 -191 -9 -198 -19 -25 -29 -7 -129 32 -174 33 -38 136 -113 193 -140 114 -54 191 -61 366 -30 178 31 273 35 356 16 40 -9 99 -16 132 -16 54 0 62 3 85 31 78 92 -25 322 -169 377 -62 24 -191 28 -310 11z"></path> 
<path fill="#1e293b" d="M2330 4639 c-96 -4 -206 -13 -245 -19 -70 -10 -217 -27 -500 -55 -101 -11 -191 -14 -275 -9 -115 6 -127 5 -149 -13 -47 -38 -18 -136 61 -209 56 -51 131 -100 183 -117 68 -23 251 -32 345 -17 41 7 107 16 145 20 39 4 104 14 145 23 71 16 126 23 380 48 130 13 351 12 405 -2 22 -6 64 -22 93 -36 37 -18 76 -28 126 -31 l72 -4 32 36 c40 46 41 80 5 133 -46 66 -65 86 -132 136 -165 123 -245 136 -691 116z"></path> 
<path fill="#ef4444" d="M1824 3396 c-42 -19 -116 -119 -137 -186 -14 -45 -15 -64 -7 -105 6 -28 14 -75 17 -106 5 -53 3 -59 -31 -103 -41 -54 -48 -102 -18 -129 10 -10 23 -17 28 -17 5 -1 27 -9 49 -20 32 -15 62 -19 148 -20 106 0 109 -1 138 -29 16 -16 29 -34 29 -40 0 -32 -90 -71 -165 -71 -18 0 -25 -5 -25 -19 0 -62 50 -106 133 -117 37 -5 52 -13 68 -36 17 -23 18 -32 9 -43 -7 -8 -9 -15 -4 -15 4 0 -1 -7 -12 -15 -11 -8 -42 -14 -76 -15 -31 0 -59 -3 -61 -7 -2 -5 -1 -30 2 -57 l6 -50 55 -14 c72 -18 93 -37 86 -77 -4 -16 -14 -36 -23 -42 -24 -18 -120 -15 -172 5 -66 26 -81 52 -92 170 -14 147 -38 215 -102 284 -30 32 -64 59 -80 62 -58 13 -66 -74 -28 -324 9 -62 22 -128 58 -287 21 -96 26 -98 227 -89 134 6 155 5 170 -9 25 -26 31 -63 12 -84 -19 -21 -182 -40 -363 -44 -125 -2 -133 3 -156 114 -21 101 -30 120 -67 158 -28 27 -39 32 -73 29 -56 -4 -77 -40 -84 -145 -3 -46 -12 -85 -20 -94 -16 -19 -74 -35 -155 -44 -54 -6 -58 -8 -60 -33 -4 -57 3 -83 34 -128 54 -76 89 -108 155 -139 73 -34 70 -25 76 -218 l4 -127 44 -57 c54 -69 97 -93 165 -93 49 0 52 2 65 33 14 32 16 132 8 372 -5 138 5 160 78 168 213 24 293 27 328 13 43 -18 47 -52 13 -102 -26 -37 -41 -41 -180 -51 l-99 -6 6 -66 c10 -106 26 -158 58 -188 27 -27 33 -28 125 -27 79 1 125 8 252 41 253 67 288 66 316 -4 71 -178 92 -218 138 -269 52 -59 146 -114 194 -114 55 0 122 31 169 79 50 52 77 105 123 248 17 54 38 114 46 133 7 19 18 55 23 80 6 25 22 77 37 115 83 219 83 222 5 309 -35 38 -203 148 -275 180 -99 44 -123 44 -180 0 -69 -53 -152 -74 -314 -81 -118 -5 -134 -4 -152 12 -11 10 -20 30 -20 45 0 42 45 59 181 69 133 10 183 28 246 87 71 67 163 234 163 296 0 87 -62 177 -155 225 -47 24 -61 26 -227 31 l-177 4 -27 29 c-31 32 -28 71 8 90 13 7 96 13 216 16 227 4 262 13 262 63 0 47 -23 82 -85 130 -30 23 -58 52 -60 64 -3 11 1 59 8 105 8 47 12 94 9 105 -10 37 -53 94 -100 131 -57 44 -125 65 -215 65 l-70 0 6 -37 c4 -21 14 -63 23 -93 10 -30 19 -81 21 -113 5 -54 2 -62 -32 -111 -20 -30 -54 -70 -75 -91 -35 -34 -42 -37 -75 -31 -21 4 -49 19 -62 32 -22 22 -25 32 -20 69 2 26 18 65 36 93 36 56 40 96 12 112 -11 5 -42 15 -70 21 -57 12 -95 48 -106 101 -13 60 -38 71 -101 44z m527 -56 c19 -10 26 -30 12 -30 -5 0 -19 9 -33 20 -26 21 -12 27 21 10z m35 -308 c-18 -16 -18 -16 -6 6 6 13 14 21 18 18 3 -4 -2 -14 -12 -24z m-56 -96 c0 -3 -4 -8 -10 -11 -5 -3 -10 -1 -10 4 0 6 5 11 10 11 6 0 10 -2 10 -4z m-730 -427 c0 -6 -4 -7 -10 -4 -5 3 -10 11 -10 16 0 6 5 7 10 4 6 -3 10 -11 10 -16z m443 4 c-7 -2 -19 -2 -25 0 -7 3 -2 5 12 5 14 0 19 -2 13 -5z m530 -74 c26 -25 27 -30 27 -132 0 -97 -2 -108 -24 -134 -37 -45 -177 -93 -222 -77 -41 15 -74 46 -74 69 0 33 33 51 103 58 68 7 87 19 87 56 0 47 -13 54 -105 61 -58 5 -90 12 -96 21 -16 25 -10 87 9 99 10 6 67 9 142 8 119 -3 126 -4 153 -29z m-1438 -733 c32 -14 48 -36 25 -36 -16 0 -80 33 -80 42 0 12 16 10 55 -6z m1737 -64 c21 -21 23 -30 22 -139 -1 -63 -6 -125 -12 -137 -11 -23 -32 -131 -32 -162 0 -29 -47 -74 -76 -74 -52 0 -64 15 -64 84 0 134 -26 212 -99 300 -58 68 -54 124 9 149 8 4 63 5 122 4 97 -2 110 -5 130 -25z m-471 -51 c24 -24 29 -38 29 -78 0 -103 -62 -144 -128 -85 -26 24 -32 36 -32 71 0 69 36 118 88 120 8 1 27 -12 43 -28z"></path> 
</g>
</svg>