<svg xmlns="http://www.w3.org/2000/svg" viewBox="0 0 444 607">
<g transform="translate(-10,607) scale(0.1,-0.1)">
<path fill="#1e293b" d="M1911 5449 c-34 -5 -61 -15 -75 -28 -21 -21 -21 -27 -18 -331 4 -341 2 -353 -60 -405 -33 -28 -66 -37 -188 -54 -143 -21 -193 -32 -242 -57 -55 -28 -60 -34 -61 -80 -1 -28 7 -43 44 -80 88 -91 209 -160 261 -150 101 19 121 19 135 1 20 -28 16 -66 -16 -141 -72 -169 -167 -295 -406 -538 -28 -28 -66 -70 -84 -94 -28 -36 -31 -45 -20 -59 11 -13 28 -15 97 -10 97 7 173 38 269 108 177 130 402 432 468 629 11 30 23 59 27 65 4 5 8 16 8 24 0 8 19 64 42 124 51 130 97 187 151 187 57 0 70 -18 69 -91 -1 -35 -6 -102 -12 -149 -26 -230 -30 -274 -30 -374 0 -119 17 -201 58 -286 23 -46 39 -63 102 -105 113 -76 185 -97 360 -104 271 -11 499 14 586 65 105 62 131 135 94 264 -37 128 -48 176 -54 252 -16 179 -18 188 -43 218 -15 18 -34 30 -49 30 -22 0 -24 -4 -24 -47 0 -112 -57 -333 -101 -392 -12 -16 -33 -34 -47 -40 -98 -45 -395 -53 -462 -13 -58 36 -70 65 -70 172 0 112 34 492 50 548 12 48 54 106 131 185 32 33 59 66 59 74 0 41 -168 179 -277 227 -55 24 -75 18 -153 -50 -86 -75 -119 -94 -157 -94 -28 0 -36 6 -58 45 -21 35 -25 52 -20 77 15 73 48 176 75 233 16 33 31 71 35 85 7 32 -24 84 -67 110 -70 43 -210 64 -327 49z"></path> 
<path fill="#ef4444" d="M2045 3111 c-25 -11 -72 -55 -105 -100 -14 -19 -30 -39 -36 -45 -20 -21 -37 -142 -25 -177 20 -59 14 -124 -19 -184 -37 -69 -38 -96 -2 -135 26 -30 30 -31 127 -34 207 -7 241 -22 228 -99 -8 -49 -22 -59 -96 -66 -58 -6 -62 -8 -65 -32 -5 -44 38 -78 109 -88 60 -8 88 -27 89 -63 0 -9 3 -23 6 -32 9 -22 -52 -56 -102 -56 -46 0 -64 -14 -64 -50 0 -33 17 -50 49 -50 77 0 129 -55 98 -104 -22 -32 -77 -49 -143 -44 -43 4 -61 11 -85 34 -41 38 -46 52 -64 196 -11 79 -24 139 -38 167 -27 55 -109 141 -134 141 -29 0 -53 -54 -53 -120 0 -32 4 -61 8 -64 5 -3 14 -56 21 -118 6 -62 16 -129 21 -148 5 -19 14 -64 21 -100 18 -95 34 -128 67 -137 15 -3 90 -1 167 5 120 10 142 9 162 -3 42 -28 39 -90 -6 -114 -46 -25 -398 -41 -443 -20 -23 10 -58 85 -58 125 0 70 -66 164 -115 164 -60 0 -80 -31 -90 -144 -10 -105 -27 -122 -132 -131 -129 -13 -147 -60 -61 -165 15 -19 28 -39 28 -45 0 -6 12 -23 28 -36 31 -29 82 -62 82 -54 0 9 58 -24 67 -37 4 -7 10 -79 14 -159 6 -164 8 -169 88 -249 49 -49 89 -64 141 -54 48 10 54 46 47 289 -4 115 -4 220 -1 231 11 42 147 74 312 74 80 0 91 -2 110 -23 37 -39 23 -109 -25 -128 -16 -6 -71 -15 -125 -19 -53 -4 -101 -11 -107 -14 -20 -13 -14 -72 21 -209 12 -51 39 -60 163 -54 105 5 189 18 265 41 56 17 156 43 192 51 41 8 93 -42 112 -108 25 -86 84 -183 150 -251 63 -64 63 -64 134 -71 63 -6 77 -4 125 18 100 46 160 152 237 417 38 133 82 264 101 302 11 22 19 58 19 89 0 51 -2 54 -63 113 -88 86 -107 99 -244 166 -46 22 -92 40 -104 40 -21 0 -79 -28 -90 -43 -15 -21 -155 -48 -296 -59 -187 -14 -203 -10 -203 56 0 24 6 48 14 55 7 6 71 16 142 21 177 15 205 23 269 82 57 52 133 160 153 219 37 109 -1 209 -107 278 -57 37 -63 38 -173 44 -62 3 -139 3 -170 0 -67 -7 -96 -1 -126 27 -30 28 -28 61 6 92 30 29 80 35 335 43 140 4 157 10 157 57 0 43 -12 60 -86 118 l-66 52 6 56 c22 202 21 209 -53 273 -56 49 -111 76 -177 84 -73 10 -95 -2 -99 -53 -2 -23 0 -42 5 -42 8 0 18 -39 27 -108 9 -72 -12 -122 -84 -200 -68 -75 -100 -90 -147 -72 -56 21 -74 128 -31 184 13 18 32 50 41 71 15 37 15 40 -2 52 -10 7 -27 13 -38 13 -73 0 -146 51 -146 102 0 37 -17 78 -32 77 -7 0 -22 -4 -33 -8z m718 -878 c-7 -2 -21 -2 -30 0 -10 3 -4 5 12 5 17 0 24 -2 18 -5z m-23 -58 c44 -23 50 -43 50 -163 0 -97 -3 -113 -23 -143 -32 -49 -81 -69 -184 -76 -86 -5 -89 -5 -115 22 -33 33 -34 44 -8 78 15 19 34 28 68 33 26 3 62 12 80 20 26 11 32 19 32 43 0 16 -4 33 -10 36 -5 3 -43 9 -82 12 -91 7 -118 22 -118 67 0 61 52 83 198 85 56 1 92 -4 112 -14z m260 -632 c-1 -9 -70 -46 -70 -38 0 3 8 14 17 25 17 19 53 28 53 13z m-1580 -132 c0 -12 -26 -21 -63 -21 -49 0 -10 25 46 29 9 0 17 -3 17 -8z m717 -17 c-3 -3 -12 -4 -19 -1 -8 3 -5 6 6 6 11 1 17 -2 13 -5z m892 -29 c16 -8 34 -28 41 -45 19 -46 8 -237 -18 -325 -12 -39 -24 -87 -27 -108 -6 -39 -29 -60 -76 -72 -22 -5 -30 -1 -50 26 -20 29 -23 46 -25 133 -1 118 -12 149 -79 227 -25 30 -49 65 -52 78 -9 35 17 74 57 88 51 17 195 16 229 -2z m-431 -68 c20 -19 22 -28 17 -77 -10 -88 -14 -99 -45 -115 -43 -22 -68 -19 -101 14 -24 24 -29 38 -29 76 0 54 20 108 47 124 25 15 83 4 111 -22z"></path> 
</g>
</svg>