<svg xmlns="http://www.w3.org/2000/svg" viewBox="0 0 443 608">
<g transform="translate(-1.7338551859099804,613) scale(0.1,-0.1)">
<path fill="#15803d" d="M1330 5391 c-57 -11 -180 -76 -245 -128 -73 -59 -134 -144 -176 -243 -39 -91 -46 -120 -59 -235 -19 -176 30 -338 149 -487 62 -79 123 -129 208 -172 83 -42 131 -54 250 -67 137 -14 209 -3 314 47 240 115 388 353 389 622 0 107 -22 215 -57 286 -38 75 -116 177 -171 223 -52 44 -214 133 -243 133 -9 0 -33 7 -52 15 -38 16 -237 20 -307 6z m-32 -248 c13 -23 50 -72 82 -108 l60 -65 0 -72 c0 -96 -11 -108 -101 -108 -67 0 -68 0 -130 53 -34 28 -81 67 -105 85 -36 28 -44 40 -44 67 0 40 53 112 118 161 62 45 89 42 120 -13z m513 16 c37 -26 105 -102 124 -139 20 -38 13 -76 -15 -85 -11 -3 -52 -33 -92 -67 -85 -70 -101 -78 -173 -78 -80 0 -100 21 -100 102 1 50 6 71 26 103 15 22 34 47 43 55 10 7 32 34 49 59 58 85 78 93 138 50z m-51 -508 c14 -8 48 -36 76 -62 27 -25 64 -54 81 -62 42 -22 48 -52 18 -104 -33 -55 -148 -153 -180 -153 -18 0 -32 11 -51 42 -15 23 -49 65 -75 94 -27 28 -55 70 -64 93 -26 73 -1 165 47 174 39 6 122 -5 148 -22z m-324 -6 c19 -26 18 -119 -2 -158 -10 -18 -36 -54 -58 -82 -23 -27 -54 -70 -70 -94 -26 -41 -30 -43 -64 -38 -51 8 -168 128 -178 183 -6 32 -4 40 15 53 12 9 61 49 109 89 l87 72 73 -3 c59 -2 77 -6 88 -22z"></path> 
<path fill="#15803d" d="M2765 5381 c-109 -28 -191 -75 -275 -157 -236 -229 -266 -606 -72 -892 90 -132 251 -237 409 -267 230 -44 421 12 581 167 132 129 192 282 192 494 0 109 -3 131 -28 202 -41 115 -86 186 -177 277 -132 132 -252 183 -445 190 -89 3 -131 0 -185 -14z m486 -219 c71 -46 139 -139 139 -192 0 -22 -7 -30 -32 -41 -18 -7 -63 -42 -100 -76 l-67 -63 -78 0 c-76 0 -79 1 -96 29 -19 33 -22 106 -6 148 5 15 37 55 70 89 32 34 59 69 59 76 0 18 37 58 53 58 7 0 33 -13 58 -28z m-495 -32 c12 -25 44 -69 72 -98 52 -56 62 -82 62 -163 0 -70 -22 -89 -100 -89 -72 0 -100 13 -159 74 -25 25 -64 58 -88 73 -55 35 -60 54 -30 106 46 78 136 147 187 144 31 -2 37 -7 56 -47z m101 -466 c31 -8 46 -62 38 -127 -8 -58 -20 -81 -76 -142 -21 -23 -46 -59 -54 -79 -22 -52 -55 -63 -111 -35 -62 30 -154 144 -154 190 0 16 40 59 55 59 6 0 22 12 36 26 13 15 50 46 83 70 51 39 64 44 110 44 28 0 61 -3 73 -6z m368 -34 c51 -41 113 -89 153 -118 41 -31 29 -70 -50 -161 -45 -52 -89 -81 -121 -81 -29 0 -39 8 -65 50 -11 20 -41 56 -66 80 -56 55 -80 119 -70 185 9 66 33 85 108 85 56 0 65 -3 111 -40z"></path> 
<path fill="#ef4444" d="M1355 3471 c-102 -17 -262 -120 -333 -216 -209 -279 -196 -643 31 -908 62 -72 160 -137 269 -178 75 -28 95 -31 203 -33 108 -1 128 2 203 27 197 68 352 233 421 447 19 61 24 96 24 190 -1 103 -4 125 -34 214 -76 228 -248 392 -475 451 -60 15 -232 19 -309 6z m-48 -199 c6 -4 15 -21 20 -39 4 -18 37 -62 74 -101 61 -63 67 -73 73 -123 7 -61 -5 -115 -31 -135 -24 -18 -136 -18 -171 0 -15 8 -45 33 -67 56 -22 24 -64 58 -92 77 -62 39 -67 62 -28 123 66 105 173 173 222 142z m511 -11 c68 -35 141 -127 156 -197 7 -33 -2 -46 -39 -58 -11 -3 -47 -31 -80 -62 -71 -67 -106 -84 -177 -84 -81 0 -96 7 -108 49 -24 87 7 183 79 243 16 14 41 48 55 77 30 58 51 64 114 32z m-361 -523 c20 -19 23 -31 23 -93 0 -77 -2 -81 -88 -181 -23 -27 -50 -65 -60 -84 -13 -28 -24 -36 -50 -38 -44 -4 -83 22 -149 99 -74 88 -83 148 -26 170 16 5 55 37 88 69 71 70 90 79 174 79 53 1 69 -3 88 -21z m316 11 c12 -6 49 -38 83 -70 33 -33 76 -67 95 -77 29 -14 34 -21 31 -47 -7 -59 -102 -168 -167 -191 -59 -20 -74 -18 -93 18 -9 18 -43 60 -74 93 -67 72 -78 96 -78 178 0 94 13 107 106 107 42 0 85 -5 97 -11z"></path> 
<path fill="#ef4444" d="M2815 3465 c-33 -6 -96 -28 -139 -48 -64 -30 -95 -53 -160 -120 -89 -90 -118 -137 -165 -271 -27 -77 -31 -101 -31 -192 0 -136 21 -227 78 -339 164 -318 551 -457 852 -305 200 102 335 290 361 507 12 92 6 221 -12 288 -18 67 -89 197 -143 261 -153 182 -403 268 -641 219z m443 -204 c71 -37 172 -161 172 -211 0 -23 -7 -31 -38 -43 -21 -8 -54 -33 -73 -54 -68 -74 -105 -95 -178 -101 -60 -4 -70 -2 -95 20 -20 17 -29 36 -33 68 -8 72 11 123 72 189 30 32 62 76 71 97 25 60 42 66 102 35z m-481 -37 c8 -25 38 -65 76 -104 l62 -64 4 -77 c4 -102 -4 -115 -76 -123 -88 -10 -114 0 -191 68 -38 33 -86 74 -106 89 -59 46 -42 102 60 198 54 50 73 59 118 56 36 -2 40 -5 53 -43z m131 -491 c21 -23 22 -31 16 -97 -8 -86 -22 -115 -85 -178 -27 -27 -49 -55 -49 -62 0 -24 -41 -66 -64 -66 -50 0 -187 132 -205 197 -12 41 6 78 42 89 12 4 54 36 94 71 79 71 104 81 178 75 37 -3 56 -10 73 -29z m305 18 c13 -5 55 -39 93 -75 38 -36 77 -66 86 -66 27 0 50 -43 42 -76 -8 -33 -24 -54 -90 -121 -96 -96 -143 -102 -183 -25 -11 21 -27 44 -36 52 -40 33 -98 114 -106 148 -13 54 0 122 27 149 19 19 34 23 83 23 33 0 70 -4 84 -9z"></path> 
<path fill="#ef4444" d="M1384 2006 c-126 -25 -284 -130 -367 -244 -91 -125 -127 -239 -127 -407 0 -198 51 -329 186 -473 144 -155 338 -225 567 -204 84 8 107 15 183 52 232 116 363 339 364 616 0 126 -9 162 -77 303 -129 267 -433 415 -729 357z m-51 -214 c9 -8 17 -21 17 -28 0 -8 27 -43 60 -80 68 -75 85 -119 74 -200 -8 -70 -36 -94 -105 -94 -69 0 -96 13 -170 86 -37 35 -72 64 -77 64 -22 0 -42 33 -42 66 0 59 88 167 159 197 37 16 55 13 84 -11z m505 4 c15 -8 53 -41 84 -73 78 -82 89 -146 32 -177 -10 -6 -51 -41 -91 -78 -81 -75 -106 -84 -198 -71 -70 10 -85 29 -84 108 1 73 8 89 70 158 31 34 66 82 78 105 18 35 26 42 52 42 16 0 42 -6 57 -14z m-72 -506 c14 -6 39 -23 54 -38 43 -42 109 -96 138 -111 34 -17 42 -29 42 -61 0 -42 -108 -163 -174 -194 -31 -14 -76 -12 -76 4 0 17 -75 117 -114 151 l-41 37 -4 86 c-2 72 0 90 14 106 25 27 112 38 161 20z m-292 -22 c11 -16 16 -46 16 -99 0 -82 -8 -99 -90 -182 -17 -18 -37 -45 -44 -62 -32 -74 -84 -72 -168 9 -69 66 -98 111 -98 154 0 27 6 36 32 50 17 9 65 47 105 85 l74 67 79 0 c70 0 81 -2 94 -22z"></path> 
<path fill="#ef4444" d="M2890 2005 c-105 -16 -137 -26 -218 -66 -101 -51 -226 -183 -276 -294 -32 -72 -45 -119 -56 -214 -23 -184 21 -347 133 -498 120 -161 321 -263 523 -263 119 0 184 13 264 53 88 44 144 88 215 169 72 82 96 126 131 238 23 71 27 104 28 200 1 125 -8 172 -57 285 -82 192 -267 340 -479 385 -106 22 -95 22 -208 5z m416 -227 c56 -38 131 -133 140 -177 6 -27 3 -33 -27 -48 -18 -10 -64 -46 -100 -81 -66 -63 -132 -95 -176 -87 -10 2 -28 4 -41 4 -13 1 -34 12 -47 26 -21 20 -25 34 -25 84 0 81 11 105 81 177 32 34 59 68 59 76 0 7 7 24 16 36 22 31 63 28 120 -10z m-507 -15 c11 -21 44 -66 74 -101 57 -65 67 -92 67 -181 0 -71 -26 -91 -115 -91 -63 0 -77 3 -111 28 -21 16 -56 47 -76 70 -21 23 -45 42 -53 42 -22 0 -65 45 -65 67 1 29 61 108 119 158 45 39 59 45 97 45 40 0 45 -3 63 -37z m125 -492 c12 -10 16 -33 16 -98 0 -84 -1 -86 -35 -120 -19 -19 -35 -37 -35 -40 0 -3 -20 -29 -45 -57 -25 -29 -45 -58 -45 -64 0 -18 -48 -25 -80 -12 -62 26 -170 163 -170 217 0 17 10 27 38 38 20 9 60 37 87 63 77 73 92 84 127 91 42 9 122 -2 142 -18z m368 -47 c40 -36 87 -73 103 -81 67 -35 71 -73 14 -140 -61 -71 -129 -123 -162 -123 -29 0 -47 15 -107 95 -19 25 -49 63 -66 83 -37 44 -50 111 -34 171 14 52 30 60 112 61 l67 0 73 -66z"></path> 
</g>
</svg>