<svg xmlns="http://www.w3.org/2000/svg" viewBox="0 0 443 608">
<g transform="translate(-3.2661448140900196,618) scale(0.1,-0.1)">
<path fill="#1e293b" d="M1346 5680 c-190 -60 -330 -212 -393 -424 -12 -38 -14 -80 -10 -166 7 -175 53 -285 166 -403 95 -99 192 -151 339 -183 77 -16 85 -16 164 1 159 34 247 82 344 188 90 100 154 265 154 397 0 208 -125 427 -301 527 -142 81 -328 106 -463 63z m483 -214 c51 -48 91 -106 91 -135 0 -19 -10 -33 -38 -51 -20 -13 -61 -46 -89 -71 -43 -38 -62 -48 -103 -54 -58 -8 -106 7 -115 36 -3 10 -7 40 -7 66 -1 55 13 83 79 155 24 26 43 52 43 58 0 5 9 19 20 30 16 16 24 18 52 8 18 -6 48 -25 67 -42z m-504 27 c133 -152 139 -163 143 -232 2 -45 -1 -72 -10 -85 -18 -23 -94 -32 -139 -17 -45 15 -185 148 -193 182 -7 30 41 92 107 140 46 33 71 36 92 12z m445 -470 c19 -15 49 -39 67 -56 17 -16 42 -35 55 -41 17 -9 24 -21 26 -51 3 -36 -3 -46 -47 -96 -27 -30 -68 -64 -91 -74 l-42 -19 -32 35 c-17 20 -55 64 -83 100 -52 62 -53 65 -53 129 0 96 18 113 110 104 37 -4 67 -14 90 -31z m-318 10 c24 -22 26 -137 2 -173 -36 -53 -149 -160 -170 -160 -52 0 -153 106 -157 165 -2 23 9 36 58 76 133 109 134 109 193 109 38 0 61 -5 74 -17z"></path> 
<path fill="#1e293b" d="M2795 5691 c-62 -10 -203 -79 -262 -127 -44 -36 -103 -116 -141 -190 -33 -65 -54 -162 -54 -254 0 -250 122 -449 342 -560 201 -101 437 -77 609 61 63 50 163 195 187 272 25 77 30 265 10 351 -31 131 -145 285 -270 363 -108 69 -290 105 -421 84z m-58 -206 c10 -14 44 -57 76 -96 l57 -70 0 -69 c0 -85 -15 -100 -100 -100 -55 0 -58 2 -140 71 -47 39 -91 77 -99 84 -42 40 91 205 166 205 12 0 30 -11 40 -25z m452 11 c50 -26 131 -130 131 -169 0 -7 -41 -48 -91 -91 -91 -79 -92 -79 -158 -83 -91 -6 -104 5 -105 89 -1 70 5 81 96 188 21 25 45 53 53 63 18 21 37 22 74 3z m-328 -467 c18 -18 21 -30 17 -88 -3 -64 -6 -70 -55 -127 -28 -32 -58 -74 -67 -91 -22 -45 -54 -51 -103 -20 -48 30 -121 112 -129 143 -8 31 7 49 101 126 94 76 94 76 163 77 40 1 57 -4 73 -20z m284 5 c19 -9 66 -46 104 -83 89 -85 91 -101 21 -176 -63 -66 -98 -82 -140 -65 -16 7 -35 22 -43 34 -8 12 -38 48 -66 81 l-51 60 2 70 c3 63 5 71 28 82 35 18 105 16 145 -3z"></path> 
<path fill="#1e293b" d="M1400 4385 c-74 -18 -188 -77 -243 -126 -62 -54 -143 -179 -168 -258 -36 -118 -44 -218 -25 -323 47 -253 223 -426 498 -487 32 -7 77 -8 140 -1 187 19 351 133 451 313 41 74 49 99 59 174 23 190 -19 348 -129 489 -85 107 -170 167 -301 210 -85 28 -191 31 -282 9z m455 -237 c54 -48 89 -110 81 -144 -4 -14 -28 -37 -59 -57 -28 -19 -63 -46 -77 -61 -13 -15 -47 -33 -77 -42 -85 -25 -134 -4 -146 62 -10 53 9 101 72 181 105 132 95 124 130 112 16 -6 51 -29 76 -51z m-507 24 c124 -132 151 -186 136 -275 -7 -43 -30 -57 -94 -57 -54 0 -87 15 -140 63 -26 23 -63 55 -83 70 -24 18 -37 36 -37 51 0 47 126 176 173 176 10 0 31 -13 45 -28z m124 -449 c21 -19 24 -99 5 -150 -14 -37 -121 -169 -150 -184 -31 -17 -60 -3 -118 56 -57 58 -79 97 -72 125 3 9 25 30 49 45 25 16 57 43 72 60 48 53 72 65 136 65 41 0 65 -5 78 -17z m302 -10 c64 -41 166 -137 166 -157 0 -27 -19 -57 -64 -104 -73 -77 -132 -93 -163 -44 -9 15 -42 58 -72 96 -50 63 -55 75 -59 128 -6 87 11 108 88 108 48 0 69 -5 104 -27z"></path> 
<path fill="#1e293b" d="M2825 4385 c-115 -20 -252 -100 -326 -190 -128 -155 -177 -361 -130 -543 49 -191 149 -316 320 -402 171 -85 348 -87 510 -5 330 166 419 600 186 909 -88 118 -196 189 -343 227 -86 22 -118 22 -217 4z m-26 -270 c83 -99 91 -116 91 -191 0 -80 -21 -97 -110 -92 -65 3 -70 6 -117 50 -27 25 -68 57 -91 72 -49 30 -52 49 -21 113 28 59 117 130 165 132 7 1 44 -37 83 -84z m419 58 c27 -17 92 -86 109 -117 24 -42 16 -63 -39 -96 -29 -18 -71 -52 -94 -75 -33 -34 -51 -45 -87 -50 -50 -8 -83 -1 -109 23 -14 11 -18 31 -18 78 l0 63 64 73 c34 40 66 83 70 95 11 35 55 38 104 6z m-359 -446 c31 -15 43 -58 34 -121 -5 -39 -16 -60 -58 -110 -29 -33 -59 -76 -69 -93 -29 -58 -91 -40 -170 48 -65 72 -75 131 -27 155 13 7 44 32 70 57 25 26 62 53 81 61 43 19 107 20 139 3z m298 -5 c17 -9 65 -46 107 -81 55 -46 76 -70 76 -87 0 -29 -57 -110 -103 -146 -51 -40 -81 -45 -105 -16 -97 114 -131 156 -141 175 -12 24 -15 122 -3 140 21 34 119 43 169 15z"></path> 
<path fill="#1e293b" d="M1379 3061 c-105 -38 -164 -74 -235 -145 -144 -145 -195 -317 -160 -545 35 -228 173 -391 396 -465 141 -47 308 -38 432 25 108 55 174 119 235 228 132 235 115 474 -48 684 -102 130 -263 221 -418 238 -113 11 -114 11 -202 -20z m439 -185 c30 -16 100 -88 120 -123 22 -40 15 -81 -15 -97 -16 -8 -55 -37 -88 -65 -87 -75 -174 -93 -220 -46 -48 47 -24 179 40 221 14 9 34 32 46 53 46 75 64 84 117 57z m-458 -4 c0 -5 30 -44 66 -87 41 -47 70 -92 75 -114 12 -48 1 -119 -20 -130 -26 -13 -96 -21 -129 -15 -29 6 -186 136 -205 171 -15 24 12 70 75 128 51 47 65 55 99 55 21 0 39 -4 39 -8z m397 -442 c7 0 42 -26 77 -57 34 -32 78 -69 96 -83 29 -22 32 -29 26 -58 -9 -39 -94 -135 -136 -152 -43 -18 -73 -6 -116 47 -21 27 -49 58 -62 70 -49 48 -69 155 -37 201 19 26 69 43 109 36 16 -2 35 -4 43 -4z m-266 -21 c5 -7 9 -45 9 -82 0 -59 -4 -74 -29 -110 -16 -23 -40 -53 -55 -66 -14 -13 -30 -39 -36 -57 -10 -29 -16 -34 -41 -34 -41 0 -76 20 -125 72 -50 52 -64 77 -64 116 0 25 9 35 65 71 35 23 71 52 80 64 8 11 25 27 37 34 31 18 146 12 159 -8z"></path> 
<path fill="#1e293b" d="M2879 3070 c-98 -10 -163 -32 -238 -80 -176 -114 -260 -268 -269 -490 -4 -105 -2 -123 23 -195 74 -224 240 -377 455 -421 407 -82 748 277 667 703 -39 205 -209 394 -415 462 -79 27 -127 31 -223 21z m-129 -190 c4 0 30 -30 58 -67 28 -38 61 -80 73 -95 18 -22 23 -41 23 -94 1 -85 -18 -104 -105 -104 -59 0 -59 0 -151 78 -84 70 -93 81 -96 115 -3 35 2 44 50 92 57 58 105 88 126 80 8 -3 17 -5 22 -5z m506 -32 c49 -43 94 -115 94 -150 0 -21 -8 -31 -32 -44 -18 -9 -54 -36 -80 -59 -61 -55 -105 -75 -162 -75 -66 0 -86 23 -86 98 0 65 5 73 99 186 56 67 68 76 97 76 23 0 44 -10 70 -32z m-367 -444 c15 -19 21 -41 21 -75 0 -64 -12 -92 -65 -151 -25 -28 -51 -62 -57 -76 -7 -14 -20 -30 -30 -35 -24 -15 -91 7 -134 45 -35 31 -74 94 -74 120 0 21 151 165 190 182 19 8 56 15 82 16 39 0 50 -4 67 -26z m335 -31 c28 -27 67 -61 87 -76 49 -35 54 -67 19 -115 -51 -70 -106 -112 -148 -112 -33 0 -42 6 -79 53 -23 28 -56 69 -73 89 -53 63 -52 185 2 208 13 6 49 8 82 6 54 -4 62 -8 110 -53z"></path> 
<path fill="#1e293b" d="M1434 1755 c-106 -27 -148 -47 -226 -109 -280 -223 -305 -648 -53 -902 147 -149 366 -209 570 -155 208 54 377 243 415 463 13 74 9 180 -9 248 -16 59 -82 190 -126 250 -65 89 -190 167 -318 199 -121 31 -154 32 -253 6z m-35 -231 c20 -28 50 -68 68 -87 57 -65 68 -172 22 -209 -14 -12 -38 -18 -73 -17 -54 0 -64 5 -167 86 -83 65 -89 71 -89 97 0 30 60 111 114 154 56 44 81 40 125 -24z m447 27 c108 -79 147 -173 87 -205 -16 -8 -39 -26 -53 -41 -14 -15 -49 -42 -78 -61 -66 -42 -139 -48 -171 -12 -49 52 -36 135 32 213 24 28 56 69 71 93 32 51 57 54 112 13z m-346 -461 c14 -14 20 -33 20 -65 0 -60 -18 -99 -71 -160 -25 -27 -50 -62 -56 -77 -27 -61 -89 -43 -172 47 -40 45 -51 64 -51 90 0 29 7 39 43 64 24 16 50 37 58 47 8 9 32 30 53 46 50 36 143 41 176 8z m316 -9 c21 -15 48 -38 59 -51 11 -12 37 -33 58 -46 25 -17 37 -32 37 -48 0 -50 -121 -176 -169 -176 -33 0 -35 2 -97 75 -92 109 -97 118 -97 181 0 76 20 94 108 94 52 0 68 -4 101 -29z"></path> 
<path fill="#1e293b" d="M2855 1760 c-70 -15 -153 -50 -214 -91 -160 -107 -261 -303 -261 -503 0 -119 20 -198 72 -292 153 -274 512 -385 782 -241 127 68 237 201 282 342 34 108 34 262 0 363 -65 191 -182 316 -367 392 -78 33 -218 47 -294 30z m-100 -186 c9 -4 24 -23 35 -44 10 -20 41 -60 69 -88 39 -40 51 -60 56 -95 8 -52 -9 -122 -31 -131 -25 -10 -110 -7 -139 4 -44 17 -185 150 -185 175 0 30 62 114 113 152 44 34 54 37 82 27z m458 -5 c12 -6 44 -32 70 -58 78 -75 96 -126 55 -159 -12 -9 -45 -38 -72 -63 -69 -62 -104 -79 -171 -79 -74 0 -95 20 -95 94 0 56 2 60 87 168 23 29 52 65 63 81 24 30 31 32 63 16z m-313 -486 c19 -24 21 -36 16 -87 -5 -53 -11 -66 -56 -117 -28 -32 -57 -74 -65 -94 -13 -30 -20 -35 -49 -35 -42 0 -102 42 -151 106 -49 65 -46 100 11 131 22 12 66 45 98 73 55 48 60 50 116 50 52 0 61 -3 80 -27z m298 5 c84 -62 152 -123 158 -140 14 -45 -29 -111 -110 -170 -52 -38 -82 -37 -104 3 -9 18 -41 59 -69 92 -77 87 -95 168 -47 212 37 34 127 36 172 3z"></path> 
</g>
</svg>