<svg xmlns="http://www.w3.org/2000/svg" viewBox="0 0 443 608">
<g transform="translate(-6.733855185909981,608) scale(0.1,-0.1)">
<path fill="#1e293b" d="M2197 3806 c-101 -28 -178 -124 -185 -230 -3 -53 0 -69 27 -120 28 -53 31 -67 31 -150 0 -78 -5 -102 -31 -171 -37 -94 -36 -151 6 -250 20 -49 25 -77 25 -153 0 -80 -3 -99 -25 -140 -39 -74 -32 -179 18 -253 45 -68 154 -118 258 -119 49 0 130 43 177 94 70 76 80 163 32 283 -39 96 -41 188 -7 266 32 74 32 233 0 293 -40 75 -40 181 2 293 43 116 25 210 -55 289 -52 51 -84 64 -180 76 -25 3 -67 -1 -93 -8z m162 -181 c19 -18 23 -33 23 -71 -2 -62 -31 -94 -94 -101 -39 -5 -49 -2 -77 23 -45 41 -52 98 -16 137 46 51 118 56 164 12z m-48 -267 c44 -48 53 -117 17 -142 -32 -23 -61 -20 -92 9 -32 30 -34 76 -6 123 23 38 50 41 81 10z m48 -267 c71 -66 13 -191 -88 -191 -32 0 -78 46 -85 86 -9 44 9 99 37 119 37 26 100 19 136 -14z m-19 -270 c5 -11 10 -47 10 -80 0 -67 -12 -81 -68 -81 -47 0 -66 30 -59 96 3 30 11 62 18 70 18 22 86 18 99 -5z m27 -273 c97 -94 -48 -230 -149 -139 -27 24 -33 36 -33 71 0 36 6 47 39 77 33 31 43 34 74 29 21 -3 49 -19 69 -38z"></path> 
<path fill="#15803d" d="M998 3795 c-30 -10 -65 -33 -97 -64 -84 -82 -100 -187 -42 -286 12 -20 20 -63 25 -128 6 -94 5 -100 -25 -170 -39 -92 -38 -171 4 -259 23 -49 27 -70 27 -146 0 -74 -4 -99 -25 -146 -18 -41 -25 -74 -25 -119 0 -78 23 -129 82 -184 53 -48 123 -68 224 -61 74 5 130 38 179 108 28 39 30 47 30 138 0 83 -3 102 -22 133 -20 31 -23 50 -23 131 0 79 4 105 26 159 22 54 26 74 21 134 -3 42 -14 90 -28 120 -31 70 -32 206 -1 285 26 64 30 173 8 223 -17 41 -78 101 -125 123 -48 24 -153 28 -213 9z m171 -170 c73 -83 8 -196 -102 -178 -48 7 -78 42 -84 96 -5 39 -1 48 27 80 29 33 37 37 80 37 42 0 52 -4 79 -35z m-24 -270 c29 -28 33 -80 10 -125 -13 -24 -22 -30 -49 -30 -49 0 -77 27 -83 80 -4 38 -1 49 22 73 32 34 68 35 100 2z m17 -246 c28 -15 51 -74 42 -113 -15 -73 -88 -108 -160 -77 -37 17 -44 24 -51 63 -18 83 24 138 104 138 24 0 53 -5 65 -11z m-11 -288 c18 -15 23 -28 23 -59 -2 -74 -10 -89 -51 -95 -75 -13 -117 38 -94 115 17 57 77 76 122 39z m-2 -242 c64 -22 82 -115 33 -167 -73 -78 -191 -30 -194 80 -1 24 8 39 35 65 39 36 71 41 126 22z"></path> 
<path fill="#15803d" d="M3382 3800 c-45 -11 -110 -58 -138 -100 -51 -79 -55 -170 -9 -260 22 -43 25 -62 25 -150 0 -90 -3 -106 -27 -153 -38 -71 -38 -157 0 -240 23 -51 27 -73 28 -165 1 -95 -1 -111 -21 -145 -26 -44 -32 -127 -12 -193 18 -63 73 -119 140 -144 252 -95 449 106 342 350 -25 57 -30 81 -30 147 0 55 6 90 19 120 46 101 47 191 2 296 -16 38 -21 70 -21 140 0 83 3 98 31 150 26 49 29 65 24 105 -10 78 -33 125 -83 174 -68 67 -168 92 -270 68z m160 -170 c42 -35 52 -73 31 -118 -20 -41 -59 -62 -117 -62 -48 0 -71 15 -87 57 -43 114 78 201 173 123z m-4 -287 c15 -20 10 -89 -8 -123 -15 -27 -83 -27 -109 -1 -45 45 -33 130 22 150 28 10 78 -4 95 -26z m-14 -227 c65 -27 84 -91 46 -153 -21 -36 -66 -63 -103 -63 -13 0 -39 10 -58 23 -66 45 -58 161 13 192 42 18 61 18 102 1z m6 -296 c30 -30 29 -123 -2 -144 -36 -25 -93 -21 -112 9 -23 35 -20 97 5 129 26 33 79 36 109 6z m30 -260 c33 -35 41 -70 28 -116 -11 -43 -45 -65 -101 -67 -82 -3 -121 39 -115 124 3 37 8 47 37 66 51 35 115 32 151 -7z"></path> 
<path fill="#15803d" d="M1004 2089 c-102 -39 -158 -122 -159 -234 0 -59 4 -78 28 -117 25 -42 27 -55 27 -148 0 -90 -3 -106 -27 -153 -39 -74 -39 -171 -1 -245 24 -46 27 -65 29 -155 1 -89 -2 -110 -21 -147 -12 -24 -25 -70 -27 -101 -5 -49 -2 -67 21 -113 49 -100 132 -146 263 -146 80 0 121 13 168 52 79 67 103 204 55 303 -36 74 -40 190 -9 287 32 100 30 200 -5 285 -36 86 -36 184 -1 277 27 73 32 151 13 207 -25 74 -99 135 -188 156 -74 17 -105 16 -166 -8z m167 -152 c58 -39 65 -124 13 -172 -69 -64 -182 -21 -186 71 -3 100 92 156 173 101z m-14 -289 c18 -16 23 -32 23 -68 0 -25 -6 -54 -14 -65 -17 -24 -71 -22 -105 3 -22 16 -26 28 -25 65 0 56 24 87 67 87 18 0 41 -9 54 -22z m7 -243 c38 -18 66 -62 66 -102 0 -21 -11 -41 -37 -66 -31 -32 -43 -37 -82 -37 -35 0 -53 6 -72 24 -52 48 -46 135 11 174 39 26 70 28 114 7z m10 -297 c20 -28 20 -106 2 -131 -22 -29 -76 -33 -109 -7 -23 18 -27 29 -27 71 0 63 23 89 79 89 30 0 44 -6 55 -22z m35 -275 c19 -21 22 -34 18 -66 -7 -48 -29 -74 -78 -89 -128 -38 -196 139 -75 193 36 16 44 16 76 3 19 -8 46 -26 59 -41z"></path> 
<path fill="#1e293b" d="M2185 2087 c-141 -68 -192 -203 -129 -343 22 -49 27 -74 28 -154 1 -80 -3 -104 -24 -155 -36 -86 -35 -191 3 -259 24 -43 27 -60 27 -141 0 -77 -4 -102 -25 -149 -31 -69 -33 -152 -6 -211 53 -118 214 -183 356 -144 57 15 137 100 154 162 18 63 7 149 -24 203 -36 62 -36 186 1 281 22 58 25 80 21 148 -3 56 -10 92 -25 120 -16 29 -24 68 -28 131 -6 85 -5 93 22 149 39 81 39 160 1 238 -44 89 -116 133 -234 142 -58 5 -75 3 -118 -18z m147 -146 c62 -24 79 -66 58 -142 -12 -42 -66 -74 -110 -64 -41 9 -81 56 -87 104 -5 36 -2 44 30 76 36 36 65 43 109 26z m16 -295 c19 -18 26 -85 13 -118 -31 -80 -155 -15 -136 71 10 47 42 74 79 67 17 -4 37 -12 44 -20z m9 -246 c10 0 53 -80 53 -98 0 -25 -24 -69 -49 -89 -25 -22 -96 -16 -126 10 -76 65 -5 213 89 186 17 -5 32 -9 33 -9z m-8 -296 c39 -32 42 -81 9 -118 -37 -40 -64 -42 -98 -7 -38 38 -39 78 -4 120 31 38 53 39 93 5z m26 -255 c43 -38 51 -65 31 -112 -21 -52 -71 -75 -126 -58 -83 25 -104 118 -38 174 44 37 87 36 133 -4z"></path> 
<path fill="#15803d" d="M3375 2083 c-51 -26 -122 -103 -140 -150 -22 -58 -16 -128 19 -211 36 -86 36 -188 0 -278 -38 -95 -38 -191 -1 -261 24 -47 27 -62 27 -158 0 -93 -3 -112 -25 -155 -42 -84 -30 -182 32 -250 46 -52 88 -77 152 -91 124 -26 243 23 293 121 39 78 38 149 -3 243 -29 66 -31 77 -27 161 3 63 10 102 23 126 11 22 20 64 23 110 4 66 1 85 -24 145 -38 94 -37 215 2 314 22 53 25 76 21 123 -9 98 -72 181 -164 214 -53 18 -171 17 -208 -3z m153 -134 c58 -20 88 -104 56 -158 -22 -38 -56 -56 -103 -55 -52 2 -89 29 -102 75 -17 54 4 108 51 131 41 21 56 22 98 7z m12 -301 c15 -16 20 -35 20 -72 0 -63 -7 -73 -45 -76 -62 -4 -74 0 -90 30 -23 45 -19 87 11 115 34 31 76 32 104 3z m-7 -239 c42 -11 77 -56 77 -99 0 -38 -36 -90 -75 -105 -41 -18 -82 -11 -120 20 -25 19 -29 29 -29 73 0 57 18 86 69 108 37 16 32 16 78 3z m21 -301 c9 -13 16 -43 16 -69 0 -39 -5 -51 -26 -68 -35 -28 -69 -26 -99 4 -33 32 -35 98 -3 132 29 32 91 32 112 1z m28 -267 c52 -58 27 -147 -47 -171 -97 -32 -177 69 -129 161 19 38 47 50 104 45 34 -3 51 -11 72 -35z"></path> 
<path fill="#ef4444" d="M2175 5503 c-11 -3 -43 -20 -72 -39 -93 -59 -125 -169 -83 -280 40 -106 52 -250 26 -307 -56 -122 -58 -162 -16 -262 27 -62 30 -81 30 -170 0 -80 -4 -109 -20 -139 -48 -95 -34 -210 34 -284 57 -62 103 -82 197 -82 91 0 134 16 194 71 52 48 68 91 69 179 0 51 -6 77 -27 121 -36 75 -39 200 -5 275 13 31 23 77 26 124 4 65 1 84 -22 137 -22 53 -26 77 -26 163 0 81 4 109 20 139 66 130 15 279 -116 337 -53 23 -151 31 -209 17z m167 -161 c27 -25 32 -36 32 -81 1 -46 -3 -56 -27 -76 -42 -37 -92 -42 -143 -16 -35 19 -43 28 -47 59 -14 115 103 187 185 114z m-19 -283 c22 -27 23 -106 1 -137 -22 -32 -83 -30 -114 3 -19 21 -22 32 -18 76 4 39 11 58 29 72 29 23 76 17 102 -14z m23 -250 c51 -48 50 -116 -4 -171 -48 -51 -142 -33 -174 32 -29 56 -23 87 22 132 38 38 43 40 86 35 28 -3 54 -13 70 -28z m-22 -280 c22 -17 26 -28 26 -70 0 -40 -5 -55 -25 -74 -28 -29 -43 -30 -90 -11 -40 17 -50 45 -41 110 5 31 13 46 29 54 35 17 72 14 101 -9z m-10 -233 c65 -27 92 -93 66 -160 -18 -49 -114 -73 -168 -42 -28 15 -62 64 -62 89 0 34 33 89 64 108 37 23 56 24 100 5z"></path> 
</g>
</svg>