<svg xmlns="http://www.w3.org/2000/svg" viewBox="0 0 444 608">
<g transform="translate(-3.2622309197651664,618.4268137462876) scale(0.1,-0.1)">
<path fill="#15803d" d="M950 5605 c-46 -21 -97 -70 -123 -120 -32 -61 -29 -163 6 -235 37 -76 38 -180 2 -282 -33 -95 -33 -169 1 -254 32 -79 39 -238 12 -289 -39 -77 -44 -173 -12 -236 25 -50 110 -116 165 -129 132 -32 266 29 313 142 24 57 21 149 -8 206 -17 35 -25 70 -29 137 -5 84 -3 95 24 157 39 90 40 173 3 255 -20 43 -28 80 -31 143 -4 74 -2 94 22 155 30 81 35 162 12 216 -19 43 -78 102 -127 126 -49 24 -183 28 -230 8z m185 -156 c30 -27 35 -37 35 -76 0 -38 -5 -50 -34 -79 -46 -46 -91 -47 -141 -3 -30 27 -35 37 -35 76 0 56 13 81 53 98 51 22 83 18 122 -16z m-16 -275 c26 -33 29 -115 5 -138 -19 -20 -82 -20 -107 -2 -39 30 -30 131 14 153 38 20 66 15 88 -13z m6 -234 c29 -11 55 -63 55 -110 0 -90 -113 -132 -185 -69 -29 26 -35 38 -35 71 0 88 80 140 165 108z m1 -305 c23 -23 25 -31 19 -78 -4 -29 -14 -58 -23 -64 -22 -18 -73 -16 -100 3 -18 13 -22 24 -22 74 0 54 2 61 28 74 40 22 70 19 98 -9z m2 -226 c65 -22 78 -153 19 -192 -43 -28 -84 -30 -126 -6 -78 43 -81 135 -8 187 35 24 68 28 115 11z"></path> 
<path fill="#1e293b" d="M3290 5603 c-59 -30 -117 -96 -134 -152 -18 -61 -10 -116 29 -211 25 -58 27 -72 22 -150 -4 -55 -15 -111 -32 -160 -31 -86 -29 -129 9 -219 17 -39 26 -82 30 -143 4 -79 3 -93 -21 -145 -33 -74 -37 -170 -9 -225 84 -169 327 -201 448 -58 65 75 74 176 24 272 -22 43 -26 63 -26 140 0 76 4 98 27 146 40 84 38 173 -5 269 -44 97 -45 196 -5 281 65 137 17 277 -120 349 -48 25 -192 29 -237 6z m207 -167 c55 -65 13 -161 -76 -173 -36 -5 -44 -2 -76 30 -29 29 -35 42 -35 79 0 23 4 48 8 54 36 52 137 58 179 10z m-30 -262 c22 -22 24 -30 18 -72 -9 -62 -20 -80 -51 -88 -85 -22 -123 136 -41 171 43 19 44 19 74 -11z m24 -251 c9 -7 22 -31 29 -52 25 -77 -21 -141 -103 -141 -90 0 -137 122 -70 182 41 37 108 43 144 11z m-5 -298 c21 -33 14 -113 -12 -132 -31 -22 -80 -16 -103 13 -23 30 -26 59 -10 101 13 35 25 43 71 43 29 0 41 -6 54 -25z m-1 -221 c9 -4 25 -25 36 -47 18 -35 19 -45 9 -83 -17 -61 -41 -79 -103 -78 -45 0 -54 4 -79 34 -16 20 -28 46 -28 63 0 37 35 104 57 110 28 7 90 8 108 1z"></path> 
<path fill="#15803d" d="M1018 3920 c-68 -12 -136 -64 -175 -135 -26 -47 -24 -168 5 -226 30 -61 31 -204 2 -297 -28 -88 -27 -190 2 -245 16 -32 22 -66 26 -144 4 -92 2 -108 -19 -155 -48 -109 -26 -237 53 -303 116 -98 311 -83 387 30 60 88 66 162 21 265 -26 58 -30 81 -30 153 0 68 5 95 24 138 45 99 43 205 -6 284 -28 46 -26 206 3 272 31 67 31 173 2 228 -57 107 -167 157 -295 135z m137 -171 c28 -25 35 -38 35 -69 0 -80 -33 -120 -99 -120 -48 0 -85 19 -110 57 -20 32 -22 40 -12 73 26 87 120 117 186 59z m-16 -275 c21 -15 23 -23 19 -77 -3 -43 -10 -63 -23 -73 -30 -22 -73 -17 -101 11 -22 22 -25 31 -19 68 10 62 29 87 68 87 18 0 43 -7 56 -16z m26 -250 c45 -49 45 -119 1 -167 -21 -23 -33 -27 -79 -27 -43 0 -58 5 -75 23 -46 49 -50 110 -8 156 44 49 123 56 161 15z m-23 -291 c20 -18 25 -101 8 -134 -16 -29 -80 -26 -110 6 -29 30 -35 119 -10 135 24 16 92 12 112 -7z m27 -249 c28 -23 31 -32 31 -79 0 -42 -5 -60 -24 -81 -20 -24 -31 -28 -80 -28 -53 -1 -60 2 -87 32 -48 54 -38 125 24 162 46 28 99 26 136 -6z"></path> 
<path fill="#1e293b" d="M3388 3920 c-175 -22 -267 -191 -194 -355 23 -51 28 -75 29 -160 1 -88 -1 -105 -22 -145 -34 -64 -35 -166 -2 -235 18 -39 25 -73 29 -153 4 -95 3 -108 -19 -150 -19 -38 -24 -62 -24 -127 0 -106 29 -158 112 -207 55 -31 63 -33 154 -33 l96 0 55 42 c77 58 102 111 96 203 -4 44 -13 84 -28 112 -19 35 -23 60 -24 138 -2 83 1 101 24 145 21 43 25 63 25 140 -1 78 -4 97 -28 141 -23 45 -27 64 -27 138 0 70 5 98 25 146 45 108 30 207 -43 284 -61 64 -135 88 -234 76z m113 -171 c31 -22 54 -86 44 -119 -4 -11 -22 -32 -41 -46 -29 -22 -41 -26 -80 -21 -52 5 -79 26 -94 72 -9 28 -8 39 10 71 12 22 29 45 38 52 25 19 90 15 123 -9z m-7 -281 c23 -33 21 -113 -4 -138 -46 -46 -130 -1 -130 71 0 54 31 89 80 89 29 0 43 -6 54 -22z m11 -234 c22 -9 45 -57 45 -94 0 -39 -25 -84 -56 -101 -35 -18 -110 -6 -133 22 -42 51 -33 140 16 168 20 12 102 14 128 5z m-19 -315 c21 -19 24 -31 22 -68 -2 -35 -9 -48 -31 -65 -27 -20 -28 -20 -62 -2 -34 19 -35 21 -35 79 0 45 4 63 17 72 25 18 59 12 89 -16z m39 -239 c11 -12 20 -41 23 -74 4 -46 1 -56 -19 -76 -53 -50 -110 -53 -156 -8 -27 26 -33 40 -33 74 0 35 5 47 35 73 29 25 44 31 84 31 35 0 53 -5 66 -20z"></path> 
<path fill="#15803d" d="M985 2201 c-54 -25 -111 -79 -130 -124 -24 -58 -19 -162 10 -222 34 -69 35 -204 3 -285 -31 -80 -32 -209 0 -267 32 -61 34 -215 4 -289 -48 -119 -35 -212 42 -287 58 -56 107 -77 188 -77 126 0 197 39 245 138 22 45 25 62 21 115 -3 38 -16 83 -32 116 -38 79 -37 197 1 290 39 96 38 166 -6 260 -33 71 -34 76 -27 163 4 63 12 101 28 131 27 51 30 152 6 208 -25 58 -83 116 -135 133 -64 22 -168 20 -218 -3z m179 -146 c53 -35 58 -118 11 -169 -20 -21 -33 -26 -75 -26 -43 0 -55 4 -77 28 -52 55 -55 97 -12 147 28 31 36 35 80 35 28 0 60 -7 73 -15z m-11 -280 c21 -21 30 -81 17 -120 -9 -28 -18 -36 -45 -41 -89 -16 -141 82 -76 147 33 32 80 39 104 14z m6 -240 c37 -19 55 -64 48 -122 -5 -51 -20 -67 -75 -83 -37 -10 -88 5 -117 33 -39 39 -24 126 27 159 44 29 79 33 117 13z m-24 -289 c39 -16 51 -46 42 -102 -9 -52 -24 -65 -70 -62 -60 5 -81 37 -67 105 10 45 26 65 58 72 1 1 18 -5 37 -13z m42 -261 c25 -18 47 -84 36 -111 -3 -11 -18 -34 -31 -51 -28 -38 -68 -43 -127 -19 -41 17 -55 42 -55 95 0 36 5 43 43 70 47 34 100 40 134 16z"></path> 
<path fill="#1e293b" d="M3335 2205 c-56 -30 -93 -64 -119 -109 -34 -59 -37 -167 -5 -236 30 -64 33 -249 5 -300 -12 -21 -21 -63 -24 -105 -4 -60 0 -81 22 -136 37 -93 37 -228 1 -317 -27 -66 -32 -141 -14 -189 5 -15 31 -49 57 -76 131 -133 352 -111 437 45 24 45 27 58 22 117 -3 41 -14 86 -31 121 -22 46 -26 69 -26 142 0 74 4 96 27 145 38 83 38 176 0 255 -24 50 -27 69 -27 151 0 80 4 103 25 149 56 121 12 270 -97 328 -57 31 -207 40 -253 15z m181 -156 c84 -51 35 -195 -65 -192 -44 1 -97 54 -107 108 -6 32 -3 40 27 71 26 27 41 34 72 34 23 0 54 -9 73 -21z m-8 -281 c7 -7 12 -38 12 -69 0 -48 -4 -60 -22 -73 -24 -17 -66 -21 -83 -8 -34 24 -45 114 -18 144 19 21 92 25 111 6z m23 -257 c23 -23 29 -38 29 -71 0 -46 -21 -94 -45 -104 -31 -12 -96 -6 -123 11 -38 24 -42 32 -42 84 0 41 4 51 35 78 49 43 104 43 146 2z m-16 -291 c18 -35 12 -94 -13 -122 -15 -18 -67 -24 -89 -10 -15 10 -33 57 -33 88 0 37 42 74 84 74 29 0 38 -5 51 -30z m19 -251 c71 -84 -4 -203 -107 -170 -46 16 -68 41 -74 90 -5 36 -2 44 30 76 30 30 42 35 80 35 38 0 49 -5 71 -31z"></path> 
<path fill="#ef4444" d="M2124 5593 c-49 -28 -67 -45 -104 -91 -33 -42 -35 -48 -34 -120 1 -62 6 -85 25 -117 20 -34 24 -56 27 -146 4 -95 2 -111 -19 -155 -34 -70 -34 -181 0 -244 21 -38 25 -63 29 -152 4 -91 1 -113 -16 -150 -44 -97 -46 -106 -32 -162 35 -136 134 -204 285 -194 73 4 124 33 179 101 26 33 31 48 34 107 4 65 -15 146 -40 175 -4 5 -8 58 -8 118 0 96 3 114 23 146 18 30 22 50 22 121 0 74 -4 93 -27 139 -25 47 -28 64 -28 146 0 82 3 100 27 147 60 119 16 260 -101 320 -59 30 -199 37 -242 11z m206 -148 c24 -23 30 -37 30 -72 0 -35 -6 -50 -34 -80 -30 -33 -39 -37 -84 -37 -61 0 -98 22 -118 71 -20 48 -10 86 33 124 33 28 41 31 90 27 42 -4 60 -11 83 -33z m-44 -251 c27 -7 47 -71 38 -118 -8 -43 -31 -65 -77 -73 -31 -5 -40 -1 -67 25 -31 31 -35 53 -24 111 10 48 67 72 130 55z m19 -248 c42 -18 55 -42 55 -105 0 -66 -35 -110 -96 -118 -143 -19 -201 166 -70 223 40 17 69 17 111 0z m7 -303 c32 -29 21 -141 -16 -165 -6 -4 -27 -8 -47 -8 -43 0 -89 42 -89 82 0 50 12 86 34 96 33 17 97 14 118 -5z m31 -251 c15 -15 22 -38 25 -80 4 -55 2 -62 -26 -93 -27 -30 -35 -33 -89 -34 -82 0 -108 19 -124 90 -11 51 -11 58 8 83 46 63 158 81 206 34z"></path> 
<path fill="#ef4444" d="M2166 3905 c-54 -21 -102 -59 -131 -106 -36 -56 -36 -170 0 -243 40 -83 33 -266 -12 -335 -22 -35 -13 -142 18 -206 21 -43 24 -64 24 -155 0 -75 -5 -115 -16 -140 -44 -95 -48 -123 -27 -192 15 -52 77 -121 132 -146 24 -12 74 -24 110 -28 56 -6 71 -3 108 16 61 31 97 67 124 125 31 64 30 124 -1 200 -19 45 -26 85 -31 160 -5 94 -3 104 22 159 38 84 38 172 1 244 -24 47 -27 62 -27 157 0 86 4 113 20 145 22 44 29 168 12 211 -17 43 -69 95 -115 117 -58 28 -161 36 -211 17z m169 -141 c31 -20 48 -74 40 -124 -18 -107 -182 -124 -230 -24 -20 43 -19 73 5 112 37 60 123 76 185 36z m-9 -285 c28 -31 24 -137 -6 -161 -23 -18 -95 -25 -116 -10 -21 14 -34 51 -34 97 0 63 31 95 93 95 32 0 49 -6 63 -21z m26 -250 c29 -35 41 -95 26 -135 -34 -95 -195 -100 -234 -7 -18 42 -11 104 15 127 54 49 159 57 193 15z m-21 -286 c6 -6 13 -35 16 -65 7 -69 -12 -103 -62 -112 -66 -13 -104 24 -105 102 0 73 24 96 92 90 27 -3 54 -10 59 -15z m16 -249 c11 -7 27 -29 33 -49 27 -83 -21 -154 -110 -163 -46 -4 -54 -2 -81 24 -27 26 -49 77 -49 116 0 28 48 76 88 86 42 12 87 6 119 -14z"></path> 
<path fill="#ef4444" d="M2213 2209 c-71 -13 -162 -84 -177 -139 -25 -87 -25 -95 -5 -160 11 -35 25 -68 32 -72 8 -5 11 -41 10 -122 -2 -94 -6 -123 -24 -162 -33 -69 -31 -170 6 -248 25 -55 27 -66 23 -165 -3 -85 -8 -113 -25 -141 -52 -86 -38 -186 37 -261 62 -62 104 -79 197 -79 77 0 109 11 171 57 86 64 106 212 41 305 -28 39 -28 237 0 282 35 56 44 120 26 189 -8 33 -24 75 -35 92 -17 27 -20 50 -20 131 1 87 4 104 25 139 20 33 25 53 25 111 0 99 -29 159 -99 208 -43 30 -140 46 -208 35z m139 -141 c23 -11 48 -60 48 -92 0 -72 -51 -126 -119 -126 -76 0 -130 49 -131 118 0 56 34 99 90 113 28 7 86 1 112 -13z m-27 -280 c31 -14 39 -42 33 -110 -7 -65 -26 -81 -88 -75 -59 7 -80 33 -80 102 0 37 5 56 18 67 30 27 78 34 117 16z m24 -252 c33 -18 51 -54 51 -106 0 -30 -7 -46 -34 -74 -29 -31 -39 -36 -80 -36 -52 0 -100 20 -116 49 -5 11 -10 40 -10 65 0 35 6 51 28 74 15 16 34 32 42 35 29 11 91 7 119 -7z m-7 -306 c27 -27 30 -36 25 -71 -9 -65 -30 -89 -80 -89 -50 0 -59 5 -81 47 -28 56 -17 115 27 133 43 17 78 11 109 -20z m28 -246 c12 -12 22 -40 25 -74 6 -51 4 -58 -23 -87 -35 -38 -82 -49 -136 -30 -46 16 -76 62 -76 118 0 31 6 39 48 68 40 27 54 31 95 28 30 -3 56 -11 67 -23z"></path> 
</g>
</svg>