<svg xmlns="http://www.w3.org/2000/svg" viewBox="0 0 443 608">
<g transform="translate(0,608) scale(0.1,-0.1)">
<path fill="#1e293b"  d="M2033 4774 c-6 -17 0 -113 17 -252 7 -58 8 -104 2 -120 -5 -15 -5 -38 -1 -52 12 -44 10 -179 -5 -213 -7 -18 -14 -61 -15 -95 -1 -76 -17 -149 -37 -181 -19 -28 -122 -76 -184 -85 -203 -30 -431 -88 -466 -117 -44 -36 17 -136 126 -207 112 -74 188 -90 267 -57 53 22 126 20 148 -5 16 -18 17 -32 11 -122 -9 -136 -38 -204 -93 -214 -35 -7 -39 -5 -92 54 -97 105 -118 106 -150 10 -14 -40 -34 -83 -45 -96 -54 -60 -139 -82 -332 -85 -143 -2 -155 -9 -181 -96 -30 -103 -17 -278 42 -558 46 -218 54 -253 60 -262 5 -10 22 -84 35 -161 10 -58 80 -251 115 -314 56 -104 117 -166 163 -166 52 0 181 147 208 238 19 60 17 176 -2 232 -18 52 -90 203 -115 240 -31 48 -117 216 -147 290 -73 179 -56 247 72 289 48 16 167 39 207 41 3 0 21 -14 39 -32 32 -30 32 -33 19 -57 -10 -18 -32 -32 -68 -43 -29 -10 -59 -23 -67 -29 -19 -16 -17 -80 4 -105 30 -38 57 -45 184 -45 190 0 259 -26 243 -92 -12 -45 -79 -63 -226 -59 -108 3 -129 1 -143 -14 -33 -32 -4 -96 70 -155 36 -29 38 -29 170 -29 156 0 150 4 179 -118 30 -125 78 -171 188 -179 97 -7 100 -3 108 164 5 116 9 144 25 166 24 33 36 35 223 42 85 4 158 8 163 11 4 3 8 23 8 46 0 36 -6 46 -62 102 -57 57 -68 63 -116 70 -30 4 -98 6 -153 5 -93 -1 -100 0 -119 22 -25 31 -22 57 11 82 36 26 94 36 214 37 68 0 106 5 118 14 17 13 14 18 -35 76 -90 105 -98 118 -98 172 0 44 4 53 45 97 55 59 125 86 242 95 110 7 190 -7 223 -39 24 -25 25 -29 24 -158 -1 -73 -8 -172 -17 -222 -8 -49 -18 -119 -21 -155 -4 -36 -13 -117 -22 -180 -43 -318 -55 -359 -114 -393 -39 -23 -83 -17 -131 18 -125 93 -185 119 -209 90 -7 -9 -15 -48 -18 -88 -4 -64 -2 -74 17 -91 11 -11 21 -24 21 -29 0 -6 23 -44 51 -86 155 -231 254 -343 319 -361 65 -18 153 -12 190 12 38 27 89 118 125 228 13 41 34 102 45 135 70 203 134 552 175 951 20 203 27 236 70 327 43 91 42 128 -6 200 -30 46 -152 153 -229 203 -25 16 -64 45 -88 66 -82 70 -114 62 -217 -52 -126 -140 -167 -135 -360 39 -88 79 -148 112 -169 91 -5 -5 -11 -66 -14 -135 -4 -116 -7 -129 -32 -169 -23 -35 -39 -48 -84 -65 -31 -12 -79 -21 -105 -21 -43 0 -53 4 -75 31 -30 35 -33 73 -11 134 8 22 15 45 15 51 0 11 26 67 89 192 22 44 37 59 86 87 107 61 145 76 223 91 42 8 93 19 113 24 20 6 69 10 108 10 113 0 129 17 92 102 -18 43 -66 88 -185 176 -56 42 -109 50 -169 27 -99 -38 -114 28 -35 158 43 72 68 134 68 172 0 11 -12 44 -27 73 -56 111 -392 392 -468 392 -9 0 -18 -7 -22 -16z m87 -110 c0 -19 -16 -10 -31 17 -10 19 -9 20 10 9 12 -6 21 -18 21 -26z m-699 -1045 c-16 -6 -28 -6 -35 1 -7 7 1 10 25 9 32 0 33 -1 10 -10z m1129 -321 c0 -10 -2 -18 -5 -18 -7 0 -35 57 -35 72 1 19 40 -34 40 -54z m-577 -188 c-3 -11 -7 -20 -9 -20 -2 0 -4 9 -4 20 0 11 4 20 9 20 5 0 7 -9 4 -20z m226 -316 c26 -21 31 -33 31 -69 0 -54 -25 -87 -85 -109 -43 -17 -46 -17 -78 1 -17 10 -40 35 -50 55 -16 33 -16 40 -4 71 33 77 125 103 186 51z m938 -266 c-3 -7 -5 -2 -5 12 0 14 2 19 5 13 2 -7 2 -19 0 -25z m-547 -698 c0 -5 6 -10 14 -10 7 0 19 -7 26 -15 22 -27 -14 -18 -40 10 -13 14 -18 25 -12 25 7 0 12 -4 12 -10z"/> 
</g>
</svg>