<svg xmlns="http://www.w3.org/2000/svg" viewBox="0 0 443 607">
<g transform="translate(-5,607) scale(0.1,-0.1)">
<path fill="#1e293b" d="M1991 5586 c-11 -14 -12 -41 -5 -149 13 -195 10 -366 -8 -383 -31 -31 -115 -41 -389 -49 -260 -6 -277 -6 -339 14 -87 28 -108 27 -120 -5 -14 -36 -12 -99 4 -137 18 -44 154 -167 222 -202 52 -27 60 -28 157 -22 56 3 140 14 187 25 47 11 121 25 165 31 44 7 112 19 150 26 39 8 104 17 145 21 41 3 102 12 135 20 33 8 87 14 120 14 33 0 88 4 122 9 35 5 166 15 291 22 204 11 234 11 278 -3 27 -9 77 -22 111 -29 59 -12 65 -12 90 7 15 11 35 37 46 58 18 33 18 43 8 89 -29 128 -188 247 -330 247 -25 0 -82 -7 -126 -15 -177 -32 -312 -54 -353 -59 -40 -4 -45 -2 -63 27 -18 29 -19 43 -13 158 9 177 8 181 -79 224 -82 40 -173 61 -303 71 -77 6 -91 4 -103 -10z"></path> 
<path fill="#1e293b" d="M2487 4656 c-29 -15 -47 -55 -54 -119 -5 -44 -1 -62 22 -107 15 -30 49 -80 75 -110 46 -54 63 -80 95 -149 15 -32 15 -37 0 -72 -10 -21 -28 -48 -41 -60 -13 -12 -24 -30 -24 -39 0 -19 78 -96 140 -137 25 -16 76 -51 114 -77 37 -26 79 -52 93 -57 14 -5 42 -22 62 -38 57 -45 92 -48 132 -13 111 98 129 294 42 462 -18 35 -33 68 -33 73 0 15 -189 236 -212 248 -13 7 -41 28 -64 48 -44 39 -74 58 -174 110 -75 39 -140 53 -173 37z"></path> 
<path fill="#1e293b" d="M1753 4565 c-59 -27 -80 -89 -48 -145 20 -36 18 -101 -5 -162 -21 -54 -28 -69 -88 -176 -34 -61 -123 -159 -221 -244 -48 -41 -53 -49 -47 -75 4 -15 18 -39 31 -53 52 -52 216 -32 382 46 64 31 94 54 186 148 60 61 124 134 142 161 17 28 40 57 50 65 34 28 65 111 65 174 0 59 -1 61 -51 107 -27 27 -69 59 -92 72 -23 13 -65 38 -92 56 -61 38 -159 50 -212 26z"></path> 
<path fill="#ef4444" d="M1949 3162 c-32 -14 -85 -68 -117 -120 -46 -74 -59 -138 -44 -211 19 -91 15 -129 -18 -188 -68 -121 -12 -183 168 -183 143 -1 192 -20 192 -77 0 -13 -11 -35 -25 -48 -20 -21 -34 -25 -85 -25 -60 0 -60 0 -60 -29 0 -47 46 -87 109 -96 88 -12 123 -64 76 -114 -8 -8 -42 -17 -77 -20 l-63 -6 1 -48 c1 -26 4 -50 7 -54 3 -3 27 -9 53 -14 65 -12 94 -33 94 -68 0 -47 -30 -64 -113 -65 -83 -1 -112 13 -145 66 -18 29 -26 67 -47 236 -7 54 -50 136 -98 186 -38 41 -50 47 -78 44 -42 -4 -52 -35 -45 -133 6 -76 42 -302 55 -350 5 -16 15 -64 22 -104 20 -115 20 -115 207 -108 145 6 156 6 183 -14 34 -24 39 -67 10 -93 -15 -14 -54 -19 -213 -28 -189 -11 -194 -10 -235 11 -30 15 -44 29 -49 49 -36 162 -66 222 -119 232 -75 15 -115 -30 -115 -131 0 -68 -15 -116 -42 -130 -11 -6 -51 -12 -90 -14 -80 -4 -108 -22 -108 -68 0 -73 98 -192 196 -238 44 -21 65 -37 69 -52 2 -12 6 -81 7 -153 3 -126 4 -132 33 -179 50 -80 141 -131 205 -115 46 11 53 58 45 302 l-6 218 24 24 c32 32 78 43 212 51 136 9 192 -3 201 -42 10 -37 -7 -76 -38 -91 -21 -10 -159 -28 -240 -32 -22 -1 4 -187 33 -242 14 -26 63 -48 106 -48 62 1 189 25 337 64 168 45 217 49 246 21 11 -11 40 -69 65 -128 24 -60 53 -123 64 -140 34 -56 103 -114 155 -131 98 -32 165 -16 236 56 71 72 95 126 180 408 51 166 58 187 87 242 37 71 39 159 5 203 -57 73 -340 245 -402 245 -17 0 -47 -14 -75 -36 -72 -54 -167 -76 -344 -77 -130 -1 -144 0 -157 18 -20 27 -17 59 6 80 16 15 46 20 143 27 177 12 218 26 292 102 33 34 71 85 85 112 14 27 30 56 36 64 6 8 17 39 24 68 24 103 -23 198 -128 255 -57 31 -104 37 -298 40 -147 2 -173 12 -169 65 3 37 1 36 37 57 28 16 60 20 238 24 113 3 211 10 218 14 6 5 12 28 12 54 0 48 -7 57 -113 148 -45 39 -54 74 -33 119 20 43 21 138 0 181 -18 39 -71 83 -139 115 -35 17 -72 25 -132 28 -102 6 -107 -2 -68 -96 39 -95 43 -164 15 -225 -24 -50 -99 -140 -132 -158 -32 -17 -108 7 -108 35 0 11 -7 30 -15 40 -21 28 -20 34 30 111 57 89 58 108 5 129 -22 9 -53 16 -68 16 -15 0 -32 4 -38 8 -15 11 -54 90 -54 112 0 38 -40 59 -81 42z m536 -102 c3 -5 1 -10 -4 -10 -6 0 -11 5 -11 10 0 6 2 10 4 10 3 0 8 -4 11 -10z m207 -870 c17 -21 19 -36 16 -130 -5 -175 -36 -210 -194 -218 -89 -4 -93 -4 -118 21 -50 50 -22 90 71 101 73 8 103 27 103 66 0 37 -7 41 -99 51 -66 7 -79 12 -98 36 -27 34 -29 55 -5 75 26 24 46 27 180 25 118 -2 125 -3 144 -27z m-562 -470 c0 -5 -7 -10 -15 -10 -8 0 -15 5 -15 10 0 6 7 10 15 10 8 0 15 -4 15 -10z m770 -154 c0 -2 -8 -10 -17 -17 -16 -13 -17 -12 -4 4 13 16 21 21 21 13z m-1634 -153 c-3 -3 -13 -2 -23 2 -17 7 -17 8 2 15 19 7 34 -5 21 -17z m1701 -38 l36 -36 -6 -107 c-6 -139 -48 -317 -83 -355 -28 -30 -32 -31 -67 -18 -33 13 -47 58 -47 151 0 106 -19 160 -80 231 -47 53 -51 63 -48 101 4 58 26 68 157 68 l103 0 35 -35z m-456 -46 c23 -25 29 -40 29 -76 0 -143 -141 -169 -174 -32 -6 27 15 101 35 126 6 7 27 13 46 13 26 0 42 -8 64 -31z m29 -253 c0 -2 -7 -6 -15 -10 -8 -3 -15 -1 -15 4 0 6 7 10 15 10 8 0 15 -2 15 -4z"></path> 
</g>
</svg>