<svg xmlns="http://www.w3.org/2000/svg" viewBox="0 0 443 608">
<g transform="translate(1.7338551859099804,608) scale(0.1,-0.1)">
<path fill="#15803d" d="M991 5348 c-49 -26 -71 -44 -97 -85 -38 -59 -64 -139 -64 -195 0 -45 31 -143 60 -190 18 -30 20 -51 20 -201 l0 -169 -32 -71 c-29 -63 -33 -82 -33 -158 0 -79 3 -90 38 -157 l37 -71 0 -170 0 -169 -32 -58 c-29 -55 -31 -67 -32 -159 -1 -93 1 -104 29 -154 34 -61 90 -113 155 -143 56 -25 195 -30 254 -9 59 21 129 91 161 163 25 56 27 69 23 147 -4 71 -11 98 -37 150 l-31 63 0 182 c0 158 2 185 18 211 62 102 64 198 6 327 l-35 78 3 172 c4 163 5 177 31 236 38 86 44 147 22 230 -16 59 -26 74 -84 133 -56 55 -75 68 -127 82 -33 9 -90 17 -125 17 -54 0 -76 -6 -128 -32z m227 -162 c34 -18 68 -54 76 -83 23 -73 -32 -174 -104 -193 -90 -24 -171 26 -184 114 -10 62 7 109 52 146 29 24 46 30 85 30 26 0 60 -6 75 -14z m-4 -407 c23 -27 26 -39 26 -114 0 -101 -9 -128 -48 -144 -44 -18 -82 -10 -106 22 -18 24 -21 43 -21 122 0 85 2 96 24 119 36 38 91 36 125 -5z m14 -373 c125 -65 98 -240 -43 -275 -43 -11 -52 -10 -93 11 -65 33 -85 64 -84 134 0 66 18 97 72 125 41 22 110 25 148 5z m-6 -396 c30 -30 30 -30 26 -131 -3 -92 -5 -102 -27 -120 -17 -14 -36 -19 -65 -17 -60 4 -86 47 -86 143 0 118 21 153 93 154 19 1 39 -9 59 -29z m7 -375 c74 -37 105 -115 77 -189 -21 -54 -37 -69 -100 -90 -93 -31 -162 12 -186 115 -11 51 -11 61 6 95 37 75 131 107 203 69z"></path> 
<path fill="#1e293b" d="M2938 5370 c-32 -9 -105 -59 -135 -91 -12 -13 -33 -47 -47 -75 -22 -43 -26 -66 -26 -134 0 -69 5 -92 30 -150 43 -98 52 -154 48 -297 -3 -125 -4 -130 -42 -208 -35 -73 -38 -86 -34 -147 3 -53 11 -81 41 -138 l37 -71 0 -175 0 -176 -32 -71 c-28 -62 -33 -83 -32 -152 0 -94 21 -149 80 -215 64 -70 121 -93 244 -98 l105 -4 63 41 c105 69 148 158 139 292 -4 58 -12 90 -37 139 l-32 64 0 160 c0 141 3 169 22 221 47 128 52 149 46 207 -3 34 -19 86 -41 132 l-35 75 0 166 c0 154 2 169 23 213 56 112 60 220 11 319 -33 68 -119 145 -186 167 -52 17 -164 20 -210 6z m194 -202 c62 -44 79 -151 34 -205 -57 -67 -144 -78 -207 -26 -41 35 -52 67 -44 136 6 45 13 64 34 83 50 47 127 52 183 12z m-35 -376 c40 -25 58 -184 28 -242 -29 -56 -126 -49 -143 9 -4 14 -7 62 -7 106 0 103 17 135 73 135 20 0 42 -4 49 -8z m27 -392 c34 -15 48 -30 65 -65 26 -56 26 -75 1 -125 -28 -54 -68 -80 -125 -80 -97 0 -155 55 -155 149 0 43 5 56 29 81 27 29 88 58 124 59 10 1 38 -8 61 -19z m-14 -388 c28 -23 42 -98 34 -177 -8 -74 -25 -95 -76 -95 -70 0 -94 49 -86 179 2 50 9 75 22 90 24 26 76 28 106 3z m18 -382 c32 -14 47 -29 59 -57 42 -101 19 -175 -66 -212 -61 -26 -72 -26 -120 -1 -52 26 -81 77 -81 144 0 64 20 94 82 125 53 26 71 26 126 1z"></path> 
<path fill="#1e293b" d="M1077 2950 c-147 -38 -237 -167 -225 -324 4 -47 16 -85 42 -138 l36 -73 0 -161 c0 -157 -1 -163 -29 -226 -16 -35 -35 -91 -42 -124 -11 -52 -10 -66 6 -114 10 -30 28 -75 40 -100 19 -38 24 -68 30 -206 l7 -161 -33 -74 c-30 -67 -33 -83 -33 -174 -1 -77 3 -108 17 -136 52 -105 159 -179 269 -187 111 -8 148 3 222 61 94 75 121 132 120 252 0 80 -4 99 -33 165 -34 74 -34 74 -35 245 l-1 170 30 55 c28 50 30 63 30 150 -1 86 -4 102 -33 162 l-32 68 0 175 c0 171 1 177 27 228 36 70 44 190 18 268 -21 62 -105 153 -169 183 -45 21 -173 30 -229 16z m162 -188 c55 -27 76 -65 75 -128 -2 -90 -57 -144 -146 -144 -78 0 -138 68 -138 157 0 102 114 164 209 115z m-20 -387 c35 -18 41 -38 41 -142 0 -73 -3 -85 -26 -112 -34 -41 -75 -42 -115 -2 -27 28 -29 34 -29 111 0 135 47 188 129 145z m50 -410 c57 -38 76 -107 46 -164 -49 -96 -164 -118 -238 -46 -46 44 -55 90 -33 150 20 50 32 62 83 81 49 18 92 12 142 -21z m-32 -375 c36 -33 42 -154 11 -232 -7 -20 -20 -29 -44 -34 -44 -8 -60 -1 -85 38 -18 29 -20 44 -15 122 3 64 10 93 22 107 23 26 84 25 111 -1z m29 -395 c28 -18 64 -85 64 -118 0 -40 -28 -94 -60 -117 -67 -48 -152 -34 -201 32 -95 132 61 292 197 203z"></path> 
<path fill="#15803d" d="M2980 2946 c-89 -25 -143 -68 -192 -151 -20 -35 -23 -53 -23 -145 1 -98 3 -109 34 -175 l34 -70 -2 -170 c-1 -169 -2 -170 -33 -233 -54 -109 -47 -222 23 -336 17 -27 19 -52 19 -205 0 -167 -1 -176 -24 -216 -30 -50 -51 -160 -43 -226 12 -96 81 -190 175 -236 48 -24 69 -28 132 -27 144 3 219 41 282 145 61 100 60 187 -2 330 -29 66 -30 71 -30 237 l0 170 35 73 c29 61 35 85 35 139 0 56 -6 76 -40 145 l-40 80 0 171 0 171 32 69 c42 91 46 200 9 282 -27 60 -104 135 -166 163 -55 24 -159 31 -215 15z m193 -194 c37 -33 60 -92 53 -136 -15 -92 -78 -142 -168 -134 -79 8 -124 53 -135 138 -9 64 59 156 120 162 45 4 108 -10 130 -30z m-51 -373 c37 -20 50 -73 42 -167 -8 -101 -23 -122 -84 -122 -30 0 -47 7 -65 25 -22 22 -25 32 -25 104 0 82 10 123 37 153 18 20 64 23 95 7z m36 -399 c64 -39 92 -134 59 -200 -38 -76 -182 -97 -243 -35 -24 23 -44 75 -44 112 0 105 137 179 228 123z m-10 -384 c22 -22 32 -86 25 -164 -5 -64 -9 -76 -35 -97 -37 -31 -65 -31 -103 -1 -29 23 -30 27 -33 120 -4 104 7 138 51 156 27 12 77 4 95 -14z m26 -397 c32 -25 66 -89 66 -122 0 -66 -50 -127 -120 -148 -54 -16 -88 -4 -137 47 -38 39 -43 50 -43 92 0 90 63 152 156 152 37 0 59 -6 78 -21z"></path> 
</g>
</svg>