<svg xmlns="http://www.w3.org/2000/svg" viewBox="0 0 443 608">
<g transform="translate(15,619.7338918099991) scale(0.1,-0.1)">
<path fill="#1e293b" d="M1885 5485 c-240 -43 -470 -177 -595 -346 -249 -334 -275 -794 -67 -1150 47 -80 125 -172 197 -233 153 -128 199 -153 365 -199 144 -39 344 -49 476 -22 95 19 216 72 310 136 137 93 283 271 340 414 12 33 26 65 30 70 4 6 19 60 34 120 26 102 27 120 22 260 -3 95 -11 170 -22 205 -9 30 -20 69 -24 85 -12 46 -96 214 -136 270 -83 118 -296 284 -432 336 -90 35 -273 69 -362 68 -36 0 -97 -7 -136 -14z m549 -310 c49 -21 171 -138 218 -209 27 -42 38 -70 38 -96 0 -36 -3 -39 -52 -60 -34 -15 -87 -55 -152 -116 -112 -105 -120 -108 -246 -103 -115 6 -124 16 -124 151 -1 121 8 141 111 248 35 36 73 85 84 110 19 40 63 90 80 90 4 0 23 -7 43 -15z m-717 -10 c12 -8 24 -28 28 -44 6 -29 32 -61 140 -176 31 -33 61 -70 66 -83 5 -13 9 -64 9 -113 0 -113 -14 -144 -67 -153 -56 -9 -158 -7 -185 3 -13 5 -63 48 -113 95 -49 47 -118 102 -152 121 -51 29 -63 41 -63 61 0 93 201 303 290 304 14 0 35 -7 47 -15z m653 -754 c32 -12 80 -46 137 -99 49 -44 106 -87 128 -96 88 -37 95 -71 35 -163 -44 -67 -163 -183 -212 -208 -34 -17 -66 -19 -86 -6 -7 4 -26 34 -41 67 -17 35 -62 94 -109 145 -90 98 -105 131 -106 236 -1 83 20 123 70 134 58 13 134 9 184 -10z m-430 -9 c20 -16 22 -27 22 -122 1 -124 -7 -146 -92 -235 -63 -66 -110 -135 -110 -162 0 -29 -31 -53 -70 -53 -50 0 -115 45 -191 132 -140 163 -147 210 -36 261 29 14 88 58 134 101 44 42 92 80 105 85 12 6 66 10 119 10 79 1 101 -2 119 -17z"></path> 
<path fill="#15803d" d="M1902 2829 c-60 -9 -128 -32 -242 -80 -30 -13 -96 -54 -147 -91 -200 -147 -305 -315 -375 -598 -8 -35 -13 -112 -13 -210 1 -136 4 -167 28 -252 46 -168 126 -314 239 -433 42 -45 94 -93 115 -106 114 -76 154 -98 218 -122 133 -50 232 -70 375 -75 152 -5 226 9 370 72 294 128 517 450 552 799 30 289 -62 568 -259 787 -96 107 -269 227 -377 262 -155 49 -347 68 -484 47z m-139 -306 c8 -10 20 -37 26 -60 8 -30 35 -67 97 -135 115 -125 116 -128 112 -254 -3 -89 -6 -106 -24 -124 -25 -25 -105 -36 -189 -25 -55 6 -60 10 -163 106 -75 69 -118 102 -145 110 -80 21 -96 68 -50 147 59 103 159 195 249 231 63 24 68 25 87 4z m741 -23 c40 -27 145 -138 198 -210 27 -36 38 -85 25 -107 -5 -7 -33 -25 -63 -40 -30 -15 -88 -59 -128 -97 -125 -121 -135 -126 -246 -126 -83 0 -132 23 -141 65 -13 60 -9 185 6 223 9 20 44 66 78 102 89 92 95 101 116 161 28 78 73 86 155 29z m-554 -748 c43 -21 64 -82 55 -157 -3 -27 -7 -64 -8 -82 -2 -24 -22 -54 -89 -127 -70 -79 -88 -105 -98 -146 -29 -122 -128 -102 -281 57 -81 84 -123 153 -114 185 11 34 36 59 80 78 22 10 78 54 124 98 53 52 98 86 125 96 57 20 162 19 206 -2z m480 1 c14 -9 64 -53 111 -99 53 -50 98 -84 116 -88 39 -9 86 -58 86 -90 0 -55 -151 -231 -241 -281 -78 -44 -103 -34 -143 55 -11 25 -53 79 -93 120 -108 112 -113 120 -121 206 -9 87 7 157 39 179 31 22 213 21 246 -2z"></path> 
</g>
</svg>