<svg xmlns="http://www.w3.org/2000/svg" viewBox="0 0 443 608">
<g transform="translate(0,608) scale(0.1,-0.1)">
<path fill="#1e293b"  d="M2600 4359 c-56 -21 -175 -61 -310 -104 -259 -82 -462 -110 -742 -103 -131 4 -191 2 -197 -6 -37 -48 4 -158 98 -258 81 -87 126 -108 235 -108 112 0 175 13 273 56 74 33 88 36 138 29 63 -7 110 -40 131 -92 18 -41 17 -121 -1 -248 -8 -55 -15 -128 -15 -162 0 -81 -19 -163 -43 -190 -30 -33 -99 -32 -144 3 -33 25 -99 119 -142 200 -11 22 -49 76 -85 120 -114 142 -177 159 -282 79 -26 -20 -34 -35 -40 -71 -8 -58 18 -117 92 -210 28 -36 59 -89 70 -120 17 -50 17 -58 3 -82 -36 -65 -181 -102 -404 -102 -113 0 -134 -2 -147 -17 -30 -34 -48 -83 -60 -157 -10 -65 -8 -91 12 -217 40 -256 138 -530 262 -733 73 -119 105 -163 172 -234 39 -41 57 -52 81 -52 30 0 95 35 180 98 46 34 190 75 360 103 108 17 170 32 290 68 115 35 205 53 230 47 15 -4 54 -42 101 -99 41 -50 94 -107 117 -126 40 -32 45 -33 110 -28 51 3 76 10 103 30 49 34 116 126 163 224 48 98 149 393 191 558 17 66 37 140 45 165 8 25 24 87 35 139 13 60 32 116 55 157 39 69 44 116 19 154 -9 14 -65 74 -123 133 -111 114 -243 216 -283 219 -12 1 -78 -21 -144 -50 -144 -61 -224 -82 -320 -82 -120 0 -131 42 -59 227 25 63 45 129 45 146 0 36 -19 74 -68 138 -29 38 -33 50 -29 88 3 24 10 47 17 51 6 4 57 13 113 20 209 25 300 60 313 118 3 15 8 33 10 40 2 8 -5 33 -15 57 -20 44 -105 116 -212 178 -57 33 -121 35 -199 6z m-1183 -276 c3 -7 -4 -9 -16 -6 -12 3 -18 9 -15 15 7 11 26 6 31 -9z m158 -583 c-3 -5 -10 -10 -16 -10 -5 0 -9 5 -9 10 0 6 7 10 16 10 8 0 12 -4 9 -10z m1446 -503 c18 -12 39 -34 46 -47 15 -30 16 -140 2 -195 -6 -22 -14 -62 -19 -88 -11 -61 -106 -349 -133 -402 -11 -22 -31 -55 -45 -72 -31 -42 -77 -44 -154 -8 -73 34 -108 32 -240 -16 -128 -46 -228 -72 -340 -88 -42 -6 -111 -21 -153 -33 -70 -20 -79 -21 -118 -8 -64 23 -68 47 -27 183 52 174 79 282 101 412 26 148 43 178 116 199 38 12 72 -56 84 -167 6 -50 15 -99 20 -109 6 -10 29 -30 52 -44 60 -38 97 -75 97 -97 0 -11 -14 -42 -31 -68 -17 -28 -29 -58 -27 -71 3 -22 7 -23 71 -21 127 4 242 87 357 256 47 70 61 134 36 172 -20 31 -113 85 -146 85 -14 0 -42 11 -63 25 -45 31 -49 69 -13 112 20 24 41 33 118 50 51 12 127 27 168 34 41 6 84 15 95 20 41 16 111 10 146 -14z m-1364 -289 c31 -29 31 -111 -1 -240 -29 -116 -56 -158 -101 -158 -50 0 -137 104 -161 192 -27 102 -11 156 58 201 36 23 53 27 112 27 58 0 74 -4 93 -22z m1344 -475 c-8 -15 -10 -15 -11 -2 0 17 10 32 18 25 2 -3 -1 -13 -7 -23z"/> 
</g>
</svg>