<svg xmlns="http://www.w3.org/2000/svg" viewBox="0 0 443 608">
<g transform="translate(-9.004446093759148,605.7488430344954) scale(0.1,-0.1)">
<path fill="#1e293b" d="M2380 4373 c-71 -73 -130 -176 -130 -226 0 -18 24 -71 61 -136 58 -99 63 -112 72 -196 13 -123 1 -164 -68 -232 -91 -92 -128 -62 -138 112 -5 88 -6 91 -40 120 -20 16 -71 43 -114 59 -43 15 -92 35 -110 43 -17 8 -44 13 -59 11 -25 -3 -31 -11 -49 -63 -12 -33 -27 -73 -34 -90 -8 -16 -27 -59 -43 -95 -15 -36 -36 -78 -45 -95 -23 -42 -68 -135 -81 -167 -20 -49 -53 -62 -184 -68 -129 -5 -126 -4 -148 -72 -19 -55 1 -129 115 -423 28 -72 58 -115 82 -115 23 0 62 31 84 67 23 37 48 190 49 295 0 80 26 109 97 111 77 3 96 -19 112 -132 7 -48 12 -119 9 -157 -3 -65 -6 -72 -51 -127 -26 -32 -47 -63 -47 -68 0 -14 -99 -139 -110 -139 -5 0 -29 -16 -54 -35 -53 -40 -95 -45 -141 -16 -30 18 -40 33 -94 151 -31 68 -72 120 -95 120 -21 0 -45 -43 -63 -112 -22 -82 -25 -394 -5 -483 27 -117 59 -180 125 -241 69 -64 90 -74 154 -74 42 0 50 4 90 46 34 38 49 65 74 143 37 116 84 202 139 256 45 44 61 42 92 -11 17 -30 38 -182 38 -279 0 -102 43 -154 127 -155 51 0 53 1 76 43 28 48 60 145 77 231 9 41 10 171 6 450 -6 363 -5 396 13 459 35 126 103 191 177 167 19 -7 41 -22 50 -35 28 -43 28 -175 -1 -450 -2 -16 -8 -79 -15 -140 -6 -60 -12 -250 -12 -421 -1 -368 4 -398 78 -468 61 -59 137 -86 240 -86 145 -1 194 -26 194 -99 0 -32 -8 -45 -67 -102 -38 -36 -75 -78 -83 -93 -13 -26 -13 -29 5 -43 26 -19 153 -8 214 18 24 10 48 19 53 19 19 0 326 145 385 182 70 44 137 115 159 167 54 129 7 266 -113 326 -54 28 -66 30 -158 29 -103 -2 -218 -21 -317 -55 -38 -12 -85 -19 -138 -19 -73 0 -82 2 -110 28 -30 26 -31 32 -42 149 -13 144 -1 243 36 301 22 34 392 399 512 504 28 24 80 61 116 81 79 44 114 83 123 136 19 113 -125 412 -260 540 -54 51 -83 62 -104 38 -6 -8 -24 -78 -40 -158 -43 -213 -80 -350 -102 -381 -11 -15 -26 -42 -34 -60 -35 -79 -62 -113 -100 -127 -37 -15 -38 -14 -61 14 -30 37 -38 92 -23 146 7 27 15 175 19 379 4 184 11 346 16 360 7 26 40 74 99 148 64 80 53 104 -100 224 -107 84 -214 138 -272 138 -45 0 -50 -3 -113 -67z m-13 -145 c-3 -8 -6 -5 -6 6 -1 11 2 17 5 13 3 -3 4 -12 1 -19z m-526 -501 c-8 -8 -11 -7 -11 4 0 20 13 34 18 19 3 -7 -1 -17 -7 -23z m-121 -262 c-7 -9 -15 -13 -18 -10 -3 2 1 11 8 20 7 9 15 13 18 10 3 -2 -1 -11 -8 -20z m-497 -985 c-3 -11 -9 -17 -14 -14 -11 6 -12 68 -2 78 10 10 22 -39 16 -64z m4 -122 c-3 -7 -5 -2 -5 12 0 14 2 19 5 13 2 -7 2 -19 0 -25z"></path> 
</g>
</svg>