<svg xmlns="http://www.w3.org/2000/svg" viewBox="0 0 443 608">
<g transform="translate(-10,609.7338918099991) scale(0.1,-0.1)">
<path fill="#15803d" d="M1062 5334 c-172 -86 -222 -303 -112 -497 30 -53 30 -54 30 -211 l0 -158 -37 -61 c-37 -60 -38 -62 -38 -161 0 -99 1 -103 39 -171 l39 -70 4 -165 c3 -136 1 -169 -11 -190 -46 -75 -60 -118 -64 -194 -10 -194 118 -336 302 -336 114 0 221 89 272 225 17 46 66 110 232 305 84 99 107 117 166 135 140 42 216 131 236 277 6 39 16 79 23 87 60 72 114 130 143 153 31 23 39 25 65 16 46 -16 167 -158 174 -205 30 -198 104 -294 251 -329 46 -10 62 -20 97 -61 23 -26 93 -103 155 -171 92 -99 122 -139 156 -210 46 -92 109 -168 166 -197 19 -10 67 -19 111 -22 70 -5 83 -3 133 21 38 19 66 42 91 75 56 77 68 115 69 213 0 83 -1 90 -43 172 l-44 85 -1 153 -1 153 39 77 c36 72 39 84 40 165 1 86 0 90 -42 165 l-42 77 -1 162 c0 145 2 164 21 196 85 144 77 306 -22 417 -164 188 -443 101 -488 -152 -14 -77 2 -148 55 -250 l35 -68 0 -155 0 -154 -40 -83 c-22 -46 -40 -87 -40 -92 0 -14 -43 -40 -67 -40 -13 0 -51 26 -95 65 -40 36 -100 78 -134 94 -50 24 -77 49 -162 145 -106 121 -107 123 -116 224 -7 78 -25 113 -93 179 -41 40 -67 57 -110 69 -68 20 -166 13 -223 -16 -40 -20 -98 -85 -117 -131 -13 -30 -28 -119 -32 -187 0 -12 -29 -55 -63 -95 -35 -39 -80 -93 -101 -120 -21 -26 -42 -47 -47 -47 -34 0 -142 -65 -190 -114 -66 -68 -97 -73 -147 -25 -18 16 -33 37 -33 45 0 8 -16 47 -35 87 -35 72 -35 72 -35 215 l0 142 35 70 c83 164 63 317 -55 424 -88 78 -203 98 -298 50z m178 -156 c56 -39 74 -72 74 -134 -1 -43 -6 -60 -25 -80 -54 -58 -123 -70 -180 -31 -69 46 -88 134 -43 201 44 65 116 83 174 44z m2302 -15 c33 -29 48 -69 48 -122 0 -44 -4 -55 -38 -91 -36 -37 -43 -40 -91 -40 -101 0 -148 54 -138 159 4 52 10 66 34 87 15 13 39 27 53 30 14 3 30 7 35 8 20 5 77 -13 97 -31z m-1180 -283 c48 -14 85 -59 93 -114 17 -110 -82 -191 -180 -147 -62 28 -79 53 -82 124 -3 56 -1 65 25 95 23 28 48 40 102 51 3 0 22 -4 42 -9z m-1146 -90 c31 0 46 -58 42 -162 -3 -91 -5 -102 -27 -119 -41 -33 -93 -21 -119 28 -17 30 -15 203 2 225 15 21 56 38 74 32 8 -2 20 -4 28 -4z m2299 -22 c26 -31 27 -35 23 -139 -2 -63 -8 -113 -14 -119 -6 -7 -29 -14 -50 -17 -53 -7 -81 24 -94 103 -15 88 2 159 43 185 44 26 61 24 92 -13z m-1304 -217 c46 -46 40 -86 -22 -161 -98 -118 -182 -153 -228 -94 -35 45 -27 79 35 155 111 136 157 157 215 100z m323 23 c8 -3 51 -46 95 -95 73 -81 81 -94 81 -130 0 -29 -7 -47 -25 -64 -43 -43 -94 -29 -173 48 -94 91 -120 183 -66 226 27 21 58 26 88 15z m-1266 -213 c12 -6 29 -25 37 -41 20 -38 20 -134 -1 -165 -18 -28 -81 -55 -127 -55 -84 0 -150 94 -127 180 24 90 128 129 218 81z m2300 -26 c33 -36 34 -40 30 -101 -3 -56 -8 -69 -34 -95 -41 -41 -93 -52 -151 -32 -59 20 -83 59 -83 133 0 94 55 144 149 137 48 -3 59 -9 89 -42z m-1670 -119 c40 -21 63 -50 73 -93 13 -57 1 -100 -41 -144 -34 -36 -41 -39 -91 -39 -65 0 -91 16 -119 70 -30 59 -27 130 7 170 14 18 36 36 47 40 33 14 94 11 124 -4z m977 -1 c60 -25 84 -61 85 -128 0 -97 -45 -147 -134 -147 -59 0 -86 13 -116 57 -28 41 -34 124 -12 165 32 58 109 82 177 53z m-1624 -254 c36 -45 34 -199 -3 -246 -22 -29 -80 -34 -111 -11 -51 39 -48 227 5 269 28 23 86 17 109 -12z m2272 1 c26 -27 27 -33 27 -135 0 -94 -2 -109 -20 -127 -27 -27 -72 -25 -108 5 -24 20 -30 34 -35 82 -9 86 1 139 33 173 35 38 68 38 103 2z m-1873 -91 c26 -19 36 -56 26 -96 -8 -31 -110 -150 -151 -175 -68 -42 -145 -8 -145 66 0 31 43 100 91 146 9 10 23 26 31 36 20 29 70 52 98 46 14 -3 36 -13 50 -23z m1472 1 c43 -28 149 -149 158 -180 12 -45 1 -82 -34 -103 -46 -29 -81 -18 -150 49 -117 114 -138 163 -94 222 26 36 77 41 120 12z m-1867 -316 c54 -23 77 -68 72 -145 -3 -58 -6 -67 -36 -92 -40 -33 -88 -43 -139 -30 -121 33 -134 216 -18 267 41 17 79 17 121 0z m2303 -12 c36 -24 65 -97 57 -144 -21 -124 -176 -163 -254 -64 -30 38 -29 131 1 169 37 48 77 67 127 60 25 -3 56 -12 69 -21z"></path> 
<path fill="#1e293b" d="M1145 2970 c-202 -31 -303 -317 -177 -505 26 -39 27 -46 30 -203 l4 -164 -39 -76 c-36 -72 -38 -80 -38 -171 0 -94 1 -98 43 -175 l42 -79 0 -147 c0 -139 -1 -150 -26 -196 -58 -109 -70 -223 -34 -330 41 -121 126 -184 261 -192 45 -3 91 0 112 7 53 18 119 82 152 147 27 53 30 68 30 156 0 94 -1 98 -42 178 l-43 82 0 153 0 154 45 95 c75 156 87 159 203 52 57 -53 96 -80 133 -93 44 -15 64 -32 138 -116 130 -149 123 -137 131 -225 4 -49 15 -96 29 -125 29 -59 94 -117 157 -140 55 -19 158 -23 201 -6 72 27 148 104 167 169 4 14 11 60 15 102 7 69 12 82 47 125 102 127 168 191 218 214 49 22 108 62 151 102 11 11 35 31 53 45 l33 25 27 -20 c15 -11 48 -61 74 -114 l47 -94 1 -156 0 -157 -36 -73 c-46 -94 -57 -195 -28 -284 24 -77 106 -164 178 -188 206 -70 376 70 376 308 0 80 -2 88 -42 162 l-42 78 -1 160 c0 156 1 161 27 205 52 89 72 207 46 281 -6 19 -26 59 -44 89 l-32 56 -3 159 -2 160 38 75 c37 70 39 79 39 170 1 86 -2 100 -29 154 -57 113 -145 166 -275 166 -110 0 -236 -105 -275 -229 -9 -30 -27 -64 -38 -76 -12 -11 -35 -39 -52 -61 -16 -21 -74 -88 -129 -149 -96 -106 -143 -145 -177 -145 -56 0 -161 -86 -201 -164 -11 -22 -26 -75 -34 -118 -13 -72 -18 -83 -75 -152 -104 -128 -124 -132 -213 -46 -73 70 -111 135 -120 205 -9 70 -48 145 -104 197 -37 35 -65 50 -122 67 -62 19 -82 30 -111 64 -21 23 -89 101 -154 172 -92 103 -125 148 -161 220 -84 169 -196 239 -349 215z m141 -192 c62 -58 66 -164 8 -219 -32 -30 -118 -38 -162 -15 -68 35 -87 147 -36 213 31 41 54 52 112 52 34 1 49 -5 78 -31z m2248 18 c75 -31 104 -161 51 -225 -67 -79 -198 -56 -227 40 -9 32 -9 51 1 87 25 94 93 132 175 98z m-1999 -306 c17 -11 59 -52 93 -91 53 -60 62 -76 62 -108 0 -50 -18 -64 -88 -69 l-57 -4 -73 83 c-62 70 -72 88 -72 119 0 79 65 113 135 70z m1710 -3 c34 -19 40 -28 43 -58 3 -30 -4 -45 -35 -82 -21 -24 -57 -68 -81 -96 -36 -43 -49 -51 -77 -51 -45 0 -84 35 -91 80 -4 30 1 43 40 92 42 53 139 139 154 137 4 0 25 -10 47 -22z m-1988 -110 c22 -22 32 -83 26 -160 -7 -78 -25 -107 -69 -107 -71 0 -99 51 -91 168 6 103 22 127 81 119 21 -3 45 -12 53 -20z m2290 -16 c36 -54 29 -195 -13 -240 -21 -23 -76 -16 -101 14 -20 23 -23 37 -23 112 0 73 3 92 23 120 19 29 27 33 57 31 26 -2 40 -11 57 -37z m-1628 -229 c111 -60 87 -249 -33 -267 -54 -8 -116 16 -139 54 -21 35 -22 116 -3 161 26 62 110 87 175 52z m1008 -20 c107 -98 36 -269 -102 -246 -54 9 -70 18 -94 58 -42 68 -18 175 47 211 15 8 45 14 68 15 33 0 48 -7 81 -38z m-1669 -126 c38 -20 67 -55 83 -98 16 -48 1 -103 -40 -142 -26 -25 -39 -29 -90 -30 -50 -1 -64 3 -86 24 -42 39 -58 78 -52 128 6 53 32 91 78 114 42 21 72 22 107 4z m2290 -7 c102 -50 108 -204 10 -255 -40 -21 -120 -14 -149 12 -47 41 -64 137 -35 193 21 39 64 66 115 70 8 0 35 -9 59 -20z m-1381 -231 c74 -74 95 -100 99 -129 12 -71 -68 -123 -132 -86 -33 19 -155 165 -164 195 -13 47 37 110 89 112 8 0 56 -42 108 -92z m524 71 c26 -13 47 -63 41 -95 -7 -35 -129 -174 -168 -190 -44 -18 -79 -9 -105 27 -30 42 -18 78 53 161 85 99 131 123 179 97z m-1422 -255 c18 -23 21 -41 21 -119 0 -84 -2 -94 -25 -119 -30 -32 -65 -33 -101 -3 -23 20 -27 33 -31 94 -5 68 7 132 30 161 5 6 27 12 47 12 30 0 43 -6 59 -26z m2276 1 c23 -22 25 -32 25 -109 0 -127 -22 -163 -90 -150 -42 9 -61 41 -67 114 -12 132 63 215 132 145z m-1120 -101 c57 -27 80 -113 49 -179 -41 -88 -151 -94 -219 -13 -19 22 -25 41 -25 74 0 57 11 77 58 109 42 29 89 32 137 9z m-1145 -299 c92 -47 92 -202 1 -250 -49 -25 -94 -19 -143 18 l-43 33 0 73 c0 71 1 73 37 107 30 27 46 34 78 34 23 0 54 -7 70 -15z m2280 -3 c88 -47 95 -203 10 -247 -88 -46 -201 19 -199 115 1 63 21 103 64 127 49 28 79 29 125 5z"></path> 
</g>
</svg>