<svg xmlns="http://www.w3.org/2000/svg" viewBox="0 0 443 608">
<g transform="translate(31.71212121212121,610.2374532739537) scale(0.1,-0.1)">
<path fill="#15803d" d="M3213 3715 c-123 -38 -227 -142 -322 -320 -26 -48 -129 -278 -182 -404 -20 -48 -129 -187 -183 -234 -64 -56 -99 -80 -181 -126 -33 -19 -67 -39 -75 -46 -23 -17 -195 -91 -455 -195 -196 -79 -331 -165 -422 -269 -35 -39 -71 -68 -106 -85 -48 -22 -65 -25 -158 -23 -99 1 -107 0 -174 -32 -91 -44 -166 -124 -224 -236 -68 -131 -68 -214 1 -230 33 -8 41 5 62 109 18 86 32 118 72 165 34 41 74 61 119 61 61 0 57 -32 -15 -120 -48 -58 -70 -105 -70 -146 0 -48 16 -50 57 -9 52 52 72 61 92 41 11 -12 16 -34 16 -71 0 -49 2 -55 21 -55 31 0 53 30 74 105 19 66 43 115 58 115 21 0 71 -43 96 -83 31 -49 51 -59 60 -29 3 9 10 73 15 142 5 69 15 140 22 158 11 31 14 33 52 30 47 -3 47 -4 98 -198 16 -63 38 -126 48 -140 20 -28 69 -39 82 -18 21 32 0 165 -43 278 -30 78 -31 188 -2 227 13 17 30 28 45 28 20 0 26 -8 40 -55 9 -30 22 -84 29 -120 23 -124 103 -386 147 -480 85 -182 207 -336 339 -429 32 -23 84 -59 114 -80 177 -125 396 -195 443 -143 10 10 17 25 17 34 0 23 -41 63 -101 98 -30 17 -80 48 -111 68 -32 20 -78 51 -103 67 -26 17 -68 48 -94 70 -26 22 -78 65 -114 94 -98 80 -170 172 -245 311 -87 162 -191 445 -199 540 -5 60 -3 67 20 88 49 46 75 18 107 -114 37 -149 109 -334 164 -417 37 -55 117 -75 150 -38 26 29 12 76 -40 138 -75 87 -204 391 -204 478 0 39 4 47 25 57 37 17 60 -10 85 -103 11 -43 28 -96 36 -116 24 -59 75 -134 86 -127 24 15 -21 268 -66 376 -19 44 -21 119 -4 136 18 18 73 15 90 -5 21 -23 38 -87 38 -139 0 -96 40 -208 68 -190 21 13 30 105 25 271 -5 164 -4 170 16 182 28 17 42 9 70 -39 21 -37 24 -56 28 -202 6 -184 -8 -291 -57 -439 -33 -96 -37 -137 -17 -137 56 0 141 213 166 420 14 109 14 312 0 401 -13 85 -3 120 50 181 38 44 92 120 123 173 43 73 61 112 113 242 31 76 67 161 81 188 59 122 154 205 250 220 43 6 49 4 80 -26 27 -26 34 -41 34 -70 0 -46 -11 -55 -83 -63 -106 -12 -167 -55 -153 -109 8 -35 46 -47 144 -47 84 0 89 1 137 35 67 48 94 98 101 188 6 62 3 80 -16 125 -48 111 -160 157 -287 117z"></path> 
<path fill="#ef4444" d="M2498 5100 c-9 -5 -40 -40 -69 -77 -63 -80 -227 -243 -319 -317 -92 -74 -162 -117 -267 -163 -50 -23 -117 -58 -149 -79 -74 -48 -130 -74 -159 -74 -24 0 -112 44 -190 96 -59 39 -236 104 -283 104 -45 0 -72 -16 -72 -43 0 -41 60 -94 250 -221 197 -130 224 -149 252 -168 15 -10 42 -18 60 -17 28 1 43 12 103 81 96 111 122 123 260 123 102 0 113 -2 155 -27 154 -92 200 -383 84 -525 -48 -58 -157 -112 -242 -120 -50 -5 -68 -2 -107 18 -57 28 -115 92 -150 163 -38 78 -69 108 -119 113 -54 6 -61 -3 -79 -102 -9 -44 -34 -127 -56 -185 l-41 -105 -9 -195 c-5 -107 -8 -289 -6 -405 1 -191 4 -214 23 -259 47 -104 26 -155 -105 -265 -66 -55 -108 -114 -96 -134 9 -15 132 0 162 20 14 9 65 57 113 107 120 124 184 254 256 516 27 98 39 176 53 335 14 155 25 194 61 215 34 19 59 6 70 -35 12 -45 -9 -341 -30 -422 -21 -83 -10 -97 30 -41 50 71 78 196 78 354 0 125 14 169 55 176 41 8 52 -17 59 -136 8 -139 -8 -266 -45 -370 -28 -79 -38 -146 -20 -146 13 0 60 39 71 60 5 10 17 45 26 77 9 32 20 74 26 93 5 19 13 132 16 250 l7 215 39 0 c52 0 72 -29 87 -123 8 -55 8 -99 -2 -180 -23 -195 -15 -228 36 -151 57 87 72 262 34 399 -31 110 -34 144 -14 163 21 22 58 22 77 0 72 -82 113 -373 73 -507 -52 -171 -178 -321 -340 -404 -64 -33 -130 -52 -267 -78 -85 -16 -110 -30 -134 -75 -11 -22 -11 -29 3 -49 15 -21 21 -22 87 -17 88 6 170 33 306 101 245 121 348 222 434 426 31 75 39 128 38 255 -1 197 -32 295 -137 445 -66 93 -80 133 -94 260 -17 157 -50 231 -154 346 -46 51 -57 69 -52 87 4 12 53 67 109 122 57 55 118 122 137 148 19 26 48 66 66 87 37 47 72 145 75 215 3 47 1 50 -22 52 -14 2 -32 -2 -42 -7z m-847 -1489 c24 -24 29 -38 29 -76 0 -70 -29 -105 -84 -105 -83 0 -132 72 -101 147 20 49 40 63 88 63 29 0 45 -7 68 -29z m-47 -322 c20 -12 39 -32 42 -45 10 -38 -4 -89 -31 -114 -20 -19 -32 -22 -72 -17 -61 7 -83 32 -83 96 0 54 6 65 45 85 40 21 57 20 99 -5z m-30 -331 c10 -13 16 -43 16 -73 0 -68 -20 -95 -70 -95 -30 0 -43 6 -59 26 -29 37 -29 110 1 141 29 32 91 32 112 1z"></path> 
<path fill="#ef4444" d="M1828 4104 c-32 -14 -38 -21 -47 -65 -15 -66 -14 -90 4 -132 40 -95 157 -125 228 -58 76 70 73 180 -5 246 -24 20 -40 25 -86 24 -31 0 -74 -7 -94 -15z"></path> 
</g>
</svg>