<svg xmlns="http://www.w3.org/2000/svg" viewBox="0 0 443 607">
<g transform="translate(0,607) scale(0.1,-0.1)">
<path fill="#1e293b" d="M2535 5330 c-54 -57 -88 -66 -355 -90 -69 -6 -161 -15 -205 -20 -80 -9 -368 -27 -632 -39 -81 -3 -147 -11 -153 -17 -25 -25 5 -67 137 -192 143 -135 141 -134 265 -147 52 -6 57 -9 67 -37 23 -64 9 -120 -48 -207 -74 -111 -103 -167 -112 -221 -10 -63 -5 -70 59 -70 96 0 220 68 329 182 73 77 90 122 104 283 6 60 15 116 22 123 32 39 99 33 117 -10 5 -13 12 -53 15 -90 6 -58 11 -71 41 -102 54 -56 44 -96 -49 -192 -71 -74 -75 -103 -14 -118 47 -12 153 4 220 33 109 47 261 163 293 223 18 35 18 108 -1 134 -10 15 -30 23 -65 28 -96 13 -120 35 -123 113 -2 74 98 114 186 75 56 -25 142 -118 156 -168 23 -84 11 -220 -42 -450 -16 -65 -73 -166 -106 -183 -35 -19 -95 -13 -132 14 -19 13 -45 32 -59 42 -39 29 -152 24 -485 -21 -66 -9 -147 -22 -180 -28 -69 -12 -189 -25 -322 -34 l-91 -7 -15 29 c-8 17 -19 85 -26 161 -11 137 -5 206 23 260 40 80 30 125 -56 231 -80 99 -253 262 -278 262 -13 0 -21 -10 -25 -32 -10 -44 35 -725 56 -853 22 -133 117 -381 167 -437 28 -33 76 -23 132 27 28 25 56 46 63 46 7 1 64 3 127 5 112 2 161 9 265 39 171 48 401 94 470 95 45 0 121 -45 208 -124 131 -119 164 -128 280 -70 53 27 92 57 147 114 85 88 134 170 198 335 24 61 50 124 57 140 7 17 36 89 63 160 28 72 69 162 92 202 26 45 40 79 36 90 -22 70 -390 349 -636 483 -124 67 -146 71 -185 30z"></path> 
<path fill="#ef4444" d="M1874 3061 c-121 -89 -168 -208 -133 -335 12 -43 -7 -134 -41 -191 -20 -35 -12 -81 19 -109 25 -23 127 -45 209 -46 34 0 78 -7 97 -14 32 -14 35 -19 35 -55 0 -52 -26 -71 -97 -71 -28 0 -55 -4 -58 -10 -8 -13 31 -87 53 -98 9 -5 34 -12 56 -15 53 -8 83 -31 91 -67 10 -46 -15 -70 -74 -70 -62 0 -73 -9 -69 -55 3 -37 4 -39 68 -59 62 -20 65 -23 68 -55 5 -52 -28 -81 -92 -81 -60 0 -124 16 -148 37 -10 9 -19 37 -23 72 -24 221 -49 293 -138 389 -23 23 -40 32 -64 32 -29 0 -33 -3 -39 -37 -11 -59 12 -298 41 -418 15 -60 30 -130 35 -155 5 -25 11 -53 15 -62 10 -25 74 -31 205 -19 130 12 152 9 170 -24 10 -19 10 -30 0 -55 -7 -17 -20 -35 -29 -39 -9 -5 -95 -14 -192 -21 -169 -12 -178 -12 -210 6 -41 24 -65 67 -78 140 -19 99 -68 154 -140 154 -49 0 -69 -34 -77 -133 -9 -119 -18 -130 -129 -147 -47 -7 -90 -19 -96 -26 -5 -7 -13 -28 -16 -48 -4 -29 1 -45 26 -85 40 -62 118 -135 164 -155 56 -23 76 -73 82 -204 2 -60 9 -123 15 -138 15 -39 97 -123 137 -140 66 -29 109 -13 129 46 4 14 8 127 9 252 0 199 2 229 17 244 24 24 136 43 253 44 128 0 147 -11 143 -78 -4 -63 -37 -82 -151 -89 -131 -7 -124 -2 -119 -75 2 -35 11 -78 18 -97 8 -18 14 -42 14 -51 0 -10 12 -28 28 -40 25 -20 35 -22 137 -17 114 6 134 9 300 51 55 14 125 28 155 31 53 6 56 5 81 -27 14 -18 37 -62 52 -98 72 -181 106 -230 189 -275 69 -38 131 -38 210 -1 97 46 138 110 211 326 19 58 43 135 52 170 9 36 32 103 52 149 22 55 36 109 40 151 l6 66 -61 65 c-92 98 -282 210 -361 213 -38 1 -56 -6 -102 -36 -30 -21 -77 -42 -105 -48 -81 -16 -225 -27 -294 -21 l-65 6 -3 36 c-6 66 14 77 166 89 90 8 147 18 177 31 57 25 153 132 199 222 75 144 36 269 -109 345 -48 26 -57 27 -237 30 -179 3 -189 5 -203 25 -8 12 -15 34 -15 49 0 43 38 56 197 68 322 24 320 23 308 89 -5 28 -22 51 -76 101 -77 74 -81 86 -57 201 15 76 1 124 -55 181 -63 64 -125 91 -224 96 -72 4 -84 2 -89 -13 -4 -10 8 -66 26 -126 37 -122 36 -131 -24 -212 -17 -23 -31 -46 -31 -52 0 -5 -9 -14 -21 -19 -11 -5 -25 -19 -30 -30 -7 -17 -18 -21 -57 -20 -58 0 -86 24 -94 80 -4 33 2 50 36 109 23 38 41 75 41 82 0 22 -29 41 -77 48 -26 4 -55 11 -64 16 -23 12 -57 71 -65 114 -5 30 -10 35 -34 35 -15 0 -45 -13 -66 -29z m745 -926 c36 -18 41 -37 41 -152 0 -116 -12 -148 -72 -187 -32 -21 -157 -32 -208 -19 -34 9 -35 11 -35 59 l0 49 75 12 c41 6 76 12 77 12 12 4 23 48 18 72 -6 28 -8 29 -66 29 -76 0 -126 20 -135 54 -15 63 29 85 174 86 71 0 112 -4 131 -15z m-526 -482 c-7 -2 -19 -2 -25 0 -7 3 -2 5 12 5 14 0 19 -2 13 -5z m773 -168 c-22 -17 -36 -19 -36 -7 0 14 12 22 34 22 21 -1 21 -1 2 -15z m-1651 -126 c4 -6 5 -12 2 -15 -7 -7 -37 7 -37 17 0 13 27 11 35 -2z m1676 -35 c42 -21 59 -68 59 -161 0 -78 -19 -214 -40 -285 -12 -43 -64 -90 -94 -86 -33 5 -55 62 -55 148 -1 93 -22 154 -77 221 -62 76 -67 136 -15 164 37 20 183 20 222 -1z m-407 -85 c13 -38 -2 -137 -25 -160 -30 -30 -76 -25 -110 12 -40 43 -41 113 -2 159 14 18 36 36 47 40 28 11 78 -18 90 -51z m36 -229 c0 -5 -12 -10 -27 -10 -22 0 -25 2 -13 10 20 13 40 13 40 0z m-612 -38 c2 -7 -3 -12 -12 -12 -9 0 -16 7 -16 16 0 17 22 14 28 -4z"></path> 
</g>
</svg>