<svg xmlns="http://www.w3.org/2000/svg" viewBox="0 0 443 608">
<g transform="translate(15,613) scale(0.1,-0.1)">
<path fill="#15803d" d="M1665 4695 c-71 -18 -157 -43 -190 -55 -80 -29 -267 -125 -319 -164 -22 -17 -61 -44 -86 -61 -121 -82 -327 -321 -425 -495 -94 -165 -161 -355 -195 -553 -36 -205 -21 -512 34 -702 102 -355 284 -641 546 -860 81 -67 215 -157 298 -199 63 -32 252 -106 270 -106 8 0 44 -9 80 -20 206 -61 458 -65 697 -11 22 5 64 14 94 20 91 19 142 37 265 96 211 100 352 205 503 375 101 114 158 198 225 332 129 260 188 500 188 762 0 238 -20 376 -83 561 -100 297 -323 611 -562 790 -137 103 -364 223 -470 250 -27 7 -75 20 -105 28 -120 33 -256 47 -446 47 -182 -1 -194 -2 -319 -35z m605 -95 c47 -12 103 -25 125 -30 105 -23 186 -54 339 -132 100 -50 159 -93 308 -223 115 -100 286 -334 343 -470 31 -74 84 -220 91 -250 3 -16 12 -50 20 -75 26 -87 45 -345 35 -470 -30 -348 -169 -674 -390 -915 -234 -254 -533 -416 -870 -471 -154 -25 -398 -16 -541 20 -58 15 -114 31 -125 36 -11 5 -45 18 -75 29 -30 11 -80 32 -110 46 -30 15 -64 31 -75 36 -22 11 -92 54 -181 113 -79 52 -271 246 -319 321 -49 77 -165 283 -165 294 0 4 -9 26 -20 49 -11 22 -20 49 -20 60 0 10 -4 22 -9 28 -15 16 -59 205 -72 307 -17 143 -7 408 20 517 30 120 42 162 52 185 4 11 24 58 43 105 90 221 255 435 466 601 65 51 181 125 210 134 14 4 42 19 62 31 21 13 42 24 47 24 5 0 31 9 57 21 84 35 243 72 404 92 14 2 79 4 145 5 91 2 140 -3 205 -18z"></path> 
<path fill="#ef4444" d="M1915 3631 c-65 -17 -171 -73 -223 -118 -186 -159 -246 -450 -136 -666 13 -26 24 -52 24 -58 0 -18 130 -147 180 -179 59 -38 115 -57 219 -75 74 -13 94 -13 171 0 82 14 155 44 205 83 12 9 52 51 89 92 101 111 146 220 146 356 0 107 -29 219 -77 296 -44 70 -140 178 -159 178 -7 0 -26 11 -43 25 -52 44 -134 67 -256 71 -60 2 -123 0 -140 -5z m2 -143 c13 -12 23 -31 23 -43 0 -12 14 -39 30 -60 36 -45 45 -72 45 -142 0 -63 -26 -96 -90 -112 -49 -12 -57 -10 -135 29 -30 15 -71 33 -91 39 -88 28 -76 132 28 233 82 80 145 99 190 56z m432 -13 c50 -40 119 -128 128 -164 12 -49 -8 -74 -94 -117 -45 -22 -89 -47 -98 -54 -10 -8 -34 -11 -72 -8 -48 4 -61 10 -85 37 -23 26 -28 40 -28 85 0 45 6 63 36 107 19 29 38 65 41 80 15 77 97 93 172 34z m-370 -456 c57 -36 55 -180 -3 -228 -9 -8 -16 -22 -16 -33 0 -10 -9 -37 -20 -58 -19 -37 -24 -40 -61 -40 -22 0 -54 6 -72 14 -46 19 -145 131 -158 178 -9 34 -7 42 13 68 13 16 37 33 55 39 17 5 47 21 65 35 19 14 45 30 58 35 30 13 111 7 139 -10z m377 -19 c19 -16 43 -30 53 -30 34 0 71 -45 71 -87 0 -59 -61 -144 -139 -194 -76 -49 -136 -32 -160 43 -7 20 -25 53 -42 74 -16 21 -32 48 -35 61 -9 36 5 109 27 137 23 29 52 36 133 30 47 -3 65 -10 92 -34z"></path> 
<path fill="#15803d" d="M1840 4458 c-229 -37 -433 -125 -620 -265 -182 -138 -365 -387 -430 -588 -12 -38 -27 -75 -31 -81 -5 -6 -17 -53 -28 -105 -73 -356 -46 -616 97 -934 62 -138 73 -157 137 -236 237 -291 537 -476 860 -530 110 -19 319 -23 430 -8 86 10 239 51 293 78 9 4 61 29 115 55 101 48 232 140 325 230 99 94 269 345 289 425 3 14 12 35 19 46 19 31 62 180 79 275 19 112 20 386 0 505 -34 211 -151 463 -293 635 -173 210 -347 336 -582 423 -85 31 -135 44 -288 78 -52 11 -297 10 -372 -3z m-93 -172 c68 -18 150 -59 193 -96 l35 -31 3 -121 c3 -84 0 -128 -9 -145 -23 -42 -106 -50 -135 -12 -9 11 -54 138 -70 197 -5 18 -30 25 -59 18 -34 -9 -33 -38 6 -154 36 -108 34 -135 -15 -159 -61 -29 -103 -1 -187 122 -48 71 -51 114 -13 171 15 21 41 71 59 110 50 110 85 128 192 100z m688 2 c25 -11 103 -116 139 -187 9 -16 16 -54 16 -83 0 -59 -14 -88 -89 -180 -41 -52 -50 -58 -84 -58 -62 0 -77 13 -77 69 0 27 9 78 20 113 28 89 26 122 -7 137 -37 17 -48 3 -77 -99 -34 -115 -50 -134 -115 -138 -51 -3 -52 -3 -67 35 -24 56 -15 233 13 271 23 31 100 75 193 107 76 27 99 29 135 13z m510 -390 c36 -11 77 -32 91 -45 l26 -24 -4 -137 c-5 -163 -18 -201 -75 -230 -52 -26 -166 -62 -198 -62 -28 0 -74 42 -76 69 -4 48 7 61 114 143 66 51 77 63 71 81 -16 53 -48 49 -150 -19 -100 -65 -135 -71 -171 -30 -30 35 -29 47 8 117 40 74 94 138 133 156 41 18 145 10 231 -19z m-1533 -30 c103 -112 125 -167 89 -225 -16 -25 -28 -33 -51 -33 -40 0 -96 26 -152 72 -26 21 -57 38 -69 38 -23 0 -59 -26 -59 -42 0 -4 28 -29 63 -54 34 -25 79 -62 101 -81 35 -33 38 -39 33 -77 -6 -46 -35 -76 -73 -76 -45 0 -210 59 -232 83 -33 35 -43 78 -49 218 -7 153 -6 155 119 192 99 30 117 34 182 36 48 1 52 -1 98 -51z m791 -93 c128 -33 299 -147 373 -248 93 -126 129 -208 149 -342 38 -250 -53 -492 -244 -651 -125 -104 -268 -154 -437 -154 -184 0 -289 41 -451 175 -92 77 -101 87 -145 176 -79 159 -91 205 -91 349 1 130 11 185 55 290 89 211 263 354 493 405 82 18 228 18 298 0z m943 -466 c23 -23 50 -57 60 -75 10 -19 22 -34 26 -34 14 0 58 -87 58 -116 -1 -38 -14 -60 -77 -131 -28 -32 -63 -72 -77 -90 -15 -17 -39 -34 -55 -38 -31 -6 -163 18 -221 41 -60 24 -78 87 -37 136 21 26 28 28 142 35 l120 8 3 32 c4 44 -15 52 -144 60 -89 5 -109 10 -125 26 -22 24 -25 85 -6 109 6 9 57 31 112 48 55 17 105 33 110 35 27 11 73 -9 111 -46z m-1998 19 c61 -17 93 -31 114 -51 37 -37 38 -88 3 -122 -22 -23 -32 -25 -117 -25 -126 0 -138 -4 -138 -45 0 -18 6 -37 13 -43 6 -6 60 -12 119 -14 98 -3 108 -5 127 -27 30 -34 28 -91 -3 -113 -29 -21 -112 -52 -183 -68 -75 -17 -111 -3 -176 73 -29 34 -68 84 -86 111 -30 46 -32 53 -22 87 6 20 32 64 59 97 26 33 60 77 76 97 28 37 74 64 110 65 10 0 57 -10 104 -22z m1722 -563 c32 -8 70 -22 86 -30 16 -8 34 -15 41 -15 26 0 61 -60 72 -123 14 -82 14 -219 0 -250 -17 -37 -81 -63 -221 -92 -102 -21 -141 -3 -218 100 -20 28 -44 65 -54 82 -16 31 -15 35 3 72 36 70 71 68 185 -9 49 -33 95 -60 102 -60 8 0 21 11 30 25 16 25 16 27 -6 50 -12 13 -41 36 -64 52 -80 53 -106 84 -106 124 0 29 7 43 31 63 36 30 42 31 119 11z m-1519 -26 c22 -15 29 -28 29 -54 0 -28 -9 -41 -56 -82 -152 -132 -140 -117 -121 -147 28 -42 51 -34 175 61 54 41 98 44 132 8 25 -27 29 -69 9 -107 -26 -50 -101 -137 -135 -158 -32 -20 -44 -22 -112 -16 -136 11 -223 47 -241 98 -13 37 -6 242 11 296 12 39 34 55 130 92 90 34 140 37 179 9z m370 -360 c34 -18 42 -57 25 -114 -33 -108 -46 -158 -46 -171 0 -14 61 -36 71 -25 4 3 18 40 33 81 50 139 79 171 141 156 47 -12 57 -44 56 -172 -1 -64 -6 -125 -12 -135 -5 -10 -29 -29 -52 -40 -119 -61 -161 -80 -202 -91 -40 -11 -50 -10 -80 6 -61 33 -165 212 -165 286 0 30 90 175 128 207 29 25 71 29 103 12z m785 -23 c70 -85 102 -134 113 -179 12 -50 6 -69 -39 -137 -9 -14 -34 -52 -56 -84 -53 -81 -59 -86 -107 -86 -66 0 -241 66 -278 106 -24 26 -43 140 -37 227 5 69 27 96 85 104 36 5 42 2 62 -26 12 -16 36 -70 52 -118 17 -48 35 -91 40 -94 13 -8 58 1 65 12 3 5 1 24 -5 42 -6 17 -19 61 -31 96 -26 83 -25 119 2 148 16 17 33 23 64 23 36 0 46 -5 70 -34z"></path> 
</g>
</svg>