<svg xmlns="http://www.w3.org/2000/svg" viewBox="0 0 443 607">
<g transform="translate(-10,607) scale(0.1,-0.1)">
<path fill="#1e293b" d="M2096 5551 c-17 -19 -18 -31 -12 -128 13 -186 8 -761 -6 -791 -17 -34 -39 -44 -183 -81 -261 -66 -288 -71 -416 -71 -157 0 -196 -10 -215 -55 -21 -52 -17 -88 16 -134 34 -47 126 -117 197 -152 76 -37 227 -36 303 1 58 29 196 70 234 70 15 0 42 -6 61 -14 38 -16 47 -39 64 -161 37 -258 149 -392 366 -440 115 -25 582 -26 667 -2 73 22 159 98 176 155 18 60 -3 153 -81 354 -59 150 -74 178 -95 178 -18 0 -28 -27 -69 -184 -14 -56 -26 -78 -58 -108 -59 -57 -118 -72 -300 -72 -223 -1 -244 13 -264 179 -15 122 -13 181 7 239 14 39 25 53 58 71 43 24 191 65 235 65 14 0 44 6 66 14 49 17 283 66 316 66 13 0 51 -13 83 -30 77 -39 121 -39 158 -1 67 70 50 200 -35 277 -32 29 -135 94 -182 116 -77 35 -95 34 -200 -20 -114 -59 -310 -129 -387 -138 -48 -5 -57 -3 -74 15 -38 42 -37 213 2 506 4 33 5 76 1 95 -17 81 -195 184 -341 196 -66 6 -75 4 -92 -15z"></path> 
<path fill="#ef4444" d="M1989 3192 c-49 -32 -85 -75 -117 -142 -32 -68 -36 -101 -18 -172 10 -38 13 -79 10 -99 -8 -39 -39 -105 -54 -114 -17 -11 -11 -71 10 -98 28 -36 71 -47 209 -56 74 -4 125 -12 135 -20 22 -19 21 -84 -2 -104 -13 -12 -37 -17 -80 -17 -62 0 -62 0 -62 -29 0 -45 37 -81 90 -88 25 -3 62 -14 83 -25 37 -19 39 -21 32 -56 -8 -49 -28 -62 -91 -62 -58 0 -69 -9 -66 -54 4 -43 18 -55 74 -62 63 -9 86 -37 72 -92 l-9 -37 -104 1 c-101 1 -106 2 -128 28 -26 31 -28 36 -43 176 -14 126 -58 229 -119 278 -51 41 -74 46 -96 22 -16 -18 -17 -32 -12 -122 7 -105 36 -302 63 -418 8 -36 17 -75 19 -87 3 -12 13 -29 22 -38 14 -15 35 -16 183 -10 l167 7 22 -28 c29 -37 24 -75 -12 -92 -52 -25 -410 -42 -448 -22 -27 15 -46 56 -59 130 -13 74 -22 94 -58 133 -20 21 -35 27 -68 27 -60 0 -80 -28 -89 -123 -12 -140 -15 -143 -128 -157 -40 -4 -79 -11 -89 -15 -20 -8 -29 -39 -21 -79 12 -60 121 -177 191 -205 62 -25 72 -50 72 -173 0 -60 5 -129 11 -154 22 -86 145 -190 215 -182 21 2 34 12 47 38 17 32 18 55 13 261 -5 247 -4 256 51 277 42 17 173 32 274 32 l90 0 14 -34 c18 -43 10 -88 -18 -105 -11 -8 -72 -17 -134 -22 -63 -5 -118 -11 -123 -14 -24 -15 16 -221 50 -255 49 -49 216 -31 497 51 162 48 179 40 232 -107 25 -72 38 -98 77 -166 61 -105 206 -163 309 -124 52 20 132 103 162 168 20 42 90 256 134 408 12 41 32 97 45 124 35 71 47 131 34 172 -28 85 -318 274 -420 274 -21 0 -43 -7 -50 -15 -7 -8 -17 -15 -23 -15 -6 0 -20 -9 -31 -19 -34 -31 -117 -50 -274 -61 -169 -13 -196 -8 -207 39 -15 71 11 85 175 96 111 7 205 36 255 78 42 34 106 126 141 200 27 60 32 139 10 191 -20 48 -81 105 -145 135 -54 25 -63 26 -234 26 -165 0 -180 1 -193 19 -8 11 -14 35 -14 53 0 60 30 69 255 77 245 9 249 10 253 63 4 48 -26 89 -93 128 -23 14 -50 34 -60 45 -18 20 -18 23 3 95 12 41 22 88 22 105 0 118 -189 242 -334 220 -25 -4 -48 -9 -51 -12 -3 -2 5 -29 16 -59 12 -30 28 -79 36 -109 15 -52 14 -58 -6 -110 -12 -31 -46 -84 -78 -122 -55 -64 -60 -68 -101 -68 -42 0 -43 1 -67 53 -14 28 -25 59 -25 67 0 9 15 39 34 67 45 68 54 108 28 122 -30 16 -105 41 -125 41 -17 0 -38 36 -67 118 -15 40 -33 40 -91 4z m776 -862 c3 -5 -3 -10 -14 -10 -12 0 -21 5 -21 10 0 6 6 10 14 10 8 0 18 -4 21 -10z m-53 -60 c59 -24 63 -33 61 -140 -3 -174 -50 -228 -203 -232 -57 -2 -75 1 -97 18 -36 27 -41 60 -12 90 19 20 32 24 80 24 48 0 60 4 73 22 19 27 21 59 4 76 -7 7 -41 12 -83 12 -79 0 -109 14 -119 56 -9 32 15 71 46 77 46 9 227 7 250 -3z m245 -656 c-3 -3 -12 -4 -19 -1 -8 3 -5 6 6 6 11 1 17 -2 13 -5z m-777 -114 c-8 -5 -19 -10 -25 -10 -5 0 -3 5 5 10 8 5 20 10 25 10 6 0 3 -5 -5 -10z m-844 -25 c-25 -19 -36 -19 -36 0 0 10 10 15 28 15 26 -1 26 -1 8 -15z m1706 -33 c21 -21 23 -31 22 -120 -1 -155 -49 -369 -88 -394 -21 -14 -63 -8 -81 12 -13 15 -19 46 -25 133 -9 127 -19 155 -82 223 -33 36 -42 54 -46 93 -7 74 12 83 160 79 107 -3 120 -5 140 -26z m-497 -22 c20 0 55 -85 55 -133 0 -55 -30 -87 -81 -87 -57 0 -79 34 -79 121 0 67 1 70 33 89 17 11 38 18 45 15 8 -3 20 -5 27 -5z"></path> 
</g>
</svg>