<svg xmlns="http://www.w3.org/2000/svg" viewBox="0 0 443 607">
<g transform="translate(5,607) scale(0.1,-0.1)">
<path fill="#1e293b" d="M2640 5126 c-41 -7 -93 -18 -115 -24 -114 -31 -189 -43 -490 -72 -154 -15 -510 -20 -630 -9 -55 5 -146 21 -202 34 -57 14 -125 25 -153 25 -49 0 -52 -2 -66 -35 -16 -40 -18 -83 -5 -119 26 -67 237 -234 349 -276 95 -35 227 -34 512 5 251 34 799 72 902 62 61 -6 132 -25 193 -52 72 -32 179 -55 218 -46 73 17 110 76 87 140 -42 116 -218 291 -353 351 -56 25 -155 31 -247 16z"></path> 
<path fill="#ef4444" d="M1850 3356 c-47 -25 -122 -119 -147 -184 -14 -38 -15 -54 -4 -122 13 -86 6 -132 -30 -199 -10 -20 -19 -52 -19 -71 0 -29 6 -39 36 -59 32 -22 50 -26 163 -31 146 -7 195 -23 203 -65 4 -21 -2 -34 -29 -61 -31 -31 -39 -34 -93 -34 -60 0 -60 0 -60 -30 0 -18 11 -42 28 -61 23 -26 37 -32 83 -36 64 -6 109 -40 109 -83 0 -42 -27 -59 -100 -62 -63 -3 -65 -4 -68 -32 -7 -59 3 -73 60 -80 73 -10 98 -28 98 -71 0 -18 -7 -40 -15 -49 -43 -42 -186 -23 -239 33 -24 25 -29 42 -42 137 -19 150 -22 159 -61 226 -76 129 -148 165 -166 83 -9 -43 7 -260 24 -316 5 -19 16 -74 24 -124 17 -108 36 -180 53 -197 9 -9 61 -13 180 -14 92 -1 175 -2 184 -2 23 -2 51 -57 43 -83 -12 -38 -44 -46 -210 -55 -252 -13 -275 -11 -307 26 -15 19 -29 50 -33 77 -17 118 -71 193 -137 193 -34 0 -40 -4 -58 -39 -11 -22 -23 -71 -26 -109 -10 -100 -22 -113 -130 -129 -95 -13 -114 -26 -114 -73 0 -73 112 -206 198 -234 71 -24 82 -51 82 -208 0 -135 5 -151 72 -214 82 -79 160 -98 194 -46 21 32 25 165 10 368 -8 119 -8 121 16 149 27 31 65 39 249 51 151 10 189 -4 189 -70 0 -60 -65 -96 -177 -96 -43 0 -89 -3 -102 -7 -22 -6 -23 -8 -17 -75 16 -158 50 -208 140 -208 71 0 209 26 371 69 44 12 108 24 141 27 l61 7 32 -46 c17 -25 31 -52 31 -59 1 -65 111 -237 183 -286 47 -31 141 -47 198 -32 33 9 59 27 107 76 34 36 62 70 62 76 0 5 7 26 16 46 9 21 22 52 30 70 7 18 34 101 58 185 25 83 63 199 85 257 23 58 41 112 41 121 0 17 -39 79 -74 117 -62 68 -302 202 -360 202 -19 0 -53 -14 -86 -35 -77 -50 -175 -70 -336 -70 -116 0 -134 2 -153 19 -27 25 -27 51 2 80 21 21 36 24 163 30 76 5 153 14 170 21 98 41 238 232 251 343 9 77 -10 124 -72 180 -83 76 -118 85 -327 87 -199 2 -208 4 -208 66 0 58 23 68 176 79 71 5 168 10 215 10 110 0 136 16 125 76 -6 30 -21 51 -71 97 -80 74 -92 106 -69 176 31 96 4 163 -99 241 -74 56 -219 88 -261 57 -18 -13 -18 -17 -2 -83 10 -38 24 -86 32 -107 11 -30 12 -47 3 -85 -15 -61 -24 -77 -73 -135 -50 -60 -80 -76 -124 -67 -41 9 -59 33 -67 85 -6 35 -1 51 34 116 23 42 39 83 35 92 -3 8 -34 23 -71 33 -85 23 -108 43 -127 108 -19 65 -38 73 -96 42z m516 -40 c10 -8 16 -17 13 -20 -10 -10 -61 13 -54 24 8 14 18 13 41 -4z m-532 -138 c-22 -43 -24 -45 -24 -20 0 18 23 52 36 52 2 0 -3 -15 -12 -32z m-51 -353 c-3 -9 -8 -14 -10 -11 -3 3 -2 9 2 15 9 16 15 13 8 -4z m814 -419 c34 -31 37 -38 41 -101 6 -96 -11 -164 -52 -204 -40 -39 -81 -51 -175 -51 -63 0 -78 3 -98 22 -13 12 -23 33 -23 48 0 42 31 62 106 69 68 7 94 24 94 61 0 29 -23 40 -87 40 -60 0 -110 14 -125 35 -21 29 3 102 36 108 11 2 72 5 134 6 l112 1 37 -34z m281 -786 c47 -29 55 -59 47 -175 -10 -155 -29 -247 -65 -314 -36 -66 -48 -72 -96 -42 -27 16 -32 27 -37 72 -4 30 -7 75 -7 100 0 67 -24 124 -77 186 -37 44 -47 64 -51 102 -7 72 25 88 173 90 64 1 87 -3 113 -19z m-447 -59 c26 -27 29 -36 29 -99 0 -77 -11 -95 -70 -112 -24 -7 -40 -5 -62 6 -36 19 -48 49 -48 120 0 48 4 60 29 85 20 20 39 29 61 29 22 0 41 -9 61 -29z"></path> 
</g>
</svg>