<svg xmlns="http://www.w3.org/2000/svg" viewBox="0 0 443 607">
<g transform="translate(-5,607) scale(0.1,-0.1)">
<path fill="#1e293b" d="M1918 5543 c-39 -6 -88 -58 -88 -92 0 -21 16 -43 68 -93 37 -36 77 -70 89 -76 23 -13 94 -116 135 -197 14 -27 59 -117 99 -200 40 -82 92 -181 115 -220 23 -38 61 -108 84 -155 23 -46 58 -104 76 -129 19 -24 34 -48 34 -52 0 -4 14 -30 32 -56 66 -99 118 -160 171 -201 89 -69 115 -74 431 -79 355 -6 393 2 367 86 -13 45 -31 59 -190 146 -127 70 -267 182 -411 329 -128 130 -310 343 -310 362 0 4 -18 34 -40 65 -22 32 -40 59 -40 62 0 8 -157 260 -197 316 -47 67 -108 128 -146 148 -73 38 -178 51 -279 36z"></path> 
<path fill="#1e293b" d="M1682 5047 c-12 -13 -22 -27 -22 -31 0 -4 -11 -24 -25 -44 -14 -20 -25 -41 -25 -47 0 -5 -27 -62 -60 -125 -33 -63 -63 -123 -66 -133 -3 -9 -39 -72 -79 -139 -72 -118 -122 -186 -256 -352 -87 -107 -96 -124 -75 -145 13 -13 42 -17 141 -19 l125 -4 72 35 c82 40 230 158 328 263 86 92 287 350 327 422 18 31 33 67 33 78 0 25 -74 98 -141 139 -24 15 -62 39 -84 55 -59 40 -121 70 -148 70 -13 0 -33 -10 -45 -23z"></path> 
<path fill="#ef4444" d="M2015 3293 c-11 -3 -32 -14 -47 -25 -35 -24 -118 -132 -118 -152 0 -8 -5 -18 -11 -22 -11 -6 -8 -94 7 -214 5 -40 2 -50 -27 -89 -60 -83 -37 -157 56 -180 24 -6 79 -11 122 -11 136 0 180 -25 167 -94 -7 -39 -35 -56 -94 -56 -21 0 -45 -3 -54 -6 -25 -10 -19 -50 14 -87 25 -29 39 -35 86 -41 78 -9 94 -20 94 -61 0 -53 -24 -68 -125 -77 -32 -3 -42 -27 -31 -73 5 -19 17 -26 64 -35 71 -15 82 -24 82 -65 0 -52 -24 -65 -117 -65 l-81 0 -35 39 c-38 42 -42 55 -57 194 -11 106 -40 174 -101 239 -50 53 -80 66 -102 43 -21 -21 -31 -113 -18 -161 6 -21 11 -56 11 -77 0 -21 4 -57 9 -80 5 -23 15 -69 21 -102 25 -130 53 -231 68 -248 14 -16 32 -18 178 -15 147 3 164 1 183 -16 28 -26 28 -71 -1 -90 -15 -10 -63 -17 -138 -21 -63 -3 -146 -11 -183 -17 -57 -8 -76 -7 -111 6 -47 18 -61 39 -71 106 -11 80 -25 119 -56 155 -26 30 -38 35 -73 35 -28 0 -48 -6 -59 -18 -19 -21 -36 -91 -37 -152 -1 -73 -25 -91 -135 -105 -72 -8 -95 -26 -95 -72 0 -78 78 -179 187 -239 72 -41 70 -36 76 -210 4 -130 15 -154 105 -234 51 -45 61 -50 104 -50 40 0 50 4 64 26 18 26 19 61 11 406 -2 93 -1 99 24 123 24 24 35 27 177 37 188 15 203 11 216 -55 8 -39 6 -50 -8 -66 -19 -21 -112 -41 -193 -41 -32 0 -55 -5 -63 -15 -27 -33 12 -205 55 -242 23 -20 37 -23 113 -23 91 0 261 30 386 69 135 42 178 26 214 -79 54 -157 150 -287 236 -320 51 -19 135 -12 182 15 92 54 148 163 230 450 19 66 52 166 74 222 50 128 51 167 7 224 -46 61 -154 137 -297 209 -84 43 -116 42 -182 -1 -79 -53 -232 -84 -376 -78 -67 3 -84 8 -96 24 -20 26 -20 55 0 83 13 19 24 22 92 22 203 1 278 29 365 135 123 150 149 301 68 388 -83 90 -187 123 -366 114 -95 -5 -116 -3 -153 13 -41 19 -43 21 -40 57 5 58 30 65 253 75 223 9 251 13 259 34 13 33 -13 92 -56 126 -107 85 -115 106 -82 210 16 47 16 54 0 103 -19 60 -76 118 -150 154 -81 39 -216 37 -216 -4 0 -8 11 -48 25 -87 28 -80 32 -143 11 -191 -18 -43 -110 -153 -133 -159 -10 -3 -39 1 -65 9 -36 10 -48 19 -56 42 -14 40 -1 92 37 143 20 26 31 54 31 74 0 31 -2 33 -57 45 -68 16 -104 44 -127 101 -33 79 -34 80 -71 71z m515 -118 c0 -8 -4 -15 -10 -15 -5 0 -10 7 -10 15 0 8 5 15 10 15 6 0 10 -7 10 -15z m205 -765 c3 -5 -1 -10 -9 -10 -8 0 -18 5 -21 10 -3 6 1 10 9 10 8 0 18 -4 21 -10z m-58 -56 c38 -6 43 -10 63 -55 19 -44 20 -58 12 -139 -14 -137 -40 -164 -174 -182 -103 -14 -141 -1 -146 47 -5 47 16 65 86 75 71 10 87 19 97 57 11 44 -17 63 -94 63 -86 0 -106 6 -120 36 -18 40 9 81 61 92 49 11 154 14 215 6z m268 -651 c-22 -16 -59 -18 -50 -2 9 14 48 28 59 21 5 -3 1 -11 -9 -19z m64 -182 c33 -31 35 -38 32 -151 -3 -93 -16 -174 -43 -265 -24 -78 -46 -105 -89 -105 -45 0 -59 31 -59 132 0 103 -24 180 -75 237 -54 61 -70 97 -59 128 13 38 58 52 170 52 88 1 93 0 123 -28z m-468 -34 c38 -32 51 -78 38 -135 -12 -56 -22 -69 -59 -77 -46 -10 -83 16 -104 74 -17 49 -17 52 1 88 11 23 32 45 53 55 43 22 40 22 71 -5z"></path> 
</g>
</svg>