<svg xmlns="http://www.w3.org/2000/svg" viewBox="0 0 444 608">
<g transform="translate(-3.475538160469667,620.1646160373356) scale(0.1,-0.1)">
<path fill="#1e293b" d="M875 5312 c-117 -36 -169 -68 -252 -156 -62 -67 -85 -99 -111 -162 -54 -131 -66 -268 -32 -398 49 -192 182 -339 365 -401 67 -22 97 -27 185 -27 107 0 153 10 245 53 108 51 212 166 259 285 35 91 59 225 51 289 -9 77 -52 206 -83 256 -75 115 -191 209 -311 249 -91 30 -237 36 -316 12z m-29 -199 c9 -16 40 -54 68 -86 47 -55 50 -62 54 -123 4 -57 2 -68 -19 -90 -48 -51 -129 -24 -243 80 -60 54 -68 66 -63 88 9 35 80 119 119 141 45 24 63 22 84 -10z m475 -20 c60 -56 95 -123 79 -153 -6 -11 -15 -20 -20 -20 -5 0 -41 -28 -81 -62 -71 -61 -73 -62 -131 -63 -53 0 -62 3 -84 28 -31 36 -32 98 -3 147 12 19 48 65 82 102 74 84 89 86 158 21z m-372 -403 c22 -11 35 -82 25 -135 -4 -23 -25 -58 -56 -93 -27 -32 -57 -69 -66 -84 -27 -46 -86 -33 -148 34 -69 74 -84 127 -41 149 12 7 47 37 79 66 31 30 69 58 85 63 39 12 101 12 122 0z m277 -1 c16 -5 51 -31 80 -57 28 -26 63 -57 78 -69 14 -12 26 -30 26 -41 0 -53 -118 -169 -174 -171 -21 -1 -56 26 -56 42 0 5 -19 33 -43 61 -24 28 -47 57 -52 65 -28 47 -21 142 13 169 19 15 91 16 128 1z"></path> 
<path fill="#1e293b" d="M2065 5295 c-123 -43 -228 -133 -296 -251 -74 -130 -98 -308 -60 -448 26 -92 45 -132 100 -206 81 -109 174 -168 324 -210 190 -53 383 3 524 153 62 66 95 122 127 217 37 113 43 215 17 322 -28 121 -61 180 -149 270 -59 61 -93 87 -156 117 -138 67 -303 81 -431 36z m432 -166 c34 -12 99 -74 119 -111 32 -61 12 -93 -117 -190 -46 -34 -57 -38 -109 -38 -51 0 -61 3 -79 26 -26 33 -28 92 -5 136 19 37 144 188 155 188 4 0 20 -5 36 -11z m-383 -61 c75 -84 100 -138 93 -202 -6 -61 -24 -76 -91 -76 -60 0 -80 12 -170 99 -58 55 -66 67 -66 99 0 31 8 44 57 89 80 75 103 73 177 -9z m76 -388 c14 -14 20 -33 20 -64 0 -74 -11 -105 -55 -154 -23 -26 -50 -62 -59 -79 -15 -30 -21 -33 -60 -33 -39 0 -48 5 -95 51 -31 32 -56 67 -63 92 -12 38 -11 40 20 66 18 14 56 49 86 78 55 53 71 59 144 62 30 1 48 -5 62 -19z m275 4 c19 -9 54 -37 78 -62 24 -26 55 -53 70 -59 22 -10 27 -19 27 -47 0 -60 -128 -182 -178 -169 -12 3 -42 33 -66 67 -24 34 -52 68 -61 76 -38 32 -56 116 -34 164 20 44 103 59 164 30z"></path> 
<path fill="#1e293b" d="M3348 5311 c-53 -11 -155 -65 -219 -115 -77 -61 -132 -147 -175 -274 -35 -104 -35 -110 -29 -207 12 -165 70 -293 184 -402 102 -98 242 -153 389 -153 154 0 256 38 360 135 82 75 125 143 157 248 26 81 27 97 22 210 -4 106 -9 132 -35 195 -35 83 -91 161 -170 233 -97 89 -199 128 -347 134 -55 2 -117 1 -137 -4z m-34 -206 c6 -11 32 -45 57 -75 62 -74 69 -90 69 -152 0 -72 -13 -88 -81 -95 l-55 -5 -74 59 c-112 90 -134 116 -125 150 3 15 33 54 65 86 53 53 62 58 96 55 24 -2 41 -10 48 -23z m464 -12 c40 -30 79 -88 88 -128 5 -28 0 -35 -56 -80 -35 -28 -74 -60 -89 -72 -17 -14 -47 -25 -81 -29 -47 -5 -59 -3 -82 15 -55 44 -41 137 31 216 21 23 47 55 57 71 10 16 23 32 29 36 16 12 67 -2 103 -29z m-357 -419 c29 -27 27 -132 -5 -182 -13 -20 -31 -44 -40 -52 -10 -7 -31 -33 -47 -57 -22 -31 -37 -43 -55 -43 -79 0 -191 133 -167 198 3 7 30 29 59 48 30 20 63 49 75 65 35 49 137 62 180 23z m277 2 c15 -8 36 -24 47 -36 11 -13 44 -40 73 -62 46 -34 52 -43 52 -74 0 -30 -9 -45 -59 -95 -49 -49 -65 -59 -93 -59 -19 0 -41 6 -50 13 -28 22 -118 136 -128 162 -22 59 -7 149 27 158 38 10 105 6 131 -7z"></path> 
<path fill="#15803d" d="M925 2134 c-82 -19 -129 -41 -201 -91 -104 -73 -177 -172 -218 -293 -28 -81 -33 -254 -11 -333 48 -171 157 -307 298 -372 102 -47 162 -58 283 -53 98 4 106 7 197 52 186 92 291 248 316 469 26 227 -105 466 -312 570 -127 63 -234 79 -352 51z m-18 -256 c37 -44 71 -87 75 -96 10 -25 9 -135 -1 -150 -12 -19 -68 -29 -118 -22 -31 5 -56 19 -92 51 -28 24 -66 57 -86 72 -45 37 -46 72 -5 132 35 51 112 105 139 98 11 -3 50 -41 88 -85z m374 76 c42 -21 107 -82 125 -115 8 -16 14 -44 14 -64 0 -28 -5 -37 -22 -44 -13 -5 -52 -34 -87 -65 -48 -42 -74 -57 -106 -62 -57 -8 -101 3 -120 29 -18 26 -19 101 -2 139 18 42 146 198 162 198 3 0 20 -7 36 -16z m-1 -476 c28 -24 66 -53 83 -66 88 -64 87 -94 -8 -189 -67 -67 -102 -79 -129 -45 -8 9 -38 46 -68 81 -74 88 -83 107 -82 170 2 71 24 91 99 91 48 0 58 -4 105 -42z m-302 20 c10 -13 15 -60 13 -124 -1 -23 -14 -46 -44 -80 -24 -27 -56 -69 -71 -93 -26 -41 -30 -43 -64 -37 -53 8 -148 105 -158 160 -6 37 -4 42 27 66 18 14 57 46 88 73 54 47 55 47 126 47 46 0 76 -5 83 -12z"></path> 
<path fill="#15803d" d="M2131 2120 c-41 -11 -88 -30 -105 -43 -17 -13 -51 -35 -76 -49 -51 -30 -76 -56 -138 -147 -71 -103 -101 -205 -102 -341 0 -177 107 -372 260 -470 117 -75 281 -105 411 -76 194 43 344 183 416 388 37 103 39 253 4 348 -52 144 -104 219 -199 290 -73 55 -121 78 -209 101 -95 24 -167 23 -262 -1z m457 -223 c89 -86 94 -129 22 -181 -27 -20 -50 -40 -50 -46 0 -5 -20 -23 -44 -40 -38 -26 -54 -30 -109 -30 -73 0 -91 13 -102 71 -13 71 13 120 145 277 18 22 20 22 57 7 21 -9 57 -35 81 -58z m-447 -22 c85 -98 107 -153 89 -217 -13 -47 -34 -58 -103 -58 -45 0 -61 5 -92 30 -21 17 -43 36 -49 44 -6 7 -32 28 -58 45 -44 29 -48 35 -48 71 0 22 5 40 10 40 6 0 10 6 10 13 0 14 74 88 105 105 43 24 61 14 136 -73z m76 -391 c7 -10 13 -43 13 -77 0 -55 -3 -62 -54 -130 -97 -128 -100 -131 -127 -124 -68 17 -169 129 -169 186 1 19 13 35 45 59 24 17 48 32 52 32 4 0 19 14 33 31 30 35 74 49 144 45 34 -2 54 -9 63 -22z m320 -28 c34 -29 75 -63 92 -75 24 -18 31 -30 31 -57 0 -29 -10 -44 -65 -99 -58 -58 -69 -65 -104 -65 -35 0 -42 4 -65 43 -14 23 -40 58 -59 77 -48 50 -57 71 -57 136 0 80 15 94 99 94 66 0 67 0 128 -54z"></path> 
<path fill="#15803d" d="M3395 2126 c-75 -18 -154 -53 -162 -72 -3 -8 -14 -14 -25 -14 -24 0 -158 -132 -158 -155 0 -8 -4 -15 -10 -15 -5 0 -10 -7 -10 -16 0 -9 -8 -28 -19 -42 -10 -15 -29 -61 -42 -102 -61 -195 -10 -404 135 -557 103 -110 251 -173 401 -173 146 0 271 56 387 172 121 121 175 262 166 433 -8 143 -86 314 -184 407 -116 109 -329 168 -479 134z m-82 -185 c16 -10 36 -30 45 -44 10 -15 37 -51 61 -82 42 -53 45 -60 45 -120 1 -84 -12 -98 -91 -98 -68 0 -103 16 -158 73 -22 23 -55 50 -72 61 -26 16 -33 27 -33 52 0 51 118 173 170 177 3 0 18 -9 33 -19z m514 -54 c54 -55 63 -69 63 -100 0 -31 -7 -43 -46 -79 -107 -99 -166 -125 -242 -107 -48 11 -62 32 -62 97 0 60 9 81 56 134 18 21 45 55 59 78 23 36 29 40 67 40 37 0 47 -6 105 -63z m-386 -396 c21 -17 24 -28 24 -85 0 -39 -5 -70 -12 -77 -7 -7 -13 -21 -13 -32 0 -10 -4 -16 -8 -13 -9 5 -54 -40 -95 -96 -18 -25 -36 -38 -51 -38 -51 0 -176 130 -176 182 0 30 17 55 42 62 13 3 45 26 72 52 60 55 76 63 142 63 37 1 59 -5 75 -18z m294 -12 c26 -17 72 -51 102 -77 45 -39 53 -51 53 -80 0 -62 -100 -162 -162 -162 -22 0 -39 14 -83 70 -31 39 -60 70 -66 70 -17 0 -39 67 -39 120 0 69 22 90 93 90 42 0 63 -6 102 -31z"></path> 
<path fill="#ef4444" d="M900 3716 c-82 -25 -114 -41 -176 -83 -69 -47 -164 -148 -164 -174 0 -9 -9 -28 -21 -42 -45 -58 -61 -136 -57 -279 3 -120 6 -140 32 -203 36 -87 53 -110 143 -202 79 -79 98 -91 201 -128 53 -19 89 -25 154 -25 179 0 271 34 381 143 130 128 202 312 186 473 -23 227 -179 440 -374 509 -66 24 -243 30 -305 11z m-35 -201 c120 -133 122 -136 128 -207 2 -38 1 -68 -3 -68 -4 0 -10 -9 -13 -19 -6 -24 -59 -36 -121 -27 -31 5 -58 19 -95 51 -28 24 -66 54 -84 66 -41 29 -47 38 -47 71 0 29 83 128 135 160 37 22 62 16 100 -27z m423 31 c15 -8 48 -36 74 -63 36 -36 49 -58 54 -91 6 -42 5 -44 -42 -88 -97 -90 -131 -108 -205 -109 -89 0 -109 17 -109 91 0 70 12 98 68 160 26 29 59 66 73 83 30 34 47 38 87 17z m72 -310 c0 -2 -8 -10 -17 -17 -16 -13 -17 -12 -4 4 13 16 21 21 21 13z m-384 -138 c13 -14 23 -86 17 -131 -5 -39 -15 -58 -60 -108 -30 -34 -58 -72 -63 -85 -15 -38 -76 -33 -128 9 -41 32 -81 77 -98 110 -16 29 -5 85 19 93 12 4 45 29 73 56 62 58 113 77 185 68 27 -4 51 -9 55 -12z m273 -3 c14 -7 40 -27 56 -45 17 -17 46 -41 66 -52 76 -43 76 -100 -1 -174 -101 -98 -117 -97 -212 6 -86 95 -97 116 -98 191 0 56 11 77 50 92 22 9 109 -2 139 -18z"></path> 
<path fill="#ef4444" d="M2165 3719 c-16 -5 -55 -17 -85 -26 -30 -10 -65 -28 -76 -41 -16 -18 -23 -21 -26 -11 -7 20 -156 -132 -170 -173 -6 -18 -24 -53 -40 -78 -85 -137 -71 -402 29 -555 44 -67 159 -173 216 -199 146 -66 233 -78 367 -51 131 28 217 84 304 200 67 90 100 161 120 257 22 107 20 169 -9 262 -77 255 -300 429 -544 425 -31 0 -69 -5 -86 -10z m-58 -75 c-3 -3 -12 -4 -19 -1 -8 3 -5 6 6 6 11 1 17 -2 13 -5z m397 -94 c23 0 106 -70 131 -111 42 -65 35 -87 -47 -160 -92 -81 -107 -89 -183 -89 -80 0 -105 18 -112 82 -7 64 10 108 65 164 26 27 54 63 61 81 13 32 33 44 59 37 8 -2 19 -4 26 -4z m-375 -67 c76 -81 100 -129 101 -201 0 -73 -22 -91 -107 -92 -57 0 -64 3 -114 43 -29 23 -73 58 -98 77 -58 45 -64 76 -25 132 34 48 119 108 154 108 18 0 43 -19 89 -67z m-352 -215 c-3 -8 -6 -5 -6 6 -1 11 2 17 5 13 3 -3 4 -12 1 -19z m704 -173 c15 -8 62 -45 103 -81 72 -62 76 -69 76 -108 0 -37 -6 -46 -61 -98 -52 -49 -66 -58 -98 -58 -34 0 -44 7 -106 76 -82 91 -105 134 -105 192 0 35 6 49 30 74 29 28 34 30 82 24 28 -4 64 -14 79 -21z m-277 -6 c26 -21 27 -25 23 -88 -7 -97 -17 -131 -36 -131 -9 0 -36 -29 -61 -65 -50 -72 -66 -78 -128 -46 -75 38 -155 152 -138 196 3 8 20 24 39 37 19 13 62 44 97 71 57 43 67 47 120 47 43 0 64 -5 84 -21z m-4 -263 c0 -15 -40 -69 -47 -63 -4 5 36 77 43 77 2 0 4 -6 4 -14z"></path> 
<path fill="#ef4444" d="M3356 3708 c-35 -8 -50 -16 -54 -30 -3 -13 -7 -16 -12 -8 -10 17 -61 -17 -54 -35 8 -19 -36 -41 -47 -24 -10 17 -159 -137 -159 -164 0 -11 -9 -32 -21 -49 -41 -57 -60 -143 -59 -274 0 -128 -1 -125 68 -262 69 -137 202 -236 373 -278 l104 -26 90 17 c127 24 201 63 289 155 160 168 214 383 146 584 -67 198 -226 355 -401 395 -55 13 -198 12 -263 -1z m-3 -45 c8 -7 -11 -33 -23 -33 -5 0 -6 9 -3 20 5 20 15 25 26 13z m-19 -147 c149 -164 174 -239 103 -314 -20 -21 -27 -23 -82 -17 -70 8 -86 16 -141 64 -23 20 -60 51 -83 70 -38 30 -41 36 -36 65 7 33 80 116 130 147 44 28 73 24 109 -15z m498 -45 c50 -51 58 -64 58 -97 0 -38 -30 -84 -55 -84 -6 0 -23 -12 -38 -27 -60 -64 -84 -76 -157 -77 -80 -1 -96 9 -110 70 -15 61 -2 98 51 159 27 31 56 70 65 86 34 67 104 56 186 -30z m-828 -254 c-7 -92 -24 -110 -24 -25 0 46 18 123 27 114 2 -2 0 -42 -3 -89z m436 -127 c11 -11 20 -27 20 -35 0 -8 5 -24 12 -34 19 -31 -8 -98 -64 -156 -26 -28 -48 -57 -48 -65 0 -25 -42 -60 -72 -60 -42 0 -77 21 -130 78 -55 58 -70 108 -44 147 9 14 23 25 32 25 8 0 39 22 67 49 69 64 82 70 150 71 44 0 62 -5 77 -20z m286 -8 c22 -15 68 -51 102 -81 60 -52 62 -56 62 -101 0 -44 -4 -51 -48 -92 -78 -73 -156 -87 -180 -33 -7 14 -31 47 -55 73 -68 74 -77 91 -77 150 0 87 23 110 110 111 33 1 56 -6 86 -27z m-282 -244 c-8 -26 -55 -86 -67 -87 -14 -2 4 42 32 76 31 37 45 42 35 11z"></path> 
</g>
</svg>