<svg xmlns="http://www.w3.org/2000/svg" viewBox="0 0 443 608">
<g transform="translate(-12.136986301369863,608) scale(0.1,-0.1)">
<path fill="#15803d" d="M1071 5609 c-171 -33 -342 -193 -403 -375 -20 -60 -23 -89 -23 -214 0 -135 2 -150 28 -215 72 -181 222 -315 405 -361 46 -11 98 -15 191 -12 125 3 129 4 206 42 60 30 98 58 164 125 80 80 88 92 119 176 45 125 56 186 49 281 -15 206 -141 410 -305 493 -104 52 -180 71 -285 70 -56 -1 -122 -5 -146 -10z m476 -244 c84 -88 94 -132 36 -157 -15 -7 -49 -32 -76 -56 -55 -51 -102 -72 -154 -72 -44 0 -55 6 -72 37 -12 23 -14 98 -3 124 4 9 26 38 50 65 24 26 53 65 65 86 19 32 27 38 57 38 30 0 44 -9 97 -65z m-507 35 c6 -11 35 -47 64 -80 54 -60 66 -90 66 -160 0 -26 -7 -43 -24 -59 -22 -20 -33 -23 -83 -19 -56 4 -62 7 -151 82 -51 42 -92 84 -92 92 0 28 28 70 79 117 42 40 56 47 90 47 30 0 43 -5 51 -20z m114 -442 c10 -15 16 -44 16 -83 -1 -58 -2 -62 -60 -134 -33 -41 -60 -80 -60 -87 0 -23 -31 -45 -54 -38 -31 10 -104 72 -137 117 -33 46 -37 80 -11 102 72 64 151 121 181 131 58 21 107 18 125 -8z m258 4 c31 -10 80 -38 109 -63 30 -24 63 -49 74 -55 54 -30 17 -116 -79 -185 -63 -46 -81 -41 -161 52 -79 91 -83 99 -84 154 -1 62 9 86 43 101 39 17 33 17 98 -4z"></path> 
<path fill="#15803d" d="M2165 4933 c-95 -21 -183 -72 -271 -155 -76 -73 -105 -121 -144 -242 -47 -143 -23 -362 52 -496 47 -82 159 -189 240 -227 111 -53 171 -67 298 -67 115 -1 115 -1 200 40 155 74 253 175 312 320 31 76 32 85 33 219 0 111 -4 152 -18 195 -37 110 -71 164 -152 245 -127 127 -248 176 -430 174 -55 -1 -109 -3 -120 -6z m421 -201 c21 -16 54 -46 72 -66 59 -67 63 -110 13 -139 -15 -8 -43 -32 -61 -52 -56 -58 -95 -78 -156 -79 -66 -1 -93 21 -101 82 -8 62 2 86 67 158 33 36 60 71 60 77 0 17 32 47 50 47 9 0 35 -13 56 -28z m-452 -7 c6 -11 32 -45 57 -75 62 -75 69 -90 69 -156 0 -77 -16 -94 -87 -94 -66 0 -78 6 -175 88 -97 81 -101 104 -35 180 23 27 53 56 67 65 34 22 90 17 104 -8z m100 -446 c23 -18 26 -27 26 -87 0 -67 0 -67 -59 -140 -33 -40 -62 -81 -66 -91 -11 -35 -52 -35 -106 0 -62 39 -95 79 -111 131 -11 37 -10 42 6 52 11 6 53 40 94 76 75 64 82 67 178 79 6 0 23 -8 38 -20z m344 -32 c31 -29 74 -65 95 -81 29 -22 37 -35 37 -61 0 -26 -11 -43 -64 -93 -56 -54 -69 -62 -103 -62 -35 1 -43 7 -103 77 -72 85 -88 117 -89 181 -1 65 30 92 109 92 59 0 62 -1 118 -53z"></path> 
<path fill="#15803d" d="M3275 4253 c-94 -13 -191 -62 -277 -141 -76 -71 -114 -126 -143 -210 -100 -287 -11 -582 225 -742 116 -79 223 -107 372 -97 77 5 100 11 171 46 111 54 185 115 239 198 63 95 95 190 103 304 27 361 -233 654 -575 648 -47 -1 -98 -4 -115 -6z m-25 -249 c30 -36 63 -76 73 -89 24 -29 33 -130 15 -164 -16 -30 -59 -43 -113 -36 -30 4 -60 22 -115 66 -117 95 -120 98 -120 118 0 23 61 98 114 140 59 47 82 42 146 -35z m440 36 c16 -12 46 -42 66 -68 47 -62 45 -106 -5 -135 -19 -10 -59 -41 -90 -68 -54 -48 -57 -49 -118 -49 -81 0 -103 19 -103 88 0 54 13 83 68 150 22 26 47 62 57 81 16 31 19 33 55 28 22 -3 53 -15 70 -27z m-111 -421 c18 -6 43 -21 56 -33 12 -11 44 -37 70 -56 52 -39 95 -80 95 -93 0 -34 -85 -139 -131 -163 -50 -25 -64 -18 -139 70 -94 114 -108 155 -75 231 20 50 63 65 124 44z m-255 -30 c21 -17 26 -29 26 -68 0 -55 -21 -100 -78 -168 -23 -27 -42 -54 -42 -60 0 -5 -9 -18 -20 -28 -29 -26 -83 -7 -142 51 -74 72 -89 154 -32 168 14 4 49 29 78 55 66 62 82 70 137 71 32 0 54 -6 73 -21z"></path> 
<path fill="#ef4444" d="M1569 3005 c-71 -18 -160 -57 -178 -79 -8 -10 -26 -23 -41 -31 -14 -7 -52 -48 -84 -89 -73 -96 -111 -199 -126 -343 -10 -94 -9 -108 14 -190 32 -119 36 -128 98 -208 112 -144 271 -235 430 -243 96 -5 211 16 288 51 68 32 218 187 257 267 67 139 83 318 39 448 -81 238 -233 377 -456 418 -93 17 -168 16 -241 -1z m-40 -196 c14 -17 50 -57 79 -89 58 -63 74 -116 61 -194 -7 -44 -16 -51 -71 -60 -66 -11 -108 8 -201 90 -95 83 -102 101 -68 159 20 34 135 125 158 125 8 0 27 -14 42 -31z m475 0 c48 -32 116 -120 116 -150 0 -20 -141 -160 -178 -176 -40 -18 -143 -16 -170 3 -19 13 -22 24 -22 78 0 70 18 105 90 181 22 22 43 52 49 68 14 37 54 36 115 -4z m-385 -440 c42 -15 51 -35 51 -113 l0 -66 -61 -67 c-34 -37 -65 -78 -70 -90 -7 -19 -16 -23 -54 -23 -43 0 -51 4 -101 54 -58 58 -78 97 -70 131 7 28 156 153 204 170 47 17 61 18 101 4z m316 -8 c22 -10 63 -38 90 -63 28 -25 60 -50 73 -57 55 -29 10 -137 -85 -200 -59 -40 -86 -39 -120 1 -16 18 -49 55 -75 83 -53 57 -76 125 -64 188 12 64 97 87 181 48z"></path> 
<path fill="#ef4444" d="M2865 3008 c-152 -39 -214 -74 -303 -166 -60 -64 -104 -139 -135 -232 -18 -53 -22 -88 -22 -185 0 -129 17 -192 81 -314 84 -161 272 -275 475 -288 147 -10 263 34 392 147 58 52 116 138 158 237 32 76 33 82 32 213 0 122 -3 142 -27 209 -52 139 -133 238 -252 309 -38 23 -92 49 -119 57 -62 20 -226 27 -280 13z m-61 -199 c14 -17 26 -34 26 -39 0 -4 22 -31 49 -59 39 -41 49 -59 55 -97 10 -77 7 -103 -15 -125 -18 -18 -30 -21 -90 -17 -65 3 -71 6 -112 46 -24 24 -66 57 -93 75 -64 42 -68 70 -21 131 34 45 76 84 112 104 34 19 62 13 89 -19z m467 3 c15 -9 45 -39 68 -67 31 -37 41 -58 41 -85 0 -42 -7 -52 -42 -71 -15 -8 -51 -36 -82 -62 -47 -42 -62 -49 -109 -54 -73 -7 -99 0 -120 36 -34 57 -14 145 46 206 18 17 47 50 65 73 28 36 39 42 70 42 20 0 49 -8 63 -18z m-364 -449 c24 -9 33 -50 26 -116 -6 -56 -11 -66 -54 -112 -26 -27 -54 -67 -62 -87 -32 -77 -105 -54 -203 64 -28 33 -34 48 -32 76 3 31 14 44 93 108 50 40 99 75 110 78 22 4 99 -2 122 -11z m319 -11 c21 -16 45 -37 53 -46 8 -10 34 -31 58 -47 38 -27 43 -34 43 -70 0 -21 -6 -49 -12 -62 -19 -32 -50 -67 -61 -67 -5 0 -22 -11 -39 -25 -53 -45 -75 -36 -163 67 l-80 91 -3 68 c-4 62 -2 70 21 93 22 22 35 26 85 26 49 0 66 -5 98 -28z"></path> 
<path fill="#ef4444" d="M2870 1698 c-25 -5 -54 -11 -66 -14 -11 -2 -37 -15 -58 -29 -20 -14 -42 -25 -49 -25 -38 0 -210 -184 -224 -240 -3 -14 -10 -30 -15 -37 -25 -32 -48 -142 -48 -231 0 -95 14 -165 52 -252 37 -86 52 -109 117 -177 183 -190 470 -227 702 -91 52 30 174 156 192 196 6 15 17 34 24 43 24 29 54 151 60 244 7 104 -16 216 -64 314 -61 122 -218 246 -363 285 -73 20 -204 27 -260 14z m-92 -174 c12 -4 30 -20 38 -36 8 -16 39 -56 69 -88 48 -52 53 -63 60 -118 9 -78 1 -101 -41 -118 -73 -31 -127 -13 -240 81 -68 57 -84 75 -84 98 0 41 51 109 112 150 59 41 55 39 86 31z m509 -33 c62 -49 94 -98 95 -143 0 -26 -5 -44 -12 -46 -7 -3 -39 -28 -70 -57 -91 -83 -111 -92 -213 -86 -36 1 -67 51 -67 107 0 44 37 108 106 185 17 20 35 47 39 59 6 19 11 21 48 14 23 -3 56 -18 74 -33z m-367 -439 c16 -13 24 -32 28 -70 6 -65 -9 -103 -66 -167 -41 -46 -64 -85 -66 -110 -1 -15 -45 -18 -76 -5 -38 16 -127 111 -146 156 -16 38 -11 74 10 74 8 0 46 29 85 64 40 36 84 67 99 69 67 10 110 6 132 -11z m326 -30 c32 -26 76 -58 97 -71 57 -35 62 -52 32 -110 -31 -62 -124 -141 -166 -141 -23 0 -34 8 -55 43 -15 23 -44 61 -65 83 -56 62 -72 99 -66 153 3 25 10 47 16 49 6 2 11 10 11 17 0 18 16 23 81 24 51 1 59 -2 115 -47z"></path> 
<path fill="#ef4444" d="M1570 1694 c-8 -3 -29 -12 -47 -20 -17 -8 -35 -14 -40 -14 -15 0 -117 -72 -161 -114 -38 -35 -112 -136 -112 -151 0 -3 -8 -24 -19 -48 -30 -69 -41 -132 -41 -231 0 -125 12 -182 59 -280 67 -138 199 -249 354 -297 140 -43 310 -23 444 53 67 38 186 152 206 198 9 19 23 46 31 60 8 14 24 60 36 104 69 244 -46 533 -265 665 -97 59 -155 74 -300 77 -71 2 -137 1 -145 -2z m405 -183 c22 -10 64 -44 93 -75 49 -52 53 -59 50 -98 -2 -33 -8 -45 -26 -54 -13 -7 -40 -27 -60 -46 -64 -61 -110 -82 -174 -83 -68 0 -87 14 -95 73 -9 70 4 106 62 171 30 34 55 67 55 74 0 18 29 57 43 57 7 0 30 -9 52 -19z m-433 -8 c10 -9 18 -22 18 -30 0 -8 22 -38 48 -66 52 -56 68 -87 77 -157 6 -40 3 -48 -19 -69 -30 -28 -99 -38 -149 -22 -20 7 -58 31 -84 55 -26 23 -63 52 -80 65 -46 31 -51 61 -20 113 60 102 160 155 209 111z m113 -458 c21 -21 25 -33 25 -89 0 -60 -2 -67 -40 -113 -22 -26 -56 -72 -76 -100 -23 -33 -44 -53 -56 -53 -61 0 -188 131 -188 193 0 34 24 67 50 67 9 0 27 12 41 26 80 87 195 119 244 69z m346 -35 c138 -104 151 -127 104 -190 -34 -47 -106 -110 -131 -116 -41 -10 -67 0 -87 35 -10 19 -39 58 -63 87 -52 60 -68 108 -59 167 11 62 18 67 99 67 70 0 72 -1 137 -50z"></path> 
</g>
</svg>