<svg xmlns="http://www.w3.org/2000/svg" viewBox="0 0 443 608">
<g transform="translate(3.2661448140900196,593) scale(0.1,-0.1)">
<path fill="#15803d" d="M1315 4760 c-113 -13 -227 -54 -293 -107 -80 -64 -137 -128 -177 -198 -127 -225 -137 -497 -28 -725 39 -81 58 -108 132 -180 129 -128 255 -185 436 -200 202 -16 351 38 499 179 156 149 226 322 226 556 0 126 -59 289 -147 405 -79 106 -213 201 -334 238 -61 19 -204 44 -232 41 -7 -1 -43 -5 -82 -9z m-95 -267 c14 -29 48 -76 76 -105 57 -58 74 -98 74 -167 0 -84 -49 -116 -154 -102 -47 6 -63 15 -128 72 -41 35 -89 72 -106 81 -28 15 -32 22 -32 58 0 38 6 47 89 131 81 82 92 90 123 87 29 -3 36 -9 58 -55z m511 31 c47 -24 92 -67 131 -128 53 -82 50 -112 -12 -131 -14 -4 -60 -38 -102 -76 -70 -61 -82 -68 -134 -75 -68 -8 -119 12 -135 52 -5 16 -7 53 -3 87 6 54 12 65 69 131 34 39 65 81 69 93 4 12 16 33 27 48 22 27 35 27 90 -1z m-389 -551 c32 -31 42 -69 33 -130 -5 -36 -20 -59 -75 -124 -38 -43 -74 -95 -80 -114 -11 -33 -14 -35 -56 -35 -41 0 -51 5 -101 53 -64 60 -113 131 -113 164 0 15 10 28 31 38 17 9 65 48 107 87 42 39 90 77 107 84 43 20 113 9 147 -23z m343 4 c17 -11 55 -42 85 -67 30 -26 74 -59 98 -74 23 -14 42 -28 42 -31 0 -21 -80 -142 -115 -174 -60 -56 -89 -68 -118 -52 -22 13 -146 158 -181 213 -27 42 -26 152 2 180 39 39 134 41 187 5z"></path> 
<path fill="#1e293b" d="M2825 4764 c-175 -21 -297 -91 -420 -243 -85 -104 -151 -286 -156 -431 -7 -195 79 -431 195 -538 60 -56 184 -136 244 -158 26 -10 56 -23 67 -30 11 -8 74 -16 147 -19 132 -7 130 -7 274 42 190 64 350 237 415 446 27 86 31 113 31 212 0 211 -66 370 -211 516 -163 162 -356 229 -586 203z m408 -238 c38 -16 134 -116 161 -167 23 -45 16 -66 -28 -84 -18 -8 -65 -43 -104 -79 -64 -58 -76 -65 -125 -71 -76 -10 -110 0 -131 37 -37 62 -4 177 70 241 14 12 38 42 52 67 45 79 48 81 105 56z m-533 -8 c6 -7 30 -38 53 -68 23 -30 59 -71 79 -91 30 -29 37 -44 43 -93 14 -107 -15 -146 -108 -146 -60 0 -96 18 -172 88 -33 30 -74 60 -91 68 -42 18 -47 35 -25 87 43 100 183 199 221 155z m160 -538 c17 -17 20 -33 20 -98 0 -85 -4 -95 -76 -173 -23 -25 -49 -59 -57 -75 -25 -48 -52 -67 -85 -59 -57 12 -192 157 -192 206 0 10 14 28 31 41 16 13 62 52 102 87 85 76 114 90 185 91 39 0 57 -5 72 -20z m317 9 c15 -5 55 -36 88 -68 33 -33 79 -71 103 -85 23 -14 42 -33 42 -42 0 -43 -73 -137 -155 -200 -30 -23 -39 -25 -60 -16 -13 6 -35 28 -48 49 -14 21 -47 63 -74 93 -61 67 -69 82 -78 142 -10 65 1 105 33 123 32 17 109 19 149 4z"></path> 
<path fill="#1e293b" d="M1260 2351 c-75 -20 -174 -68 -242 -118 -56 -41 -144 -144 -174 -205 -12 -24 -31 -62 -43 -86 -60 -122 -52 -397 18 -563 60 -143 217 -310 349 -371 117 -53 203 -70 317 -64 370 22 645 321 646 702 0 141 -15 213 -69 322 -77 155 -190 268 -332 334 -140 64 -336 85 -470 49z m512 -237 c20 -13 60 -54 88 -91 63 -83 65 -118 11 -145 -19 -10 -64 -47 -100 -82 -72 -71 -101 -86 -164 -86 -62 0 -89 18 -104 69 -22 78 1 139 91 242 23 26 54 65 69 88 31 47 43 48 109 5z m-521 -45 c23 -39 51 -76 61 -82 10 -7 30 -31 43 -54 20 -33 25 -55 25 -112 0 -79 -11 -93 -82 -106 -57 -11 -106 11 -169 74 -31 31 -78 71 -103 89 -44 31 -47 36 -40 65 14 63 111 169 173 187 45 14 49 12 92 -61z m114 -494 c21 -20 25 -33 25 -87 0 -74 -4 -82 -94 -184 -37 -44 -72 -89 -77 -101 -21 -55 -115 -7 -197 99 -50 66 -54 100 -14 125 15 10 62 50 106 90 83 76 90 79 174 82 44 1 57 -3 77 -24z m322 14 c15 -5 55 -36 88 -67 33 -31 79 -68 102 -82 51 -30 54 -52 14 -106 -42 -57 -122 -131 -154 -143 -37 -14 -58 -3 -96 52 -16 23 -41 53 -56 67 -57 53 -79 100 -80 172 0 57 3 70 24 92 20 22 33 26 77 26 29 0 65 -5 81 -11z"></path> 
<path fill="#15803d" d="M2840 2363 c-65 -11 -186 -59 -243 -96 -160 -106 -259 -254 -300 -449 -40 -187 -13 -373 75 -523 120 -201 332 -329 568 -342 308 -17 592 201 676 517 27 100 25 273 -4 380 -73 266 -274 455 -540 506 -69 13 -176 16 -232 7z m499 -289 c25 -28 59 -74 75 -103 l28 -53 -23 -24 c-12 -13 -29 -24 -37 -24 -8 0 -46 -31 -86 -69 -75 -73 -113 -91 -192 -91 -26 0 -51 7 -65 19 -22 17 -24 27 -24 103 0 93 -1 90 98 204 26 30 47 58 47 63 0 4 9 20 20 34 l21 26 45 -17 c30 -11 63 -35 93 -68z m-599 49 c151 -194 162 -213 168 -278 6 -82 -17 -120 -79 -130 -82 -14 -121 0 -195 71 -38 35 -86 73 -106 84 -71 38 -60 96 37 191 97 95 138 109 175 62z m136 -536 c23 -20 28 -34 32 -85 6 -87 -2 -107 -68 -176 -32 -34 -61 -73 -65 -88 -4 -14 -16 -36 -27 -48 -17 -18 -27 -21 -56 -15 -20 4 -49 16 -65 27 -39 28 -126 134 -133 162 -7 30 9 61 44 83 15 10 59 46 97 81 81 75 93 81 162 81 41 1 58 -4 79 -22z m320 13 c14 -6 58 -40 96 -75 39 -36 76 -65 83 -65 24 0 65 -41 65 -65 0 -45 -97 -155 -172 -195 -52 -28 -62 -26 -99 23 -18 23 -55 66 -81 94 -59 63 -78 106 -78 172 0 90 28 119 117 120 23 1 54 -4 69 -9z"></path> 
</g>
</svg>