<svg xmlns="http://www.w3.org/2000/svg" viewBox="0 0 443 608">
<g transform="translate(5,625.3389180999911) scale(0.1,-0.1)">
<path fill="#1e293b" d="M927 5516 c-55 -20 -111 -60 -141 -99 -88 -115 -98 -271 -25 -393 16 -26 19 -56 21 -210 l3 -180 -33 -65 c-43 -84 -51 -157 -27 -230 10 -30 27 -66 38 -80 15 -21 21 -54 28 -140 13 -162 4 -249 -34 -334 -28 -61 -32 -80 -32 -155 1 -99 15 -136 80 -208 50 -56 112 -89 194 -104 180 -34 361 120 361 307 0 44 -27 143 -52 190 -19 36 -22 59 -25 213 l-3 173 34 72 c24 49 37 93 41 137 6 62 4 69 -36 150 l-43 85 0 175 c0 169 1 177 26 225 54 104 56 211 7 312 -25 51 -98 118 -157 145 -57 26 -175 33 -225 14z m179 -187 c60 -29 85 -149 44 -216 -52 -86 -190 -84 -247 3 -24 37 -24 131 0 167 40 61 129 81 203 46z m-16 -391 c17 -19 20 -35 20 -128 0 -93 -3 -109 -20 -128 -30 -32 -89 -30 -121 4 -22 23 -24 33 -23 119 1 79 5 98 23 124 18 26 29 31 61 31 27 0 45 -7 60 -22z m7 -387 c59 -27 78 -61 78 -138 0 -56 -3 -67 -25 -84 -85 -69 -130 -75 -202 -30 -106 67 -85 213 38 256 51 18 61 18 111 -4z m-23 -373 c32 -14 46 -60 46 -149 0 -105 -26 -149 -89 -149 -19 0 -51 31 -70 67 -17 34 -14 174 5 201 27 38 67 50 108 30z m20 -392 c85 -35 119 -152 67 -228 -32 -47 -53 -59 -115 -65 -42 -4 -57 -1 -86 19 -64 43 -89 133 -55 199 21 40 91 89 127 89 16 0 44 -6 62 -14z"></path> 
<path fill="#1e293b" d="M2063 5521 c-83 -21 -173 -98 -211 -179 -21 -46 -23 -64 -20 -141 2 -74 8 -97 35 -152 l33 -64 1 -175 2 -175 -34 -70 c-29 -60 -34 -80 -34 -145 0 -66 5 -85 38 -156 l37 -82 0 -168 c0 -149 -2 -173 -19 -201 -49 -80 -64 -202 -35 -287 21 -62 101 -148 169 -181 44 -22 70 -27 137 -28 74 -2 89 1 141 28 33 16 78 51 103 78 88 98 96 227 24 381 -29 64 -30 68 -30 225 0 159 0 161 31 228 55 118 54 204 -1 317 -30 60 -30 63 -32 241 l-2 180 30 60 c26 54 29 70 29 155 0 87 -3 100 -30 150 -34 62 -106 121 -175 145 -56 19 -144 27 -187 16z m157 -192 c50 -28 70 -65 70 -131 0 -93 -53 -148 -143 -148 -54 0 -105 31 -129 80 -67 133 73 271 202 199z m-1 -395 c20 -26 22 -59 12 -227 -1 -19 -56 -57 -83 -57 -33 0 -69 43 -79 95 -13 67 -1 159 23 190 28 36 98 36 127 -1z m13 -387 c45 -19 83 -91 74 -140 -21 -109 -120 -163 -219 -119 -100 44 -118 164 -35 238 48 44 107 51 180 21z m-25 -372 c24 -17 43 -89 43 -163 0 -92 -53 -149 -117 -126 -43 15 -63 65 -62 159 0 44 4 88 8 99 16 41 89 59 128 31z m48 -415 c69 -66 70 -169 3 -232 -34 -33 -45 -38 -86 -38 -98 0 -151 56 -155 164 -2 50 1 58 33 91 46 48 65 56 124 50 38 -3 57 -12 81 -35z"></path> 
<path fill="#1e293b" d="M3143 5510 c-65 -34 -125 -92 -158 -155 -27 -52 -30 -68 -30 -149 0 -82 3 -97 33 -157 l32 -67 0 -177 0 -178 -32 -64 c-27 -55 -32 -76 -32 -141 0 -69 4 -84 37 -149 l37 -73 0 -176 c0 -169 -1 -179 -25 -229 -37 -74 -51 -175 -34 -244 20 -85 85 -166 163 -202 91 -42 176 -49 256 -19 192 72 255 254 161 468 -30 69 -31 73 -31 234 l0 163 32 65 c28 57 32 75 32 150 1 78 -2 91 -36 164 l-38 78 0 167 0 166 33 65 c29 60 32 73 32 160 0 113 -15 150 -87 223 -65 65 -123 90 -223 94 -67 4 -87 1 -122 -17z m179 -170 c111 -31 129 -201 27 -265 -88 -56 -194 -18 -220 79 -20 74 9 143 74 178 37 20 68 22 119 8z m7 -399 c23 -17 25 -27 29 -113 2 -75 0 -100 -15 -128 -23 -43 -69 -58 -112 -35 -35 18 -41 39 -44 159 -2 85 -1 89 26 112 34 29 82 31 116 5z m36 -410 c137 -97 23 -296 -143 -251 -75 20 -117 101 -93 179 14 47 47 79 102 96 54 17 83 12 134 -24z m-27 -365 c22 -21 32 -93 25 -174 -5 -62 -10 -76 -31 -92 -39 -31 -85 -26 -117 12 -26 30 -27 36 -23 131 3 96 4 100 33 123 23 19 38 24 64 20 19 -3 41 -12 49 -20z m5 -382 c50 -24 78 -67 83 -126 9 -95 -44 -158 -138 -165 -96 -7 -152 52 -152 160 1 50 5 62 30 88 53 56 119 72 177 43z"></path> 
<path fill="#15803d" d="M965 3101 c-47 -12 -75 -30 -134 -85 -112 -106 -128 -249 -46 -409 24 -46 25 -57 25 -220 l0 -172 -32 -60 c-25 -48 -32 -75 -36 -137 -4 -74 -3 -82 34 -155 l38 -78 4 -165 4 -166 -32 -69 c-28 -59 -33 -85 -37 -160 -4 -86 -3 -93 29 -155 37 -72 105 -132 173 -152 22 -7 81 -12 130 -12 106 0 149 18 209 85 103 113 113 246 33 409 -19 39 -22 65 -25 206 l-4 161 31 70 c59 136 59 196 -2 327 -32 70 -32 70 -32 236 l0 166 34 73 c31 69 33 78 29 159 -5 99 -26 152 -87 215 -54 58 -118 86 -203 92 -40 2 -86 1 -103 -4z m162 -186 c44 -18 67 -67 67 -137 -1 -104 -75 -170 -171 -155 -48 8 -82 34 -110 83 -27 47 -29 86 -4 139 41 89 115 113 218 70z m-38 -386 c44 -16 51 -35 51 -142 0 -80 -3 -98 -20 -120 -43 -55 -126 -41 -149 25 -18 52 -14 154 9 197 26 52 49 61 109 40z m58 -405 c89 -68 80 -207 -18 -256 -133 -68 -285 84 -209 208 31 50 76 74 139 74 43 0 61 -5 88 -26z m-16 -386 c19 -21 21 -31 17 -130 -5 -118 -12 -134 -63 -144 -80 -15 -115 31 -115 151 0 62 4 87 20 113 18 29 24 32 69 32 39 0 55 -5 72 -22z m-7 -368 c14 -5 39 -28 56 -51 25 -34 30 -52 30 -96 0 -71 -21 -110 -73 -134 -56 -25 -106 -24 -148 4 -68 45 -97 165 -54 223 41 55 125 79 189 54z"></path> 
<path fill="#15803d" d="M2101 3099 c-82 -16 -166 -83 -218 -174 -25 -44 -28 -60 -28 -136 0 -80 3 -91 38 -158 l37 -72 0 -176 0 -176 -31 -53 c-57 -100 -54 -226 7 -316 l29 -43 1 -175 2 -175 -34 -77 c-46 -106 -52 -160 -26 -245 39 -128 148 -212 287 -221 112 -7 177 16 247 88 67 69 83 111 83 225 0 71 -4 88 -34 150 -34 70 -35 71 -39 238 l-4 167 31 65 c57 118 57 209 0 322 -33 65 -33 68 -37 224 l-4 159 36 84 c59 138 49 260 -30 363 -66 87 -200 135 -313 112z m139 -181 c105 -53 110 -216 8 -278 -71 -43 -170 -15 -207 59 -37 71 -32 129 16 182 59 65 108 75 183 37z m-20 -395 c38 -26 40 -31 40 -141 0 -96 -2 -105 -25 -127 -33 -33 -87 -34 -120 -1 -27 27 -42 125 -30 196 13 77 78 112 135 73z m45 -399 c47 -36 65 -72 65 -133 0 -84 -65 -141 -161 -141 -49 0 -55 3 -95 44 -72 76 -71 165 3 222 67 51 128 54 188 8z m-12 -404 c14 -28 17 -54 15 -128 -3 -85 -5 -96 -27 -113 -33 -27 -92 -25 -119 4 -18 19 -21 36 -24 124 -3 96 -2 103 22 128 20 22 32 25 70 23 40 -3 47 -7 63 -38z m7 -362 c43 -30 70 -82 70 -134 0 -60 -16 -95 -57 -126 -48 -37 -126 -39 -168 -6 -37 29 -78 123 -71 161 22 108 141 163 226 105z"></path> 
<path fill="#15803d" d="M3202 3096 c-129 -42 -212 -156 -220 -302 -4 -74 -2 -86 28 -155 33 -73 33 -77 38 -254 l4 -179 -33 -65 c-30 -58 -34 -75 -34 -146 0 -72 4 -87 38 -155 l37 -75 0 -161 c0 -160 0 -163 -31 -228 -36 -76 -49 -193 -30 -263 17 -61 67 -122 141 -168 l65 -40 110 0 c102 0 113 2 156 27 48 29 93 79 125 138 14 27 18 57 19 130 0 89 -2 100 -37 176 l-38 82 0 160 0 160 32 58 c27 51 32 72 36 150 4 89 4 91 -34 164 l-39 74 -3 162 -4 163 36 79 c30 67 36 91 36 148 0 87 -12 130 -53 191 -71 106 -231 166 -345 129z m171 -181 c67 -43 89 -169 41 -232 -52 -69 -142 -85 -207 -35 -46 34 -62 73 -62 143 1 68 19 99 77 128 48 25 110 23 151 -4z m-15 -401 c24 -16 27 -31 23 -144 -5 -114 -30 -147 -106 -138 -52 6 -69 45 -70 157 0 83 3 102 19 119 30 34 86 36 134 6z m50 -407 c30 -30 36 -44 40 -91 8 -96 -27 -144 -120 -163 -41 -9 -54 -7 -95 12 -59 28 -83 66 -83 134 0 42 5 56 32 87 43 49 82 65 141 61 40 -4 55 -11 85 -40z m-40 -373 c20 -22 22 -36 22 -123 0 -84 -3 -102 -21 -125 -16 -21 -29 -26 -63 -26 -48 0 -66 15 -85 69 -16 50 -13 150 7 191 27 55 96 62 140 14z m-7 -368 c60 -25 90 -72 91 -146 2 -56 -34 -118 -78 -139 -34 -15 -99 -14 -132 3 -57 30 -76 62 -80 134 -3 58 -1 71 19 96 49 62 112 80 180 52z"></path> 
</g>
</svg>