<svg xmlns="http://www.w3.org/2000/svg" viewBox="0 0 443 608">
<g transform="translate(-16.608776661027907,616.3047459514675) scale(0.1,-0.1)">
<path fill="#1e293b" d="M1014 5358 c-29 -7 -32 -12 -38 -60 -4 -29 -5 -358 -2 -733 3 -374 8 -1006 11 -1405 12 -1783 18 -2277 26 -2298 l9 -24 1328 2 c1276 2 1426 4 1451 19 22 14 9 4418 -14 4473 -4 10 -17 20 -28 24 -31 10 -2706 12 -2743 2z m638 -188 c29 -8 44 -21 64 -56 46 -78 93 -86 143 -24 20 25 40 40 54 40 12 0 37 -17 58 -40 56 -61 70 -57 168 54 l33 38 72 -7 c87 -8 106 -23 82 -59 -14 -22 -24 -26 -62 -26 -39 0 -51 -5 -80 -34 -43 -43 -45 -79 -6 -124 23 -27 36 -33 87 -38 65 -7 85 -17 85 -44 0 -37 -35 -53 -111 -51 -40 1 -79 5 -86 10 -8 4 -31 30 -52 57 -20 27 -49 53 -64 58 -25 9 -31 6 -58 -27 -40 -48 -87 -51 -127 -8 -15 16 -37 32 -50 36 -32 9 -77 -27 -101 -81 -21 -46 -42 -55 -82 -34 -28 16 -23 50 16 98 46 58 50 76 28 115 -28 47 -56 56 -199 64 l-129 8 -3 37 c-3 31 0 37 20 41 47 9 264 7 300 -3z m926 0 c35 0 48 -5 67 -27 90 -106 98 -109 158 -54 24 23 48 41 53 41 4 0 24 -16 44 -35 22 -21 50 -38 71 -41 32 -6 37 -2 87 60 l53 66 152 0 c84 0 157 -4 164 -8 17 -11 27 -59 13 -67 -9 -5 -191 -15 -280 -15 -16 0 -50 -48 -62 -87 -4 -15 1 -34 16 -55 71 -106 76 -133 28 -145 -22 -5 -34 2 -82 54 -68 72 -93 81 -126 48 -13 -13 -24 -29 -24 -35 0 -5 -15 -10 -34 -10 -24 0 -46 10 -76 35 -23 19 -50 35 -59 35 -10 0 -43 -29 -75 -65 l-57 -65 -78 0 c-82 0 -101 9 -101 46 0 31 17 41 79 46 45 5 60 11 83 37 35 39 36 74 4 116 -21 28 -33 33 -83 38 -76 8 -105 44 -66 82 12 13 26 15 52 11 20 -3 56 -6 79 -6z m1023 -156 c10 -12 13 -59 14 -185 l0 -168 -63 -58 c-34 -32 -63 -67 -64 -78 -3 -47 4 -66 37 -98 45 -44 44 -70 -5 -123 -60 -65 -56 -88 27 -163 l67 -61 7 -122 c7 -136 -1 -168 -45 -168 -37 0 -45 20 -52 129 -7 102 -7 102 -43 132 -47 38 -82 38 -115 -2 -24 -28 -26 -38 -26 -123 0 -98 -14 -136 -50 -136 -42 0 -50 24 -50 155 l0 123 65 60 c58 53 65 63 65 97 0 30 -8 47 -40 81 -22 24 -40 51 -40 59 0 8 18 35 40 59 32 34 40 51 40 81 0 32 -7 44 -60 93 -55 50 -61 59 -58 91 4 53 35 53 102 2 62 -48 92 -51 135 -15 l31 26 0 152 c0 105 4 156 12 164 17 17 53 15 69 -4z m-2367 -7 c17 -12 19 -28 17 -143 -1 -145 5 -165 59 -197 43 -24 76 -19 122 22 41 35 81 46 98 26 19 -23 4 -60 -37 -91 -68 -51 -83 -73 -83 -119 0 -36 6 -47 40 -79 22 -20 40 -43 40 -52 0 -8 -18 -34 -40 -58 -32 -35 -40 -51 -40 -82 0 -35 6 -44 64 -96 50 -45 65 -65 71 -95 8 -44 8 -139 -1 -200 -6 -41 -8 -43 -40 -43 -44 0 -54 20 -54 114 0 90 -11 117 -61 151 -50 33 -61 32 -98 -10 -31 -35 -31 -37 -31 -144 0 -115 -2 -121 -51 -121 -29 0 -49 57 -49 137 1 104 14 154 45 178 60 45 85 77 85 109 0 31 -6 43 -47 107 -13 19 -23 39 -23 46 0 6 18 33 41 59 37 43 41 52 36 88 -5 33 -16 50 -60 91 -38 35 -58 62 -66 90 -15 56 -15 297 1 313 16 16 40 15 62 -1z m1299 -406 l477 -1 25 -24 25 -25 2 -413 c1 -227 2 -435 3 -463 1 -27 4 -495 6 -1038 l4 -989 -30 -24 -30 -24 -602 0 c-420 0 -609 3 -626 11 -14 6 -30 22 -36 35 -10 22 -24 1462 -26 2574 l0 325 25 27 c27 30 64 35 225 31 44 -1 295 -2 558 -2z m-1279 -943 c3 -13 7 -65 9 -117 5 -109 22 -140 82 -156 35 -9 39 -7 71 28 l34 37 0 103 c0 105 7 127 40 127 9 0 26 -10 38 -23 19 -20 21 -35 23 -147 l2 -124 -36 -30 c-20 -17 -50 -41 -66 -54 -26 -19 -31 -31 -31 -64 0 -34 6 -46 40 -77 25 -23 40 -45 40 -60 0 -15 -15 -38 -40 -61 -34 -31 -40 -43 -40 -78 0 -37 5 -45 57 -89 73 -62 83 -89 83 -214 0 -114 -11 -139 -60 -139 -34 0 -38 13 -47 143 -6 95 -7 98 -40 127 -41 37 -58 37 -105 5 l-37 -25 -3 -118 -3 -117 -32 -3 c-52 -5 -63 22 -63 156 l0 113 65 61 c57 54 65 66 65 98 0 28 -8 44 -35 70 -24 23 -35 43 -35 62 0 20 12 41 35 65 55 57 50 88 -29 165 l-63 63 -7 87 c-4 48 -4 104 -1 125 14 84 13 83 50 83 28 0 36 -4 39 -22z m2077 -8 c4 -14 7 -65 8 -113 1 -87 2 -90 35 -123 46 -46 93 -47 130 -3 23 27 26 39 26 112 0 45 3 99 6 120 6 32 10 37 34 37 47 0 54 -19 52 -156 -1 -72 -7 -132 -13 -142 -6 -9 -36 -36 -65 -60 -72 -57 -73 -88 -9 -163 25 -29 45 -57 45 -62 0 -4 -18 -24 -39 -44 -43 -38 -59 -88 -41 -123 6 -11 38 -46 70 -78 l60 -58 0 -111 c0 -155 -16 -189 -70 -145 -19 16 -23 31 -28 111 -6 105 -25 146 -78 167 -30 12 -34 11 -70 -20 l-39 -34 -5 -118 -5 -119 -31 -3 c-46 -5 -59 34 -59 177 l0 114 34 26 c19 14 50 41 69 59 31 29 34 36 29 74 -4 31 -15 50 -41 74 -48 44 -47 71 4 117 56 50 49 82 -36 163 l-64 61 0 136 c0 119 2 137 18 146 29 18 65 9 73 -19z m-2079 -1267 c11 -12 17 -48 21 -111 4 -89 6 -95 38 -128 37 -38 56 -41 100 -19 39 21 49 50 49 143 0 90 14 126 52 130 40 5 50 -25 52 -155 l1 -114 -67 -66 c-59 -56 -68 -70 -68 -100 0 -28 9 -46 40 -79 22 -24 40 -52 40 -63 0 -11 -18 -41 -40 -66 -38 -44 -50 -85 -32 -110 4 -5 33 -32 65 -59 47 -39 58 -53 55 -75 -3 -23 -8 -26 -46 -29 -35 -3 -49 2 -80 26 -54 43 -73 46 -113 19 l-34 -23 -3 -154 c-1 -84 -7 -159 -13 -166 -13 -16 -47 -6 -63 20 -9 13 -16 74 -20 169 l-7 148 72 70 c65 64 71 72 65 101 -3 16 -22 52 -41 78 -19 26 -35 55 -35 64 0 9 16 33 35 55 56 62 50 91 -32 168 l-68 63 0 123 c0 90 4 128 14 140 18 22 44 22 63 0z m2078 2 c8 -9 15 -56 18 -113 4 -92 6 -99 35 -129 40 -43 78 -44 118 -4 26 27 29 36 30 98 0 37 4 88 7 113 7 42 9 45 40 48 43 4 52 -21 52 -149 0 -112 -12 -147 -59 -175 -80 -47 -90 -115 -26 -186 44 -48 42 -78 -10 -121 -30 -25 -35 -35 -35 -70 0 -38 5 -46 63 -99 l62 -58 3 -175 3 -174 -26 -7 c-49 -12 -58 10 -65 162 l-5 136 -38 34 c-49 45 -83 45 -133 -1 -40 -37 -74 -44 -93 -21 -16 19 11 64 61 100 22 16 43 38 48 51 13 34 -4 91 -39 130 -41 47 -39 73 9 120 40 39 41 42 24 105 -2 9 -27 34 -55 55 -70 53 -81 82 -74 203 9 138 10 142 44 142 16 0 34 -7 41 -15z m-1616 -1018 c22 -23 51 -54 63 -70 32 -38 62 -34 108 13 21 22 44 40 50 40 6 0 29 -18 50 -40 57 -59 80 -55 152 25 l58 65 63 0 c79 0 102 -11 102 -50 0 -30 1 -29 -92 -45 -26 -4 -46 -16 -66 -41 -27 -32 -29 -39 -19 -71 13 -40 59 -83 90 -83 12 0 39 -5 60 -11 35 -9 38 -13 35 -42 -3 -30 -6 -32 -53 -39 -56 -9 -121 -1 -147 17 -10 6 -31 30 -48 53 -43 59 -73 64 -116 18 -19 -20 -41 -36 -49 -36 -23 0 -67 24 -89 49 -33 37 -66 27 -121 -38 -27 -33 -59 -61 -70 -64 -11 -3 -83 -2 -160 1 -136 7 -140 8 -152 32 -22 45 1 55 147 59 l130 3 30 36 c36 44 37 64 5 106 -13 18 -32 49 -40 70 -15 35 -15 40 0 62 8 13 20 24 27 24 6 0 29 -19 52 -43z m912 22 c16 -6 47 -34 70 -62 22 -29 52 -56 66 -61 22 -8 30 -4 63 33 47 52 75 53 116 6 47 -53 76 -48 134 20 37 43 54 55 76 55 15 0 31 -5 34 -11 11 -18 -3 -55 -35 -89 -17 -18 -30 -43 -30 -57 0 -34 28 -91 51 -104 11 -5 68 -9 127 -8 124 3 162 -8 162 -45 0 -15 -8 -30 -19 -36 -11 -5 -84 -10 -165 -10 l-145 0 -51 59 c-51 58 -100 86 -109 60 -2 -7 -14 -23 -27 -36 -35 -35 -78 -30 -125 12 -22 19 -46 35 -54 35 -17 0 -56 -40 -92 -92 l-26 -38 -82 0 c-68 0 -85 3 -99 19 -11 13 -15 27 -11 40 5 18 14 21 65 21 54 0 60 2 89 35 42 48 42 88 -1 132 -26 27 -39 33 -75 33 -30 0 -49 6 -63 20 -24 24 -25 38 -3 62 19 21 111 25 159 7z"></path> 
</g>
</svg>