<svg xmlns="http://www.w3.org/2000/svg" viewBox="0 0 443 608">
<g transform="translate(3.2661448140900196,604.5322163800017) scale(0.1,-0.1)">
<path fill="#15803d" d="M1125 5310 c-43 -3 -80 -12 -96 -23 -40 -27 -111 -115 -125 -156 -28 -78 -9 -219 41 -305 24 -41 25 -50 25 -212 0 -148 -2 -173 -19 -204 -41 -74 -45 -88 -49 -175 -4 -89 -3 -91 37 -167 l41 -77 0 -158 c0 -157 0 -159 -31 -223 -26 -53 -33 -81 -37 -152 -6 -114 18 -184 86 -251 72 -71 127 -92 242 -92 86 0 100 3 141 27 59 35 105 88 137 156 36 79 29 180 -19 277 l-34 70 0 175 0 175 32 66 c27 54 33 80 35 140 2 78 -8 115 -48 181 -21 33 -23 49 -26 215 -2 175 -2 179 23 228 33 63 42 103 41 187 -1 84 -23 137 -88 204 -75 78 -163 105 -309 94z m185 -205 c58 -55 63 -149 12 -200 -114 -116 -262 -67 -262 87 0 49 29 97 77 130 44 30 134 21 173 -17z m-65 -359 c46 -20 55 -42 55 -136 0 -93 -15 -131 -59 -149 -41 -18 -71 -11 -95 22 -18 24 -21 43 -21 127 0 105 12 134 59 143 11 2 22 5 24 6 1 0 18 -5 37 -13z m52 -401 c44 -18 77 -84 70 -140 -8 -78 -70 -135 -146 -135 -53 0 -86 14 -122 50 -73 72 -32 209 71 238 38 11 77 7 127 -13z m-18 -394 c17 -24 21 -47 24 -123 3 -123 -11 -148 -82 -148 -76 0 -86 18 -86 150 0 130 11 150 81 150 36 0 46 -5 63 -29z m29 -388 c40 -29 74 -106 66 -149 -20 -110 -147 -170 -235 -111 -96 64 -91 213 9 267 46 25 121 22 160 -7z"></path> 
<path fill="#1e293b" d="M3024 5311 c-65 -11 -80 -19 -136 -79 -88 -94 -101 -263 -31 -397 25 -47 27 -60 30 -222 l5 -172 -34 -68 c-27 -55 -34 -82 -36 -143 -4 -72 -2 -81 37 -162 l41 -85 0 -166 c0 -162 -1 -166 -30 -233 -69 -153 -39 -305 81 -407 61 -53 121 -70 233 -65 90 3 96 4 152 43 69 48 107 104 124 185 16 76 8 142 -26 222 -38 90 -48 182 -36 330 7 98 15 136 37 188 43 98 40 178 -9 271 l-36 70 0 178 c0 174 1 180 28 237 24 52 27 71 27 159 0 116 -14 154 -80 221 -83 83 -204 116 -341 95z m200 -211 c69 -61 69 -159 1 -219 -34 -30 -105 -47 -141 -35 -77 28 -120 150 -75 218 30 45 70 66 128 66 44 0 58 -5 87 -30z m-59 -360 c37 -14 55 -65 55 -153 0 -94 -21 -127 -80 -127 -30 0 -43 6 -60 27 -19 25 -21 38 -18 120 3 80 6 95 27 117 27 29 37 31 76 16z m51 -401 c44 -22 76 -84 71 -142 -7 -77 -67 -127 -152 -127 -148 0 -188 204 -55 273 38 20 89 18 136 -4z m-12 -396 c29 -39 30 -211 2 -242 -28 -31 -86 -28 -117 5 -22 24 -24 33 -23 127 2 91 4 103 24 119 34 28 91 23 114 -9z m18 -373 c16 0 56 -54 67 -90 13 -44 6 -93 -20 -136 -25 -42 -106 -69 -161 -54 -56 16 -98 72 -98 133 0 52 18 105 43 126 31 25 88 39 126 30 20 -5 39 -9 43 -9z"></path> 
<path fill="#1e293b" d="M1102 2881 c-67 -23 -119 -65 -157 -126 -28 -45 -30 -55 -30 -149 0 -96 2 -105 38 -182 l38 -80 -3 -160 -3 -159 -35 -70 c-32 -63 -35 -78 -34 -150 1 -80 20 -137 63 -188 12 -15 15 -51 15 -195 l0 -177 -32 -64 c-28 -57 -32 -74 -32 -146 0 -45 7 -104 15 -132 19 -64 78 -131 153 -175 55 -32 61 -33 162 -33 96 0 109 2 150 27 64 38 104 79 131 135 20 40 24 63 24 143 0 88 -2 99 -34 160 -34 64 -34 67 -39 226 l-5 161 38 82 c31 69 37 95 38 154 2 65 -2 80 -37 152 l-39 80 -5 155 -4 155 33 80 c30 71 33 91 34 175 0 87 -3 100 -29 148 -38 67 -83 107 -163 144 -76 34 -169 38 -251 9z m197 -179 c53 -26 76 -65 76 -125 0 -44 -5 -58 -34 -94 -54 -67 -116 -80 -186 -38 -160 93 -21 339 144 257z m-27 -383 c61 -33 65 -232 5 -274 -32 -23 -60 -18 -91 14 -23 24 -29 41 -33 94 -3 36 -3 81 1 101 12 63 66 93 118 65z m28 -399 c30 -11 55 -20 56 -20 5 0 24 -94 24 -120 0 -65 -66 -130 -132 -130 -81 0 -139 48 -152 125 -13 75 57 163 129 165 11 0 45 -9 75 -20z m-18 -379 c34 -27 50 -87 42 -158 -9 -82 -26 -109 -69 -117 -44 -9 -82 12 -91 50 -12 49 1 179 22 207 29 40 60 46 96 18z m37 -401 c42 -21 50 -34 61 -99 10 -61 -9 -103 -66 -142 -41 -28 -51 -31 -92 -25 -56 8 -65 15 -98 82 -30 62 -28 103 9 144 56 64 116 76 186 40z"></path> 
<path fill="#15803d" d="M3089 2890 c-56 -10 -81 -22 -136 -67 -117 -94 -140 -246 -63 -411 30 -63 30 -67 30 -229 l0 -165 -35 -78 c-29 -65 -35 -89 -35 -147 0 -60 5 -80 39 -149 l38 -80 2 -157 c1 -155 1 -158 -28 -215 -57 -113 -57 -256 0 -348 26 -42 88 -98 141 -126 37 -20 58 -23 143 -23 112 1 156 16 218 79 62 61 82 118 82 226 0 87 -3 101 -34 165 -32 67 -33 76 -38 223 -6 162 -8 155 49 280 13 28 20 66 21 115 1 61 -3 83 -31 144 -63 140 -68 377 -10 503 24 52 30 79 31 145 1 70 -2 88 -26 137 -65 132 -211 204 -358 178z m149 -190 c94 -57 96 -196 3 -257 -25 -17 -48 -23 -87 -23 -48 0 -57 4 -94 38 -38 37 -40 42 -40 96 0 70 22 122 64 147 41 25 112 25 154 -1z m-14 -401 c23 -27 26 -39 26 -108 0 -87 -13 -137 -40 -151 -30 -16 -76 -12 -101 9 -22 17 -24 28 -27 119 -4 92 -2 103 19 131 32 44 86 44 123 0z m10 -373 c95 -40 114 -173 33 -238 -19 -14 -52 -32 -74 -38 -37 -11 -46 -10 -87 9 -55 27 -86 74 -86 127 2 115 108 184 214 140z m-31 -378 c39 -20 46 -40 47 -126 0 -132 -34 -182 -109 -156 -45 16 -63 69 -55 163 10 117 48 156 117 119z m35 -402 c55 -29 76 -62 76 -121 0 -39 -6 -62 -20 -82 -27 -38 -90 -68 -141 -68 -36 0 -49 6 -80 37 -35 35 -37 40 -36 101 0 35 6 74 12 86 29 54 128 79 189 47z"></path> 
<path fill="#ef4444" d="M2075 4092 c-44 -16 -83 -43 -117 -81 -56 -61 -66 -81 -78 -156 -13 -84 -2 -144 42 -224 30 -54 30 -55 33 -240 2 -182 2 -186 -21 -217 -68 -89 -71 -221 -8 -325 l37 -61 5 -184 5 -184 -27 -41 c-87 -131 -70 -279 44 -390 68 -65 117 -83 225 -83 94 0 160 30 224 100 59 65 76 120 69 234 -4 68 -9 86 -41 140 l-37 61 0 169 c0 165 1 169 28 221 64 123 66 208 6 318 l-35 63 -2 177 -2 176 35 75 c30 66 35 84 34 150 -2 127 -69 234 -175 280 -53 22 -204 36 -244 22z m179 -166 c18 -8 45 -29 60 -48 35 -47 37 -139 4 -188 -71 -104 -240 -85 -277 31 -46 147 74 263 213 205z m-8 -395 c28 -17 32 -25 37 -81 19 -177 -1 -219 -101 -220 -70 0 -101 74 -86 208 5 49 12 71 30 89 29 28 77 30 120 4z m7 -387 c58 -20 94 -61 102 -118 10 -64 -9 -111 -58 -148 -39 -27 -47 -29 -109 -26 -109 6 -163 64 -153 163 6 61 28 93 85 123 52 26 71 27 133 6z m11 -395 c25 -20 26 -23 26 -132 0 -100 -2 -113 -22 -134 -17 -18 -32 -23 -75 -23 -49 0 -55 2 -73 33 -16 25 -20 50 -20 114 0 71 3 86 27 122 24 37 30 41 68 41 28 0 52 -7 69 -21z m15 -387 c48 -24 73 -62 79 -120 6 -67 -12 -116 -56 -152 -31 -26 -45 -30 -95 -30 -71 0 -108 18 -138 66 -31 51 -32 151 -2 192 27 37 79 61 133 61 25 0 60 -8 79 -17z"></path> 
</g>
</svg>