<svg xmlns="http://www.w3.org/2000/svg" viewBox="0 0 443 608">
<g transform="translate(0,608) scale(0.1,-0.1)">
<path fill="#1e293b"  d="M1856 4917 c-37 -37 -43 -126 -16 -213 26 -86 74 -180 111 -219 38 -41 63 -100 46 -113 -44 -34 -136 -40 -267 -17 -47 8 -86 15 -87 15 -2 0 -3 -16 -3 -35 0 -49 47 -156 93 -212 61 -74 87 -87 175 -86 66 2 77 -1 98 -22 20 -20 24 -34 24 -83 0 -62 -8 -75 -59 -102 -32 -17 -232 -40 -347 -41 -81 0 -98 3 -144 27 -49 26 -53 26 -83 12 -26 -13 -38 -31 -62 -89 -28 -69 -30 -82 -29 -199 0 -82 6 -149 17 -195 10 -38 22 -90 28 -115 30 -124 102 -275 171 -361 88 -109 108 -147 108 -205 l0 -52 -167 -184 c-192 -209 -450 -468 -537 -536 -113 -90 -248 -215 -257 -239 -34 -89 130 -123 302 -64 112 39 192 85 335 192 228 172 388 340 542 570 38 57 78 111 88 120 11 9 41 19 67 23 44 5 48 4 57 -18 13 -36 6 -812 -9 -857 -20 -65 -18 -64 -283 -60 -231 3 -238 2 -238 -16 0 -50 161 -207 296 -288 18 -11 53 -37 78 -58 24 -21 75 -54 113 -74 167 -88 287 -143 321 -149 35 -5 41 -2 84 44 51 55 183 315 194 382 6 36 4 39 -26 55 -18 9 -48 16 -68 14 -69 -4 -90 1 -120 26 -38 32 -38 36 -53 560 -12 447 -10 488 36 505 12 5 36 5 51 1 29 -7 52 -46 147 -247 25 -54 135 -234 232 -381 51 -77 188 -245 240 -295 22 -21 60 -48 84 -59 39 -20 53 -21 147 -15 337 22 555 87 554 166 -1 23 -86 86 -211 154 -25 14 -59 36 -75 49 -16 13 -45 32 -64 42 -19 10 -48 28 -63 41 -16 13 -33 24 -39 24 -6 0 -33 17 -61 37 -28 21 -68 49 -88 63 -111 74 -429 337 -460 379 -8 10 -33 42 -56 71 -39 46 -43 57 -43 105 0 65 13 102 89 255 126 252 191 353 317 491 124 136 131 155 90 237 -29 57 -227 256 -306 308 -50 33 -60 36 -107 31 -32 -3 -83 -21 -134 -46 -72 -36 -91 -41 -151 -41 -60 0 -72 3 -93 25 -20 19 -25 34 -25 73 0 82 49 112 183 112 93 0 192 20 215 43 8 9 15 30 15 47 0 35 -41 83 -130 152 -56 43 -60 43 -151 18 -52 -15 -63 -7 -127 90 -23 36 -56 78 -74 94 -17 17 -31 35 -31 42 0 16 -257 260 -306 289 -49 31 -69 31 -98 2z m837 -1210 c43 -34 48 -101 14 -159 -44 -76 -76 -191 -87 -312 -11 -129 -20 -159 -58 -199 -53 -56 -188 -71 -214 -24 -6 13 -9 51 -5 101 6 87 8 90 107 166 28 22 34 34 41 86 5 33 5 74 0 90 -6 25 -13 30 -55 36 -26 3 -58 14 -72 22 -34 23 -33 79 4 134 22 35 36 45 77 57 60 17 93 22 165 23 44 2 61 -3 83 -21z m-627 -132 c8 -10 14 -36 14 -58 0 -58 -38 -91 -122 -106 -106 -18 -135 -34 -149 -81 -10 -32 -9 -48 1 -80 27 -83 41 -95 124 -113 42 -9 88 -17 101 -17 33 0 45 -27 45 -100 0 -57 -3 -64 -32 -92 -40 -37 -67 -48 -121 -48 -101 0 -151 36 -203 147 -52 110 -85 241 -90 363 -5 93 -3 109 15 137 12 20 34 36 58 44 50 16 168 27 266 25 65 -1 81 -5 93 -21z"/> 
</g>
</svg>