<svg xmlns="http://www.w3.org/2000/svg" viewBox="0 0 443 608">
<g transform="translate(8.46771037181996,608) scale(0.1,-0.1)">
<path fill="#1e293b" d="M2015 2895 c-74 -30 -146 -103 -169 -171 -29 -86 -19 -197 26 -293 17 -36 23 -76 31 -209 l9 -165 -36 -76 c-59 -128 -58 -205 6 -333 27 -56 28 -61 28 -225 0 -135 -3 -174 -16 -198 -24 -45 -54 -155 -54 -198 0 -214 215 -365 428 -302 65 20 154 99 183 163 32 71 36 182 10 256 -12 33 -28 67 -35 75 -11 12 -17 61 -22 191 l-7 175 34 70 c28 58 34 83 37 150 3 76 1 84 -37 163 l-41 83 0 154 c0 150 1 155 32 232 40 98 48 197 23 273 -24 72 -120 170 -189 193 -73 25 -168 22 -241 -8z m200 -168 c48 -23 85 -81 85 -131 -1 -29 -36 -106 -58 -123 -36 -29 -101 -54 -126 -47 -41 10 -85 63 -102 122 -19 64 -14 86 26 138 46 58 111 73 175 41z m-17 -379 c29 -22 40 -41 58 -100 37 -123 -23 -228 -130 -228 -45 0 -76 40 -76 99 0 23 -9 59 -20 81 -26 52 -25 82 5 118 49 58 112 70 163 30z m25 -393 c98 -57 113 -195 29 -252 -52 -35 -75 -43 -116 -43 -91 0 -152 79 -147 188 1 14 23 45 55 78 49 48 59 54 96 54 26 0 57 -9 83 -25z m-13 -411 l31 -26 -4 -96 c-3 -93 -4 -95 -36 -124 -38 -34 -71 -32 -102 5 -15 18 -18 40 -19 115 0 89 9 128 34 144 23 15 65 7 96 -18z m8 -373 c46 -24 82 -87 82 -145 0 -36 -6 -50 -40 -86 l-39 -43 -66 5 c-77 7 -95 20 -120 84 -30 80 1 155 80 190 41 18 60 17 103 -5z"></path> 
<path fill="#15803d" d="M2014 5331 c-47 -12 -88 -45 -139 -112 l-46 -60 -6 -115 c-6 -112 -6 -115 25 -181 l31 -68 -1 -180 c0 -177 -1 -181 -30 -249 -26 -61 -30 -78 -26 -145 3 -60 10 -91 37 -148 l33 -72 -4 -173 c-4 -150 -8 -180 -27 -228 -76 -186 -17 -370 141 -440 62 -27 209 -30 263 -4 56 26 131 100 150 146 41 99 36 232 -12 322 -26 50 -26 55 -26 227 1 172 1 178 28 235 49 104 43 250 -13 316 -18 22 -34 216 -25 318 3 45 17 105 34 150 39 100 40 210 5 285 -52 111 -155 177 -286 181 -41 2 -89 -1 -106 -5z m182 -188 c35 -22 84 -96 84 -126 0 -29 -25 -84 -53 -114 -23 -26 -90 -63 -114 -63 -27 0 -82 40 -108 78 -47 68 -27 181 38 227 29 20 121 20 153 -2z m-14 -390 c27 -31 36 -56 43 -123 7 -64 6 -67 -27 -110 -28 -37 -40 -46 -71 -48 -55 -5 -83 28 -92 106 -8 71 -1 114 27 160 17 28 25 32 62 32 28 0 48 -6 58 -17z m23 -386 c64 -36 93 -120 65 -192 -28 -75 -132 -109 -213 -70 -44 21 -77 83 -77 145 0 39 5 48 50 92 44 42 55 48 92 48 26 0 59 -9 83 -23z m-26 -372 c39 -20 53 -64 45 -144 -7 -87 -21 -119 -56 -137 -34 -18 -94 -10 -107 15 -15 28 -24 109 -17 164 5 39 15 62 36 85 32 35 57 39 99 17z m32 -401 c40 -20 58 -57 65 -131 6 -64 5 -71 -20 -100 -100 -119 -266 -58 -266 97 0 117 116 187 221 134z"></path> 
</g>
</svg>