<svg xmlns="http://www.w3.org/2000/svg" viewBox="0 0 443 608">
<g transform="translate(0,601.2467893092676) scale(0.1,-0.1)">
<path fill="#15803d" d="M2413 4599 c-45 -13 -67 -49 -59 -96 3 -21 9 -62 12 -92 l7 -53 -81 -79 c-122 -118 -197 -130 -262 -44 -19 25 -45 52 -58 61 -37 24 -129 29 -193 10 -45 -13 -62 -25 -99 -71 -25 -30 -56 -59 -70 -65 -43 -17 -143 -40 -175 -40 -72 0 -107 -12 -126 -44 -25 -41 -24 -89 2 -144 25 -51 76 -80 174 -97 60 -10 60 -10 63 -47 2 -22 -5 -52 -17 -77 -31 -59 -88 -83 -216 -88 -55 -2 -110 -6 -121 -8 -27 -6 -48 -55 -48 -114 0 -78 9 -94 64 -119 84 -38 101 -105 46 -188 -75 -115 -150 -222 -171 -244 -12 -14 -49 -63 -81 -110 -31 -47 -70 -104 -86 -126 -37 -55 -39 -125 -6 -148 38 -27 80 -20 140 23 49 36 89 81 207 231 20 25 64 77 98 117 34 39 74 91 89 114 39 63 118 138 168 160 36 16 52 17 93 10 115 -22 143 -46 143 -122 0 -89 -29 -109 -170 -119 -99 -7 -151 -25 -169 -59 -6 -10 -13 -43 -17 -73 -6 -51 -4 -57 26 -92 l33 -37 118 3 c133 3 153 -5 151 -63 -1 -34 -35 -79 -61 -79 -9 0 -28 -6 -42 -13 -14 -8 -56 -17 -95 -21 -123 -12 -143 -21 -165 -72 -25 -60 -24 -103 4 -135 28 -34 73 -48 167 -55 149 -10 159 -13 176 -45 18 -37 13 -55 -56 -203 -53 -112 -95 -159 -154 -170 -33 -6 -104 15 -274 85 -50 20 -62 13 -62 -36 0 -46 30 -119 83 -202 15 -24 27 -45 27 -49 0 -12 99 -131 144 -172 85 -79 130 -58 246 114 69 102 235 447 290 604 34 94 32 196 -3 274 -37 81 -35 117 9 166 35 38 37 39 112 42 73 3 77 4 97 34 25 37 78 225 96 339 9 58 20 89 38 112 41 51 96 40 115 -23 3 -11 -1 -58 -10 -105 -22 -117 -23 -226 -2 -265 24 -45 77 -66 177 -71 95 -6 180 13 225 48 46 36 29 130 -33 182 -38 32 -74 35 -93 8 -8 -11 -30 -22 -50 -26 -29 -6 -39 -3 -58 17 -19 20 -21 31 -17 93 4 74 47 186 81 214 20 17 74 4 127 -32 34 -22 106 -120 152 -207 143 -265 310 -470 416 -507 120 -43 194 -54 321 -47 192 9 261 40 246 111 -6 24 -40 51 -193 153 -220 147 -308 223 -544 471 -212 221 -280 301 -406 476 -37 51 -42 92 -15 116 10 9 50 24 88 33 127 28 144 35 181 67 92 81 80 197 -34 314 -95 97 -166 113 -219 50 -24 -28 -25 -36 -19 -92 3 -33 3 -68 -1 -78 -3 -10 -31 -34 -61 -54 -52 -34 -57 -35 -121 -30 -64 5 -69 7 -104 48 -41 47 -48 70 -36 116 6 22 21 39 52 57 25 14 50 26 57 26 22 0 90 53 105 81 8 16 14 46 14 68 0 33 -8 50 -43 93 -71 87 -196 134 -284 107z m55 -109 c3 -21 2 -22 -12 -11 -19 16 -21 44 -3 39 6 -3 14 -15 15 -28z m-180 -320 c-7 -11 -19 -20 -27 -20 -11 0 -10 5 4 20 10 11 22 20 27 20 4 0 3 -9 -4 -20z m639 -27 c-3 -10 -5 -2 -5 17 0 19 2 27 5 18 2 -10 2 -26 0 -35z m-1199 15 c-2 -6 -10 -14 -16 -16 -7 -2 -10 2 -6 12 7 18 28 22 22 4z m482 -32 c0 -8 -51 -13 -56 -5 -3 5 9 9 25 9 17 0 31 -2 31 -4z m-790 -86 c0 -4 -6 -13 -13 -19 -10 -8 -19 -7 -33 4 -15 12 -16 16 -5 24 14 9 51 3 51 -9z m787 -36 c19 -14 30 -34 34 -60 8 -44 42 -76 109 -100 97 -34 140 -58 184 -103 106 -108 114 -275 14 -310 -39 -14 -75 -14 -83 -1 -3 6 -14 10 -25 10 -10 0 -41 16 -70 35 -64 43 -97 44 -137 6 -71 -68 -135 -82 -191 -42 -47 33 -85 36 -141 12 -62 -26 -95 -27 -121 -1 -27 27 -26 86 1 153 31 78 36 89 50 127 28 79 113 227 151 264 l39 38 79 -4 c61 -2 85 -8 107 -24z m500 -445 c-3 -32 -13 -68 -22 -81 -17 -23 -17 -23 -11 12 4 19 9 59 12 87 9 73 28 56 21 -18z m-1437 -18 c0 -11 -38 -21 -56 -14 -26 10 -14 23 21 23 19 0 35 -4 35 -9z m955 -171 c-3 -5 -13 -10 -21 -10 -8 0 -12 5 -9 10 3 6 13 10 21 10 8 0 12 -4 9 -10z m-45 -155 c20 -21 25 -39 28 -95 9 -159 -84 -268 -172 -199 -24 19 -26 27 -26 89 0 80 25 148 73 198 37 39 65 41 97 7z m379 -287 c1 -16 -3 -28 -8 -28 -12 0 -21 67 -13 104 l6 31 7 -40 c5 -22 8 -52 8 -67z m-959 -32 c0 -16 -28 -42 -36 -33 -8 7 14 47 26 47 6 0 10 -6 10 -14z m-50 -446 c-9 -17 -40 -29 -40 -16 0 2 -3 11 -6 20 -5 13 1 16 25 16 29 0 31 -2 21 -20z"></path> 
<path fill="#15803d" d="M2670 2579 c-36 -5 -141 -9 -233 -10 l-168 -3 -15 -28 c-9 -18 -14 -49 -12 -80 5 -79 26 -90 180 -95 151 -5 204 -21 213 -64 8 -36 -18 -81 -70 -123 -32 -24 -44 -28 -83 -24 -26 3 -82 21 -124 41 -43 20 -93 37 -111 37 -31 0 -36 -4 -51 -43 -9 -23 -16 -48 -16 -55 0 -7 27 -42 60 -77 57 -61 69 -86 52 -111 -7 -12 -192 -104 -208 -104 -5 0 -26 -14 -47 -31 -42 -34 -48 -70 -22 -132 17 -42 45 -51 124 -41 52 6 124 36 309 126 94 46 104 41 314 -164 182 -177 213 -201 256 -196 75 9 116 231 67 356 -18 45 -80 102 -185 172 -77 51 -110 86 -110 118 0 33 26 81 70 127 59 61 112 146 117 187 5 33 1 42 -48 94 -74 78 -147 134 -172 133 -12 -1 -51 -5 -87 -10z m-350 -89 c0 -5 -4 -10 -10 -10 -5 0 -10 5 -10 10 0 6 5 10 10 10 6 0 10 -4 10 -10z m-78 -325 c0 -5 -5 -11 -11 -13 -6 -2 -11 4 -11 13 0 9 5 15 11 13 6 -2 11 -8 11 -13z m137 -172 c-1 -62 -6 -56 -11 15 -2 23 0 42 4 42 5 0 7 -26 7 -57z"></path> 
</g>
</svg>