<svg xmlns="http://www.w3.org/2000/svg" viewBox="0 0 443 608">
<g transform="translate(11.532289628180038,601.0644327600036) scale(0.1,-0.1)">
<path fill="#15803d" d="M1988 5290 c-85 -26 -178 -122 -204 -208 -26 -91 -6 -227 41 -278 25 -27 25 -30 25 -210 l0 -182 -35 -73 c-27 -57 -35 -86 -35 -129 1 -79 17 -138 50 -184 l30 -40 0 -178 0 -179 -32 -67 c-29 -60 -32 -76 -32 -157 0 -77 4 -97 26 -141 30 -57 94 -114 165 -147 66 -30 197 -29 265 1 115 51 174 154 171 295 -2 67 -7 88 -37 150 l-36 72 0 169 0 169 33 66 c30 61 32 73 31 161 0 90 -3 99 -37 163 l-37 68 0 147 c0 148 7 189 46 277 26 59 25 206 -1 260 -31 64 -104 128 -176 155 -68 25 -176 35 -221 20z m161 -176 c28 -11 50 -31 72 -62 26 -41 30 -53 25 -91 -8 -55 -25 -82 -71 -111 -53 -33 -101 -35 -155 -7 -37 19 -48 32 -63 72 -32 87 0 163 84 199 44 20 60 19 108 0z m11 -410 c23 -22 25 -31 25 -118 0 -91 -1 -96 -29 -125 -41 -43 -85 -42 -121 1 -27 31 -27 36 -23 128 3 52 10 105 16 117 22 40 90 38 132 -3z m39 -391 c35 -27 61 -76 61 -115 0 -13 -9 -42 -19 -65 -39 -85 -164 -110 -244 -49 -69 52 -71 150 -5 213 62 58 142 64 207 16z m-48 -366 c47 -31 54 -59 43 -163 -8 -76 -12 -89 -34 -105 -44 -32 -74 -33 -108 -4 -37 31 -47 78 -35 180 7 64 11 71 42 92 42 29 50 29 92 0z m11 -383 c40 -9 98 -77 99 -117 3 -85 -9 -111 -73 -157 -48 -35 -96 -39 -148 -12 -40 21 -80 90 -80 137 0 35 30 104 52 123 22 17 90 41 108 37 8 -2 27 -7 42 -11z"></path> 
<path fill="#15803d" d="M2993 2871 c-128 -33 -223 -164 -223 -305 0 -56 39 -177 65 -206 15 -16 16 -42 13 -202 -4 -181 -5 -184 -35 -243 -43 -82 -49 -143 -24 -224 11 -35 30 -74 43 -88 22 -23 23 -32 26 -203 l3 -179 -33 -73 c-30 -66 -33 -82 -33 -169 0 -89 2 -99 30 -145 38 -60 131 -137 187 -153 51 -16 132 -16 206 0 69 14 140 76 177 155 21 45 25 67 25 146 0 84 -3 99 -32 158 -32 64 -32 68 -36 231 l-4 165 34 85 c28 70 33 96 32 159 -1 65 -6 84 -35 140 l-34 65 -3 175 c-4 173 -3 177 24 235 39 87 46 220 14 293 -27 61 -101 135 -168 164 -51 23 -165 33 -219 19z m171 -187 c45 -22 76 -78 76 -141 0 -91 -81 -153 -180 -137 -96 16 -147 119 -104 211 36 74 129 104 208 67z m-8 -397 c25 -22 26 -28 27 -112 1 -108 -6 -131 -43 -150 -45 -23 -75 -19 -104 16 -24 28 -26 38 -26 129 0 95 1 99 26 119 36 28 86 27 120 -2z m20 -388 c104 -50 106 -197 4 -249 -98 -50 -214 1 -227 98 -7 54 1 82 34 118 53 57 117 68 189 33z m-33 -371 c40 -21 46 -39 47 -141 0 -91 -2 -100 -25 -122 -33 -34 -87 -34 -121 0 -25 25 -26 30 -22 126 3 96 4 102 31 125 31 26 57 30 90 12z m38 -402 c45 -19 79 -79 79 -140 0 -39 -6 -52 -36 -86 -45 -49 -94 -66 -150 -51 -72 19 -104 65 -104 148 0 53 28 106 68 128 35 18 100 19 143 1z"></path> 
<path fill="#15803d" d="M1022 2855 c-52 -23 -119 -83 -149 -133 -26 -44 -28 -54 -28 -152 1 -96 4 -111 33 -179 32 -73 32 -74 32 -242 l0 -169 -31 -55 c-24 -42 -32 -71 -36 -129 -6 -72 -4 -78 35 -158 l40 -83 6 -168 6 -168 -32 -62 c-30 -58 -32 -69 -33 -167 0 -121 12 -154 79 -223 63 -66 125 -91 226 -95 107 -4 154 14 228 89 79 80 95 120 90 227 -3 74 -9 97 -38 157 -35 70 -35 70 -38 236 l-4 166 33 64 c31 58 34 72 34 154 0 84 -2 94 -35 155 l-35 65 0 180 c0 166 2 184 22 225 51 103 55 237 9 314 -32 54 -90 109 -146 138 -57 29 -215 37 -268 13z m208 -170 c62 -32 92 -129 61 -203 -18 -42 -88 -85 -141 -85 -111 0 -177 122 -124 229 32 66 133 96 204 59z m-29 -385 c38 -21 52 -67 47 -157 -4 -70 -8 -87 -28 -108 -34 -36 -90 -35 -125 2 -23 26 -25 35 -24 113 1 47 4 96 8 110 12 42 78 63 122 40z m44 -400 c75 -36 100 -141 49 -208 -83 -108 -268 -68 -280 60 -6 61 37 138 86 155 52 18 99 15 145 -7z m-10 -391 c17 -17 20 -33 20 -118 0 -90 -2 -102 -23 -124 -46 -49 -108 -42 -137 14 -13 24 -16 53 -13 121 3 85 5 91 32 115 24 20 35 23 65 18 20 -3 45 -15 56 -26z m22 -384 c36 -25 63 -79 63 -126 0 -96 -61 -154 -159 -152 -52 1 -58 4 -92 42 -68 76 -56 182 24 231 40 25 132 27 164 5z"></path> 
</g>
</svg>