<svg xmlns="http://www.w3.org/2000/svg" viewBox="0 0 443 608">
<g transform="translate(10,618) scale(0.1,-0.1)">
<path fill="#15803d" d="M1195 5182 c-224 -48 -425 -230 -502 -455 -26 -76 -28 -93 -28 -237 0 -134 3 -164 23 -222 39 -117 81 -187 164 -274 158 -164 365 -233 613 -202 183 22 333 130 450 322 71 118 94 192 101 331 5 93 3 123 -15 195 -29 113 -54 170 -112 256 -150 222 -438 341 -694 286z m-100 -208 c9 -4 25 -25 37 -48 11 -22 42 -66 68 -96 65 -76 80 -108 80 -178 0 -86 -18 -105 -104 -110 -74 -5 -79 -2 -183 82 -33 28 -80 63 -102 78 -23 15 -41 35 -41 43 0 42 96 159 169 206 48 31 51 32 76 23z m554 -18 c43 -27 120 -112 147 -161 23 -44 13 -82 -29 -100 -18 -7 -49 -30 -71 -49 -21 -20 -42 -36 -46 -36 -4 0 -15 -10 -26 -21 -29 -33 -77 -49 -144 -49 -57 0 -61 2 -80 33 -35 58 -23 156 27 207 42 43 78 91 98 130 38 77 61 85 124 46z m-404 -538 c30 -14 39 -42 39 -123 1 -60 0 -61 -67 -140 -37 -44 -67 -85 -67 -92 0 -24 -23 -63 -41 -68 -29 -9 -81 19 -146 79 -64 59 -93 106 -93 150 0 20 11 34 47 59 26 17 75 57 108 88 33 31 67 59 75 62 21 9 114 -1 145 -15z m308 13 c42 -7 57 -16 106 -69 32 -33 80 -71 107 -84 39 -18 50 -29 52 -51 4 -35 -30 -88 -97 -150 -98 -91 -132 -97 -176 -27 -14 22 -48 65 -75 95 -68 76 -80 102 -80 183 0 104 33 124 163 103z"></path> 
<path fill="#1e293b" d="M2745 5181 c-22 -10 -65 -29 -95 -42 -238 -101 -389 -327 -406 -609 -21 -333 196 -638 516 -726 206 -57 446 -9 604 122 49 41 166 181 166 199 0 4 9 25 19 48 42 93 55 166 55 312 0 123 -4 150 -26 217 -73 220 -220 375 -433 457 -85 33 -98 35 -225 38 -115 2 -141 0 -175 -16z m-10 -278 c26 -38 63 -84 81 -103 42 -45 54 -78 54 -146 0 -72 -11 -91 -63 -105 -71 -19 -125 -5 -177 45 -25 24 -70 60 -102 80 -62 39 -80 75 -57 118 38 73 152 178 193 178 16 0 36 -19 71 -67z m562 -5 c66 -65 93 -109 93 -151 0 -19 -11 -31 -45 -51 -24 -15 -72 -52 -106 -83 -55 -52 -67 -58 -118 -64 -64 -7 -116 8 -124 38 -28 101 -15 154 58 223 25 25 56 65 67 90 30 67 37 73 77 66 25 -4 52 -22 98 -68z m-436 -497 c24 -29 26 -125 4 -176 -8 -20 -36 -59 -63 -88 -27 -28 -57 -66 -66 -84 -19 -38 -49 -57 -80 -49 -37 9 -149 119 -175 171 -29 58 -25 65 51 117 30 21 79 60 109 88 l54 51 74 -3 c62 -3 76 -7 92 -27z m300 17 c19 -6 80 -52 137 -102 96 -84 103 -93 98 -120 -9 -42 -92 -134 -153 -168 -51 -29 -53 -29 -77 -11 -14 10 -31 32 -38 48 -7 17 -33 53 -59 80 -57 61 -79 111 -79 178 0 92 69 130 171 95z"></path> 
<path fill="#1e293b" d="M1185 2416 c-117 -34 -161 -57 -247 -125 -119 -96 -202 -226 -238 -375 -29 -118 -25 -303 10 -411 35 -112 104 -217 195 -301 134 -124 276 -184 436 -184 213 0 364 54 483 173 157 157 226 322 226 541 0 141 -64 323 -156 439 -167 213 -462 314 -709 243z m521 -252 c50 -37 124 -142 124 -175 0 -23 -9 -34 -52 -62 -29 -19 -80 -58 -112 -88 -59 -53 -59 -54 -130 -57 -95 -4 -118 14 -124 96 -4 52 0 64 32 119 19 33 42 63 50 66 8 3 33 37 55 76 23 38 49 71 59 74 18 4 45 -10 98 -49z m-571 32 c2 -11 87 -128 107 -146 47 -45 76 -210 42 -244 -20 -21 -141 -22 -188 -2 -18 7 -43 29 -54 48 -15 23 -43 46 -87 68 -63 32 -70 41 -65 85 4 42 130 179 180 198 12 4 64 -1 65 -7z m105 -536 c41 0 70 -50 70 -122 0 -62 -19 -98 -94 -178 -23 -25 -50 -62 -59 -82 -15 -33 -21 -38 -51 -38 -29 0 -46 11 -100 62 -109 102 -133 183 -63 213 18 8 61 42 97 76 49 48 75 64 105 69 22 4 46 6 53 4 8 -2 26 -4 42 -4z m455 -73 c50 -42 103 -87 118 -100 24 -19 27 -27 21 -51 -11 -46 -135 -170 -185 -185 -46 -14 -45 -14 -75 44 -9 17 -38 53 -64 80 -71 73 -90 114 -90 188 0 92 20 109 120 105 l66 -3 89 -78z"></path> 
<path fill="#15803d" d="M2820 2421 c-213 -45 -403 -203 -486 -404 -53 -130 -77 -310 -53 -401 6 -22 15 -59 20 -81 39 -157 133 -294 265 -385 97 -67 164 -96 271 -116 232 -43 460 30 621 200 66 69 157 249 172 338 27 170 -2 370 -73 497 -54 97 -178 224 -267 273 -171 94 -300 116 -470 79z m-58 -260 c15 -30 45 -73 66 -95 66 -69 72 -83 72 -166 0 -104 -8 -113 -104 -118 -88 -5 -91 -3 -202 94 -40 34 -81 67 -93 73 -58 32 6 148 134 243 60 44 91 37 127 -31z m565 -13 c107 -105 129 -178 63 -210 -19 -10 -64 -46 -99 -80 -54 -51 -73 -63 -120 -74 -54 -13 -122 -7 -142 13 -13 13 -22 117 -15 158 5 23 25 55 56 89 26 30 60 76 76 102 15 27 33 54 41 60 26 22 83 -1 140 -58z m-443 -497 c23 -26 32 -126 16 -177 -7 -21 -29 -57 -49 -79 -68 -73 -91 -106 -91 -131 0 -34 -42 -43 -89 -18 -51 27 -140 112 -162 156 -29 57 -23 108 13 108 11 0 56 35 103 80 l84 80 79 0 c65 0 82 -3 96 -19z m334 5 c15 -8 52 -40 82 -71 30 -32 69 -63 85 -70 17 -8 37 -25 45 -39 12 -23 11 -30 -6 -61 -10 -20 -48 -65 -83 -100 -55 -57 -68 -65 -100 -65 -42 0 -58 10 -91 60 -13 19 -44 57 -68 84 -64 73 -73 96 -70 173 3 64 4 66 38 84 42 23 129 25 168 5z"></path> 
<path fill="#ef4444" d="M1955 3792 c-107 -40 -212 -102 -279 -165 -53 -49 -123 -160 -147 -229 -11 -35 -24 -67 -29 -73 -20 -26 -33 -152 -26 -262 13 -212 100 -382 263 -515 87 -71 129 -92 245 -121 204 -53 388 -20 555 99 119 85 232 247 269 387 21 80 18 278 -6 380 -57 238 -238 418 -495 493 -92 26 -286 30 -350 6z m-35 -86 c0 -3 -4 -8 -10 -11 -5 -3 -10 -1 -10 4 0 6 5 11 10 11 6 0 10 -2 10 -4z m14 -128 c9 -12 16 -29 16 -38 0 -9 24 -40 54 -69 77 -76 99 -125 94 -212 -2 -38 -8 -73 -14 -79 -15 -15 -114 -31 -152 -24 -24 5 -59 29 -115 80 -44 41 -94 78 -110 82 -17 4 -35 15 -41 24 -25 40 43 152 137 225 52 40 108 45 131 11z m559 -20 c28 -24 70 -70 94 -102 36 -48 43 -66 41 -95 -3 -31 -7 -37 -39 -46 -22 -6 -58 -32 -93 -67 -31 -32 -70 -65 -87 -73 -42 -22 -120 -30 -162 -16 -30 10 -38 19 -47 49 -25 93 -6 161 72 250 32 37 66 84 75 105 15 34 19 37 56 37 32 0 49 -8 90 -42z m-936 -310 c-3 -8 -6 -5 -6 6 -1 11 2 17 5 13 3 -3 4 -12 1 -19z m504 -211 c28 -19 35 -31 42 -72 14 -92 -2 -131 -90 -228 -24 -26 -51 -63 -58 -81 -12 -28 -21 -34 -50 -38 -68 -8 -171 72 -226 176 -26 49 -21 71 18 88 15 7 65 45 109 85 45 40 92 77 105 82 45 18 114 13 150 -12z m429 -60 c44 -43 89 -77 100 -77 11 0 27 -11 36 -25 15 -24 15 -28 0 -68 -18 -45 -92 -132 -141 -164 -34 -23 -85 -35 -102 -25 -6 4 -21 27 -33 50 -13 24 -53 74 -89 110 l-66 66 0 84 c0 80 2 85 30 109 27 23 35 25 107 21 l77 -5 81 -76z"></path> 
</g>
</svg>