<svg xmlns="http://www.w3.org/2000/svg" viewBox="0 0 443 608">
<g transform="translate(15,613) scale(0.1,-0.1)">
<path fill="#1e293b" d="M990 5596 c-185 -42 -275 -90 -395 -211 -93 -92 -183 -228 -218 -325 -25 -70 -47 -248 -41 -331 21 -326 181 -581 455 -730 159 -86 314 -113 508 -89 130 16 230 54 332 126 159 112 270 268 335 469 27 85 27 358 0 460 -57 215 -211 420 -394 526 -174 101 -411 143 -582 105z m-95 -293 c9 -20 49 -76 89 -123 96 -113 106 -133 106 -218 0 -95 -18 -117 -99 -126 -94 -11 -131 4 -223 91 -45 41 -100 83 -123 93 -60 26 -65 55 -21 123 58 90 185 197 233 197 17 0 27 -10 38 -37z m665 -13 c48 -38 122 -123 144 -167 30 -59 22 -79 -37 -108 -33 -15 -83 -54 -130 -101 l-77 -76 -64 -5 c-138 -12 -166 12 -166 140 l0 74 75 84 c41 46 84 104 96 129 11 25 28 51 37 58 25 20 77 8 122 -28z m-498 -630 c29 -22 43 -94 32 -166 -5 -36 -19 -58 -76 -121 -38 -43 -77 -94 -87 -113 -45 -92 -73 -101 -152 -52 -79 50 -184 190 -177 235 2 11 23 30 48 44 25 14 83 60 130 103 47 42 92 80 100 83 8 3 47 6 86 6 57 1 76 -3 96 -19z m413 1 c17 -10 65 -51 109 -90 43 -39 84 -71 90 -71 11 0 66 -46 66 -56 0 -23 -56 -103 -117 -166 -117 -120 -154 -126 -217 -36 -23 32 -70 92 -106 135 l-65 78 0 93 c0 86 2 95 24 113 33 27 173 27 216 0z"></path> 
<path fill="#15803d" d="M2778 2230 c-45 -8 -109 -37 -207 -93 -70 -40 -203 -168 -252 -243 -101 -154 -142 -291 -142 -479 0 -264 80 -456 266 -637 86 -84 175 -137 298 -180 85 -28 108 -32 247 -36 176 -5 242 5 352 52 262 114 443 365 478 665 13 107 -2 262 -33 351 -15 41 -29 84 -32 95 -3 11 -14 31 -23 45 -10 14 -29 48 -43 76 -15 29 -68 94 -129 156 -95 97 -111 109 -208 156 -137 66 -218 83 -390 81 -74 -1 -156 -5 -182 -9z m-34 -289 c5 -18 44 -72 86 -120 41 -47 81 -99 87 -116 19 -49 26 -138 14 -183 -10 -36 -17 -43 -49 -52 -46 -12 -143 -13 -174 -1 -13 5 -66 47 -119 93 -53 46 -110 90 -128 97 -63 27 -48 86 46 191 76 84 148 131 193 128 30 -3 36 -8 44 -37z m614 20 c53 -27 156 -136 192 -202 27 -51 28 -57 14 -77 -8 -12 -32 -29 -52 -38 -20 -8 -66 -43 -102 -78 -108 -105 -111 -106 -207 -106 -80 0 -86 2 -114 29 -27 27 -29 35 -29 101 0 91 13 118 99 212 46 52 74 91 81 118 17 62 53 74 118 41z m-441 -654 c8 -8 16 -50 20 -109 7 -113 9 -108 -96 -221 -52 -56 -72 -85 -77 -114 -4 -21 -12 -41 -18 -45 -20 -14 -76 -8 -114 11 -80 42 -192 189 -192 252 0 11 17 30 41 47 23 15 72 54 108 88 36 34 84 73 106 88 38 26 44 27 124 22 50 -3 90 -11 98 -19z m382 7 c14 -3 61 -40 105 -83 50 -48 95 -83 118 -90 51 -17 61 -32 53 -81 -10 -60 -119 -181 -212 -235 -43 -25 -81 -12 -108 36 -11 20 -47 67 -80 104 -97 110 -110 137 -107 225 3 102 19 123 98 130 58 5 86 4 133 -6z"></path> 
<path fill="#ef4444" d="M1905 3916 c-5 -3 -44 -15 -85 -27 -174 -53 -358 -202 -443 -360 -62 -115 -93 -208 -107 -319 -17 -138 -2 -314 35 -410 77 -199 148 -297 290 -405 156 -117 304 -165 515 -165 187 0 286 30 436 131 162 108 256 245 330 482 24 76 26 90 21 236 -4 130 -9 168 -29 231 -98 297 -295 496 -578 582 -49 15 -103 21 -220 24 -85 2 -159 2 -165 0z m-88 -263 c21 -63 55 -117 114 -178 78 -80 89 -104 89 -184 0 -96 -8 -121 -46 -137 -39 -16 -151 -19 -189 -4 -15 6 -57 37 -94 70 -36 34 -92 77 -123 98 -54 34 -58 40 -58 75 0 77 137 233 230 262 60 18 70 18 77 -2z m615 -3 c85 -37 243 -236 225 -283 -3 -9 -32 -30 -64 -46 -32 -16 -83 -55 -113 -85 -86 -88 -103 -96 -203 -96 -101 0 -123 13 -138 80 -21 91 5 163 96 265 34 39 73 90 85 115 40 80 43 81 112 50z m-445 -657 c27 -6 33 -29 33 -133 0 -98 -5 -108 -93 -194 -59 -58 -77 -89 -77 -130 0 -37 -33 -60 -77 -54 -37 5 -133 61 -133 77 0 4 -24 33 -53 63 -96 99 -99 150 -12 201 27 16 84 62 127 102 46 44 89 76 106 78 29 5 143 -1 179 -10z m390 5 c15 -7 64 -46 108 -86 44 -41 99 -83 122 -93 23 -11 45 -24 48 -29 14 -23 7 -72 -13 -93 -12 -13 -22 -28 -22 -33 0 -17 -155 -162 -184 -174 -15 -5 -40 -10 -55 -10 -25 0 -32 7 -51 53 -14 32 -50 81 -94 127 -80 84 -96 121 -96 222 0 72 21 113 63 121 48 9 148 6 174 -5z"></path> 
</g>
</svg>